Modular-C-Regular.ufo
<glyph name="quotedbl" format="1">
  <advance width="293"/>
  <unicode hex="0022"/>
  <outline>
    <contour>
      <point x="168" y="511" type="line"/>
      <point x="168" y="464" type="line"/>
      <point x="187" y="325" type="line"/>
      <point x="242" y="325" type="line"/>
      <point x="262" y="464" type="line"/>
      <point x="262" y="511" type="line"/>
    </contour>
    <contour>
      <point x="31" y="511" type="line"/>
      <point x="31" y="464" type="line"/>
      <point x="50" y="325" type="line"/>
      <point x="105" y="325" type="line"/>
      <point x="125" y="464" type="line"/>
      <point x="125" y="511" type="line"/>
    </contour>
  </outline>
</glyph>
<glyph name="quotesingle" format="1">
  <advance width="156"/>
  <unicode hex="0027"/>
  <outline>
    <contour>
      <point x="31" y="511" type="line"/>
      <point x="31" y="464" type="line"/>
      <point x="50" y="325" type="line"/>
      <point x="105" y="325" type="line"/>
      <point x="125" y="464" type="line"/>
      <point x="125" y="511" type="line"/>
    </contour>
  </outline>
</glyph>
<glyph name="plus" format="1">
  <advance width="406"/>
  <unicode hex="002B"/>
  <outline>
    <contour>
      <point x="60" y="190" type="line"/>
      <point x="170" y="190" type="line"/>
      <point x="170" y="79" type="line"/>
      <point x="237" y="79" type="line"/>
      <point x="237" y="190" type="line"/>
      <point x="347" y="190" type="line"/>
      <point x="347" y="257" type="line"/>
      <point x="237" y="257" type="line"/>
      <point x="237" y="366" type="line"/>
      <point x="170" y="366" type="line"/>
      <point x="170" y="257" type="line"/>
      <point x="60" y="257" type="line"/>
    </contour>
  </outline>
</glyph>
<glyph name="comma" format="1">
  <advance width="153"/>
  <unicode hex="002C"/>
  <outline>
    <contour>
      <point x="48" y="104"/>
      <point x="26" y="82"/>
      <point x="26" y="54" type="curve" smooth="yes"/>
      <point x="26" y="29"/>
      <point x="42" y="9"/>
      <point x="42" y="-12" type="curve" smooth="yes"/>
      <point x="42" y="-36"/>
      <point x="36" y="-51"/>
      <point x="18" y="-68" type="curve"/>
      <point x="36" y="-90" type="line"/>
      <point x="80" y="-63"/>
      <point x="126" y="-17"/>
      <point x="126" y="47" type="curve" smooth="yes"/>
      <point x="126" y="81"/>
      <point x="103" y="104"/>
      <point x="76" y="104" type="curve" smooth="yes"/>
    </contour>
  </outline>
</glyph>
<glyph name="hyphen" format="1">
  <advance width="332"/>
  <unicode hex="002D"/>
  <outline>
    <contour>
      <point x="43" y="190" type="line"/>
      <point x="289" y="190" type="line"/>
      <point x="289" y="257" type="line"/>
      <point x="43" y="257" type="line"/>
    </contour>
  </outline>
</glyph>
<glyph name="slash" format="1">
  <advance width="282"/>
  <unicode hex="002F"/>
  <outline>
    <contour>
      <point x="8" y="-74" type="line"/>
      <point x="108" y="-74" type="line"/>
      <point x="274" y="543" type="line"/>
      <point x="174" y="543" type="line"/>
    </contour>
  </outline>
</glyph>
<glyph name="one" format="1">
  <advance width="454"/>
  <unicode hex="0031"/>
  <outline>
    <contour>
      <point x="83" y="0" type="line"/>
      <point x="393" y="0" type="line"/>
      <point x="393" y="40" type="line"/>
      <point x="83" y="40" type="line"/>
    </contour>
    <contour>
      <point x="291" y="40" type="line"/>
      <point x="291" y="511" type="line"/>
      <point x="251" y="511" type="line"/>
      <point x="192" y="464" type="line"/>
      <point x="192" y="40" type="line"/>
    </contour>
    <contour>
      <point x="80" y="421" type="line"/>
      <point x="212" y="424" type="line"/>
      <point x="251" y="511" type="line"/>
      <point x="211" y="482"/>
      <point x="136" y="461"/>
      <point x="80" y="459" type="curve"/>
    </contour>
  </outline>
</glyph>
<glyph name="two" format="1">
  <advance width="454"/>
  <unicode hex="0032"/>
  <outline>
    <contour>
      <point x="138" y="351" type="line"/>
      <point x="141" y="440"/>
      <point x="168" y="480"/>
      <point x="222" y="480" type="curve" smooth="yes"/>
      <point x="270" y="480"/>
      <point x="297" y="449"/>
      <point x="297" y="393" type="curve" smooth="yes"/>
      <point x="297" y="332"/>
      <point x="285" y="295"/>
      <point x="220" y="232" type="curve" smooth="yes"/>
      <point x="47" y="63" type="line"/>
      <point x="47" y="0" type="line"/>
      <point x="403" y="0" type="line"/>
      <point x="403" y="78" type="line"/>
      <point x="152" y="78" type="line"/>
      <point x="310" y="232" type="line" smooth="yes"/>
      <point x="379" y="299"/>
      <point x="396" y="342"/>
      <point x="396" y="393" type="curve" smooth="yes"/>
      <point x="396" y="472"/>
      <point x="332" y="521"/>
      <point x="222" y="521" type="curve" smooth="yes"/>
      <point x="115" y="521"/>
      <point x="59" y="469"/>
      <point x="52" y="365" type="curve"/>
    </contour>
  </outline>
</glyph>
<glyph name="five" format="1">
  <advance width="454"/>
  <unicode hex="0035"/>
  <outline>
    <contour>
      <point x="58" y="147" type="line"/>
      <point x="64" y="48"/>
      <point x="116" y="-10"/>
      <point x="229" y="-10" type="curve" smooth="yes"/>
      <point x="354" y="-10"/>
      <point x="414" y="63"/>
      <point x="414" y="143" type="curve" smooth="yes"/>
      <point x="414" y="238"/>
      <point x="343" y="305"/>
      <point x="191" y="305" type="curve" smooth="yes"/>
      <point x="123" y="305" type="line"/>
      <point x="133" y="433" type="line"/>
      <point x="381" y="433" type="line"/>
      <point x="381" y="511" type="line"/>
      <point x="98" y="511" type="line"/>
      <point x="82" y="266" type="line"/>
      <point x="154" y="266" type="line" smooth="yes"/>
      <point x="279" y="266"/>
      <point x="314" y="210"/>
      <point x="314" y="143" type="curve" smooth="yes"/>
      <point x="314" y="81"/>
      <point x="289" y="30"/>
      <point x="229" y="30" type="curve" smooth="yes"/>
      <point x="171" y="30"/>
      <point x="148" y="78"/>
      <point x="145" y="155" type="curve"/>
    </contour>
  </outline>
</glyph>
<glyph name="seven" format="1">
  <advance width="454"/>
  <unicode hex="0037"/>
  <outline>
    <contour>
      <point x="187" y="0" type="line"/>
      <point x="399" y="449" type="line"/>
      <point x="399" y="511" type="line"/>
      <point x="46" y="511" type="line"/>
      <point x="46" y="434" type="line"/>
      <point x="320" y="434" type="line"/>
      <point x="97" y="0" type="line"/>
    </contour>
  </outline>
</glyph>
<glyph name="nine" format="1">
  <advance width="454"/>
  <unicode hex="0039"/>
  <outline>
    <contour>
      <point x="44" y="137" type="line"/>
      <point x="49" y="39"/>
      <point x="109" y="-10"/>
      <point x="217" y="-10" type="curve" smooth="yes"/>
      <point x="368" y="-10"/>
      <point x="411" y="93"/>
      <point x="411" y="275" type="curve" smooth="yes"/>
      <point x="411" y="422"/>
      <point x="362" y="521"/>
      <point x="226" y="521" type="curve" smooth="yes"/>
      <point x="103" y="521"/>
      <point x="35" y="448"/>
      <point x="35" y="352" type="curve" smooth="yes"/>
      <point x="35" y="272"/>
      <point x="77" y="203"/>
      <point x="204" y="203" type="curve" smooth="yes"/>
      <point x="249" y="203"/>
      <point x="291" y="212"/>
      <point x="343" y="246" type="curve"/>
      <point x="344" y="283" type="line"/>
      <point x="301" y="252"/>
      <point x="269" y="243"/>
      <point x="229" y="243" type="curve" smooth="yes"/>
      <point x="157" y="243"/>
      <point x="136" y="305"/>
      <point x="136" y="357" type="curve" smooth="yes"/>
      <point x="136" y="427"/>
      <point x="165" y="481"/>
      <point x="226" y="481" type="curve" smooth="yes"/>
      <point x="296" y="481"/>
      <point x="312" y="405"/>
      <point x="312" y="258" type="curve" smooth="yes"/>
      <point x="312" y="101"/>
      <point x="295" y="30"/>
      <point x="217" y="30" type="curve" smooth="yes"/>
      <point x="159" y="30"/>
      <point x="133" y="74"/>
      <point x="129" y="146" type="curve"/>
    </contour>
  </outline>
</glyph>
<glyph name="equal" format="1">
  <advance width="406"/>
  <unicode hex="003D"/>
  <outline>
    <contour>
      <point x="60" y="266" type="line"/>
      <point x="347" y="266" type="line"/>
      <point x="347" y="333" type="line"/>
      <point x="60" y="333" type="line"/>
    </contour>
    <contour>
      <point x="60" y="113" type="line"/>
      <point x="347" y="113" type="line"/>
      <point x="347" y="180" type="line"/>
      <point x="60" y="180" type="line"/>
    </contour>
  </outline>
</glyph>
<glyph name="greater" format="1">
  <advance width="406"/>
  <unicode hex="003E"/>
  <outline>
    <contour>
      <point x="344" y="247" type="line"/>
      <point x="62" y="133" type="line"/>
      <point x="62" y="59" type="line"/>
      <point x="344" y="180" type="line"/>
    </contour>
    <contour>
      <point x="344" y="264" type="line"/>
      <point x="62" y="385" type="line"/>
      <point x="62" y="310" type="line"/>
      <point x="344" y="197" type="line"/>
    </contour>
  </outline>
</glyph>
<glyph name="A" format="1">
  <advance width="457"/>
  <unicode hex="0041"/>
  <outline>
    <contour>
      <point x="87" y="148" type="line"/>
      <point x="339" y="148" type="line"/>
      <point x="339" y="196" type="line"/>
      <point x="87" y="196" type="line"/>
    </contour>
    <contour>
      <point x="194" y="511" type="line"/>
      <point x="353" y="0" type="line"/>
      <point x="450" y="0" type="line"/>
      <point x="288" y="511" type="line"/>
    </contour>
    <contour>
      <point x="170" y="511" type="line"/>
      <point x="8" y="0" type="line"/>
      <point x="66" y="0" type="line"/>
      <point x="224" y="511" type="line"/>
    </contour>
    <contour>
      <point x="453" y="7" type="move" name="ogonek"/>
    </contour>
    <contour>
      <point x="229" y="511" type="move" name="top"/>
    </contour>
  </outline>
</glyph>
<glyph name="C" format="1">
  <advance width="437"/>
  <unicode hex="0043"/>
  <outline>
    <contour>
      <point x="417" y="379" type="line"/>
      <point x="407" y="465"/>
      <point x="370" y="521"/>
      <point x="246" y="521" type="curve" smooth="yes"/>
      <point x="82" y="521"/>
      <point x="37" y="426"/>
      <point x="37" y="255" type="curve" smooth="yes"/>
      <point x="37" y="85"/>
      <point x="82" y="-10"/>
      <point x="246" y="-10" type="curve" smooth="yes"/>
      <point x="379" y="-10"/>
      <point x="412" y="59"/>
      <point x="419" y="163" type="curve"/>
      <point x="338" y="167" type="line"/>
      <point x="337" y="86"/>
      <point x="316" y="32"/>
      <point x="246" y="32" type="curve" smooth="yes"/>
      <point x="158" y="32"/>
      <point x="137" y="102"/>
      <point x="137" y="255" type="curve" smooth="yes"/>
      <point x="137" y="410"/>
      <point x="158" y="479"/>
      <point x="246" y="479" type="curve" smooth="yes"/>
      <point x="307" y="479"/>
      <point x="331" y="435"/>
      <point x="337" y="366" type="curve"/>
    </contour>
    <contour>
      <point x="219" y="511" type="move" name="top"/>
    </contour>
    <contour>
      <point x="233" y="0" type="move" name="bottom"/>
    </contour>
  </outline>
</glyph>
<glyph name="E" format="1">
  <advance width="392"/>
  <unicode hex="0045"/>
  <outline>
    <contour>
      <point x="64" y="462" type="line"/>
      <point x="355" y="462" type="line"/>
      <point x="355" y="511" type="line"/>
      <point x="64" y="511" type="line"/>
    </contour>
    <contour>
      <point x="64" y="462" type="line"/>
      <point x="64" y="0" type="line"/>
      <point x="164" y="0" type="line"/>
      <point x="164" y="462" type="line"/>
    </contour>
    <contour>
      <point x="64" y="0" type="line"/>
      <point x="369" y="0" type="line"/>
      <point x="369" y="49" type="line"/>
      <point x="64" y="49" type="line"/>
    </contour>
    <contour>
      <point x="164" y="235" type="line"/>
      <point x="337" y="235" type="line"/>
      <point x="337" y="285" type="line"/>
      <point x="164" y="285" type="line"/>
    </contour>
    <contour>
      <point x="414" y="7" type="move" name="ogonek"/>
    </contour>
    <contour>
      <point x="196" y="0" type="move" name="bottom"/>
    </contour>
    <contour>
      <point x="210" y="511" type="move" name="top"/>
    </contour>
  </outline>
</glyph>
<glyph name="H" format="1">
  <advance width="511"/>
  <unicode hex="0048"/>
  <outline>
    <contour>
      <point x="64" y="511" type="line"/>
      <point x="64" y="0" type="line"/>
      <point x="164" y="0" type="line"/>
      <point x="164" y="511" type="line"/>
    </contour>
    <contour>
      <point x="138" y="231" type="line"/>
      <point x="415" y="231" type="line"/>
      <point x="415" y="280" type="line"/>
      <point x="138" y="280" type="line"/>
    </contour>
    <contour>
      <point x="346" y="511" type="line"/>
      <point x="346" y="0" type="line"/>
      <point x="447" y="0" type="line"/>
      <point x="447" y="511" type="line"/>
    </contour>
    <contour>
      <point x="256" y="255" type="move" name="center"/>
    </contour>
    <contour>
      <point x="256" y="511" type="move" name="top"/>
    </contour>
  </outline>
</glyph>
<glyph name="K" format="1">
  <advance width="437"/>
  <unicode hex="004B"/>
  <outline>
    <contour>
      <point x="64" y="511" type="line"/>
      <point x="64" y="0" type="line"/>
      <point x="164" y="0" type="line"/>
      <point x="164" y="511" type="line"/>
    </contour>
    <contour>
      <point x="441" y="0" type="line"/>
      <point x="268" y="270" type="line"/>
      <point x="162" y="270" type="line"/>
      <point x="335" y="0" type="line"/>
    </contour>
    <contour>
      <point x="118" y="235" type="line"/>
      <point x="246" y="235" type="line"/>
      <point x="246" y="285" type="line"/>
      <point x="118" y="285" type="line"/>
    </contour>
    <contour>
      <point x="370" y="511" type="line"/>
      <point x="212" y="267" type="line"/>
      <point x="269" y="267" type="line"/>
      <point x="429" y="511" type="line"/>
    </contour>
    <contour>
      <point x="220" y="511" type="move" name="top"/>
    </contour>
    <contour>
      <point x="220" y="0" type="move" name="bottom"/>
    </contour>
  </outline>
</glyph>
<glyph name="L" format="1">
  <advance width="338"/>
  <unicode hex="004C"/>
  <outline>
    <contour>
      <point x="64" y="511" type="line"/>
      <point x="64" y="0" type="line"/>
      <point x="164" y="0" type="line"/>
      <point x="164" y="511" type="line"/>
    </contour>
    <contour>
      <point x="64" y="0" type="line"/>
      <point x="336" y="0" type="line"/>
      <point x="336" y="49" type="line"/>
      <point x="64" y="49" type="line"/>
    </contour>
    <contour>
      <point x="115" y="511" type="move" name="top"/>
    </contour>
    <contour>
      <point x="190" y="0" type="move" name="bottom"/>
    </contour>
    <contour>
      <point x="324" y="511" type="move" name="topright"/>
    </contour>
  </outline>
</glyph>
<glyph name="M" format="1">
  <advance width="630"/>
  <unicode hex="004D"/>
  <outline>
    <contour>
      <point x="69" y="511" type="line"/>
      <point x="55" y="0" type="line"/>
      <point x="115" y="0" type="line"/>
      <point x="127" y="511" type="line"/>
    </contour>
    <contour>
      <point x="426" y="511" type="line"/>
      <point x="281" y="0" type="line"/>
      <point x="339" y="0" type="line"/>
      <point x="486" y="511" type="line"/>
    </contour>
    <contour>
      <point x="465" y="511" type="line"/>
      <point x="476" y="0" type="line"/>
      <point x="576" y="0" type="line"/>
      <point x="561" y="511" type="line"/>
    </contour>
    <contour>
      <point x="340" y="0" type="line"/>
      <point x="198" y="511" type="line"/>
      <point x="108" y="511" type="line"/>
      <point x="252" y="0" type="line"/>
    </contour>
  </outline>
</glyph>
<glyph name="O" format="1">
  <advance width="495"/>
  <unicode hex="004F"/>
  <outline>
    <contour>
      <point x="391" y="-10"/>
      <point x="457" y="74"/>
      <point x="457" y="255" type="curve" smooth="yes"/>
      <point x="457" y="437"/>
      <point x="391" y="521"/>
      <point x="247" y="521" type="curve" smooth="yes"/>
      <point x="103" y="521"/>
      <point x="37" y="438"/>
      <point x="37" y="255" type="curve" smooth="yes"/>
      <point x="37" y="73"/>
      <point x="103" y="-10"/>
      <point x="247" y="-10" type="curve" smooth="yes"/>
    </contour>
    <contour>
      <point x="172" y="31"/>
      <point x="137" y="101"/>
      <point x="137" y="255" type="curve" smooth="yes"/>
      <point x="137" y="410"/>
      <point x="172" y="480"/>
      <point x="247" y="480" type="curve" smooth="yes"/>
      <point x="322" y="480"/>
      <point x="357" y="408"/>
      <point x="357" y="255" type="curve" smooth="yes"/>
      <point x="357" y="103"/>
      <point x="322" y="31"/>
      <point x="247" y="31" type="curve" smooth="yes"/>
    </contour>
    <contour>
      <point x="248" y="511" type="move" name="top"/>
    </contour>
  </outline>
</glyph>
<glyph name="Q" format="1">
  <advance width="488"/>
  <unicode hex="0051"/>
  <outline>
    <contour>
      <point x="224" y="-8" type="line"/>
      <point x="409" y="-115" type="line"/>
      <point x="444" y="-49" type="line"/>
      <point x="258" y="26" type="line"/>
    </contour>
    <component base="O"/>
  </outline>
</glyph>
<glyph name="R" format="1">
  <advance width="464"/>
  <unicode hex="0052"/>
  <outline>
    <contour>
      <point x="64" y="469" type="line"/>
      <point x="64" y="0" type="line"/>
      <point x="164" y="0" type="line"/>
      <point x="164" y="469" type="line"/>
    </contour>
    <contour>
      <point x="246" y="215" type="line" smooth="yes"/>
      <point x="384" y="215"/>
      <point x="415" y="291"/>
      <point x="415" y="356" type="curve" smooth="yes"/>
      <point x="415" y="427"/>
      <point x="384" y="511"/>
      <point x="246" y="511" type="curve" smooth="yes"/>
      <point x="64" y="511" type="line"/>
      <point x="64" y="215" type="line"/>
    </contour>
    <contour>
      <point x="164" y="252" type="line"/>
      <point x="164" y="474" type="line"/>
      <point x="233" y="474" type="line" smooth="yes"/>
      <point x="292" y="474"/>
      <point x="315" y="415"/>
      <point x="315" y="356" type="curve" smooth="yes"/>
      <point x="315" y="305"/>
      <point x="292" y="252"/>
      <point x="233" y="252" type="curve" smooth="yes"/>
    </contour>
    <contour>
      <point x="197" y="215" type="line"/>
      <point x="232" y="215"/>
      <point x="244" y="210"/>
      <point x="257" y="179" type="curve" smooth="yes"/>
      <point x="329" y="0" type="line"/>
      <point x="437" y="0" type="line"/>
      <point x="359" y="187" type="line" smooth="yes"/>
      <point x="340" y="231"/>
      <point x="296" y="237"/>
      <point x="197" y="237" type="curve"/>
    </contour>
    <contour>
      <point x="232" y="511" type="move" name="top"/>
    </contour>
    <contour>
      <point x="232" y="0" type="move" name="bottom"/>
    </contour>
  </outline>
</glyph>
<glyph name="U" format="1">
  <advance width="492"/>
  <unicode hex="0055"/>
  <outline>
    <contour>
      <point x="379" y="511" type="line"/>
      <point x="379" y="169" type="line" smooth="yes"/>
      <point x="379" y="73"/>
      <point x="320" y="39"/>
      <point x="258" y="39" type="curve" smooth="yes"/>
      <point x="200" y="39"/>
      <point x="154" y="73"/>
      <point x="154" y="169" type="curve" smooth="yes"/>
      <point x="154" y="511" type="line"/>
      <point x="54" y="511" type="line"/>
      <point x="54" y="169" type="line" smooth="yes"/>
      <point x="54" y="28"/>
      <point x="153" y="-10"/>
      <point x="252" y="-10" type="curve" smooth="yes"/>
      <point x="334" y="-10"/>
      <point x="438" y="29"/>
      <point x="438" y="169" type="curve" smooth="yes"/>
      <point x="438" y="511" type="line"/>
    </contour>
    <contour>
      <point x="347" y="7" type="move" name="ogonek"/>
    </contour>
    <contour>
      <point x="254" y="511" type="move" name="top"/>
    </contour>
  </outline>
</glyph>
<glyph name="V" format="1">
  <advance width="442"/>
  <unicode hex="0056"/>
  <outline>
    <contour>
      <point x="255" y="0" type="line"/>
      <point x="106" y="511" type="line"/>
      <point x="6" y="511" type="line"/>
      <point x="163" y="0" type="line"/>
    </contour>
    <contour>
      <point x="280" y="0" type="line"/>
      <point x="437" y="511" type="line"/>
      <point x="377" y="511" type="line"/>
      <point x="228" y="0" type="line"/>
    </contour>
  </outline>
</glyph>
<glyph name="W" format="1">
  <advance width="639"/>
  <unicode hex="0057"/>
  <outline>
    <contour>
      <point x="219" y="0" type="line"/>
      <point x="115" y="511" type="line"/>
      <point x="15" y="511" type="line"/>
      <point x="124" y="0" type="line"/>
    </contour>
    <contour>
      <point x="219" y="0" type="line"/>
      <point x="351" y="511" type="line"/>
      <point x="294" y="511" type="line"/>
      <point x="164" y="0" type="line"/>
    </contour>
    <contour>
      <point x="515" y="0" type="line"/>
      <point x="624" y="511" type="line"/>
      <point x="564" y="511" type="line"/>
      <point x="461" y="0" type="line"/>
    </contour>
    <contour>
      <point x="515" y="0" type="line"/>
      <point x="386" y="511" type="line"/>
      <point x="294" y="511" type="line"/>
      <point x="426" y="0" type="line"/>
    </contour>
    <contour>
      <point x="340" y="511" type="move" name="top"/>
    </contour>
  </outline>
</glyph>
<glyph name="b" format="1">
  <advance width="452"/>
  <unicode hex="0062"/>
  <outline>
    <contour>
      <point x="163" y="59" type="line"/>
      <point x="163" y="539" type="line"/>
      <point x="64" y="526" type="line"/>
      <point x="64" y="0" type="line"/>
      <point x="109" y="0" type="line"/>
    </contour>
    <contour>
      <point x="112" y="312" type="line"/>
      <point x="147" y="345"/>
      <point x="185" y="361"/>
      <point x="225" y="361" type="curve" smooth="yes"/>
      <point x="293" y="361"/>
      <point x="317" y="299"/>
      <point x="317" y="200" type="curve" smooth="yes"/>
      <point x="317" y="109"/>
      <point x="294" y="46"/>
      <point x="225" y="46" type="curve" smooth="yes"/>
      <point x="184" y="46"/>
      <point x="147" y="67"/>
      <point x="112" y="121" type="curve"/>
      <point x="100" y="74" type="line"/>
      <point x="127" y="36"/>
      <point x="178" y="-10"/>
      <point x="252" y="-10" type="curve" smooth="yes"/>
      <point x="386" y="-10"/>
      <point x="416" y="92"/>
      <point x="416" y="200" type="curve" smooth="yes"/>
      <point x="416" y="309"/>
      <point x="386" y="410"/>
      <point x="252" y="410" type="curve" smooth="yes"/>
      <point x="193" y="410"/>
      <point x="138" y="381"/>
      <point x="100" y="351" type="curve"/>
    </contour>
  </outline>
</glyph>
<glyph name="c" format="1">
  <advance width="406"/>
  <unicode hex="0063"/>
  <outline>
    <contour>
      <point x="135" y="307"/>
      <point x="152" y="361"/>
      <point x="214" y="361" type="curve" smooth="yes"/>
      <point x="263" y="361"/>
      <point x="284" y="328"/>
      <point x="286" y="259" type="curve"/>
      <point x="369" y="269" type="line"/>
      <point x="363" y="357"/>
      <point x="326" y="410"/>
      <point x="210" y="410" type="curve" smooth="yes"/>
      <point x="64" y="410"/>
      <point x="36" y="312"/>
      <point x="36" y="200" type="curve" smooth="yes"/>
      <point x="36" y="92"/>
      <point x="64" y="-10"/>
      <point x="210" y="-10" type="curve" smooth="yes"/>
      <point x="327" y="-10"/>
      <point x="364" y="46"/>
      <point x="370" y="138" type="curve"/>
      <point x="286" y="142" type="line"/>
      <point x="284" y="73"/>
      <point x="263" y="39"/>
      <point x="214" y="39" type="curve" smooth="yes"/>
      <point x="152" y="39"/>
      <point x="135" y="94"/>
      <point x="135" y="200" type="curve" smooth="yes"/>
    </contour>
    <contour>
      <point x="200" y="400" type="move" name="top"/>
    </contour>
    <contour>
      <point x="199" y="0" type="move" name="bottom"/>
    </contour>
  </outline>
</glyph>
<glyph name="e" format="1">
  <advance width="421"/>
  <unicode hex="0065"/>
  <outline>
    <contour>
      <point x="74" y="190" type="line"/>
      <point x="385" y="190" type="line"/>
      <point x="385" y="201" type="line"/>
      <point x="381" y="239" type="line"/>
      <point x="74" y="239" type="line"/>
    </contour>
    <contour>
      <point x="336" y="-10"/>
      <point x="373" y="46"/>
      <point x="380" y="115" type="curve"/>
      <point x="298" y="118" type="line"/>
      <point x="296" y="75"/>
      <point x="278" y="39"/>
      <point x="220" y="39" type="curve" smooth="yes"/>
      <point x="160" y="39"/>
      <point x="135" y="77"/>
      <point x="135" y="190" type="curve" smooth="yes"/>
      <point x="135" y="312"/>
      <point x="153" y="361"/>
      <point x="213" y="361" type="curve" smooth="yes"/>
      <point x="277" y="361"/>
      <point x="290" y="300"/>
      <point x="290" y="201" type="curve"/>
      <point x="385" y="201" type="line"/>
      <point x="385" y="306"/>
      <point x="356" y="410"/>
      <point x="214" y="410" type="curve" smooth="yes"/>
      <point x="70" y="410"/>
      <point x="36" y="309"/>
      <point x="36" y="200" type="curve" smooth="yes"/>
      <point x="36" y="64"/>
      <point x="83" y="-10"/>
      <point x="216" y="-10" type="curve" smooth="yes"/>
    </contour>
    <contour>
      <point x="314" y="7" type="move" name="ogonek"/>
    </contour>
    <contour>
      <point x="208" y="0" type="move" name="bottom"/>
    </contour>
    <contour>
      <point x="208" y="400" type="move" name="top"/>
    </contour>
  </outline>
</glyph>
<glyph name="f" format="1">
  <advance width="247"/>
  <unicode hex="0066"/>
  <outline>
    <contour>
      <point x="8" y="350" type="line"/>
      <point x="252" y="350" type="line"/>
      <point x="252" y="400" type="line"/>
      <point x="8" y="400" type="line"/>
    </contour>
    <contour>
      <point x="312" y="521" type="line"/>
      <point x="278" y="539"/>
      <point x="245" y="550"/>
      <point x="209" y="550" type="curve" smooth="yes"/>
      <point x="119" y="550"/>
      <point x="72" y="504"/>
      <point x="72" y="415" type="curve" smooth="yes"/>
      <point x="72" y="0" type="line"/>
      <point x="171" y="0" type="line"/>
      <point x="171" y="439" type="line" smooth="yes"/>
      <point x="171" y="469"/>
      <point x="187" y="492"/>
      <point x="217" y="492" type="curve" smooth="yes"/>
      <point x="242" y="492"/>
      <point x="265" y="474"/>
      <point x="281" y="450" type="curve"/>
    </contour>
  </outline>
</glyph>
<glyph name="j" format="1">
  <advance width="228"/>
  <unicode hex="006A"/>
  <outline>
    <contour>
      <point x="-77" y="-141" type="line"/>
      <point x="-43" y="-158"/>
      <point x="-10" y="-169"/>
      <point x="26" y="-169" type="curve" smooth="yes"/>
      <point x="116" y="-169"/>
      <point x="163" y="-124"/>
      <point x="163" y="-35" type="curve" smooth="yes"/>
      <point x="163" y="400" type="line"/>
      <point x="64" y="400" type="line"/>
      <point x="64" y="-52" type="line" smooth="yes"/>
      <point x="64" y="-86"/>
      <point x="48" y="-112"/>
      <point x="19" y="-112" type="curve" smooth="yes"/>
      <point x="-10" y="-112"/>
      <point x="-30" y="-94"/>
      <point x="-46" y="-70" type="curve"/>
    </contour>
    <contour>
      <point x="146" y="447"/>
      <point x="173" y="473"/>
      <point x="173" y="506" type="curve" smooth="yes"/>
      <point x="173" y="540"/>
      <point x="146" y="567"/>
      <point x="113" y="567" type="curve" smooth="yes"/>
      <point x="80" y="567"/>
      <point x="53" y="540"/>
      <point x="53" y="506" type="curve" smooth="yes"/>
      <point x="53" y="474"/>
      <point x="80" y="447"/>
      <point x="113" y="447" type="curve" smooth="yes"/>
    </contour>
  </outline>
</glyph>
<glyph name="k" format="1">
  <advance width="411"/>
  <unicode hex="006B"/>
  <outline>
    <contour>
      <point x="163" y="0" type="line"/>
      <point x="163" y="539" type="line"/>
      <point x="64" y="526" type="line"/>
      <point x="64" y="0" type="line"/>
    </contour>
    <contour>
      <point x="337" y="400" type="line"/>
      <point x="108" y="154" type="line"/>
      <point x="163" y="154" type="line"/>
      <point x="393" y="400" type="line"/>
    </contour>
    <contour>
      <point x="406" y="0" type="line"/>
      <point x="235" y="254" type="line"/>
      <point x="175" y="190" type="line"/>
      <point x="299" y="0" type="line"/>
    </contour>
    <contour>
      <point x="221" y="0" type="move" name="bottom"/>
    </contour>
  </outline>
</glyph>
<glyph name="l" format="1">
  <advance width="228"/>
  <unicode hex="006C"/>
  <outline>
    <contour>
      <point x="64" y="526" type="line"/>
      <point x="64" y="0" type="line"/>
      <point x="163" y="0" type="line"/>
      <point x="163" y="539" type="line"/>
    </contour>
    <contour>
      <point x="114" y="511" type="move" name="top"/>
    </contour>
    <contour>
      <point x="114" y="0" type="move" name="bottom"/>
    </contour>
    <contour>
      <point x="214" y="400" type="move" name="topright"/>
    </contour>
  </outline>
</glyph>
<glyph name="m" format="1">
  <advance width="700"/>
  <unicode hex="006D"/>
  <outline>
    <contour>
      <point x="108" y="400" type="line"/>
      <point x="64" y="400" type="line"/>
      <point x="64" y="0" type="line"/>
      <point x="163" y="0" type="line"/>
      <point x="163" y="341" type="line"/>
    </contour>
    <contour>
      <point x="126" y="292" type="line"/>
      <point x="153" y="321"/>
      <point x="185" y="354"/>
      <point x="241" y="354" type="curve" smooth="yes"/>
      <point x="283" y="354"/>
      <point x="305" y="331"/>
      <point x="305" y="284" type="curve" smooth="yes"/>
      <point x="305" y="0" type="line"/>
      <point x="404" y="0" type="line"/>
      <point x="404" y="282" type="line" smooth="yes"/>
      <point x="404" y="357"/>
      <point x="366" y="410"/>
      <point x="274" y="410" type="curve" smooth="yes"/>
      <point x="204" y="410"/>
      <point x="139" y="364"/>
      <point x="112" y="330" type="curve"/>
    </contour>
    <contour>
      <point x="365" y="292" type="line"/>
      <point x="391" y="321"/>
      <point x="424" y="354"/>
      <point x="480" y="354" type="curve" smooth="yes"/>
      <point x="522" y="354"/>
      <point x="543" y="331"/>
      <point x="543" y="284" type="curve" smooth="yes"/>
      <point x="543" y="0" type="line"/>
      <point x="642" y="0" type="line"/>
      <point x="642" y="282" type="line" smooth="yes"/>
      <point x="642" y="357"/>
      <point x="604" y="410"/>
      <point x="513" y="410" type="curve" smooth="yes"/>
      <point x="443" y="410"/>
      <point x="378" y="364"/>
      <point x="351" y="330" type="curve"/>
    </contour>
  </outline>
</glyph>
<glyph name="n" format="1">
  <advance width="465"/>
  <unicode hex="006E"/>
  <outline>
    <contour>
      <point x="108" y="400" type="line"/>
      <point x="64" y="400" type="line"/>
      <point x="64" y="0" type="line"/>
      <point x="163" y="0" type="line"/>
      <point x="163" y="341" type="line"/>
    </contour>
    <contour>
      <point x="126" y="290" type="line"/>
      <point x="171" y="335"/>
      <point x="209" y="354"/>
      <point x="251" y="354" type="curve" smooth="yes"/>
      <point x="292" y="354"/>
      <point x="309" y="330"/>
      <point x="309" y="272" type="curve" smooth="yes"/>
      <point x="309" y="0" type="line"/>
      <point x="408" y="0" type="line"/>
      <point x="408" y="282" type="line" smooth="yes"/>
      <point x="408" y="365"/>
      <point x="363" y="410"/>
      <point x="279" y="410" type="curve" smooth="yes"/>
      <point x="222" y="410"/>
      <point x="149" y="375"/>
      <point x="112" y="330" type="curve"/>
    </contour>
    <contour>
      <point x="232" y="400" type="move" name="top"/>
    </contour>
    <contour>
      <point x="232" y="0" type="move" name="bottom"/>
    </contour>
  </outline>
</glyph>
<glyph name="p" format="1">
  <advance width="453"/>
  <unicode hex="0070"/>
  <outline>
    <contour>
      <point x="294" y="354"/>
      <point x="318" y="286"/>
      <point x="318" y="200" type="curve" smooth="yes"/>
      <point x="318" y="101"/>
      <point x="294" y="39"/>
      <point x="226" y="39" type="curve" smooth="yes"/>
      <point x="194" y="39"/>
      <point x="160" y="40"/>
      <point x="111" y="76" type="curve"/>
      <point x="98" y="38" type="line"/>
      <point x="138" y="3"/>
      <point x="204" y="-10"/>
      <point x="252" y="-10" type="curve" smooth="yes"/>
      <point x="386" y="-10"/>
      <point x="417" y="92"/>
      <point x="417" y="200" type="curve" smooth="yes"/>
      <point x="417" y="309"/>
      <point x="386" y="410"/>
      <point x="253" y="410" type="curve" smooth="yes"/>
      <point x="190" y="410"/>
      <point x="127" y="365"/>
      <point x="100" y="329" type="curve"/>
      <point x="111" y="291" type="line"/>
      <point x="145" y="330"/>
      <point x="185" y="354"/>
      <point x="226" y="354" type="curve" smooth="yes"/>
    </contour>
    <contour>
      <point x="109" y="400" type="line"/>
      <point x="64" y="400" type="line"/>
      <point x="64" y="-169" type="line"/>
      <point x="163" y="-156" type="line"/>
      <point x="163" y="348" type="line"/>
    </contour>
  </outline>
</glyph>
<glyph name="s" format="1">
  <advance width="383"/>
  <unicode hex="0073"/>
  <outline>
    <contour>
      <point x="201" y="246" type="line" smooth="yes"/>
      <point x="152" y="260"/>
      <point x="121" y="275"/>
      <point x="121" y="312" type="curve" smooth="yes"/>
      <point x="121" y="341"/>
      <point x="144" y="361"/>
      <point x="189" y="361" type="curve" smooth="yes"/>
      <point x="237" y="361"/>
      <point x="263" y="330"/>
      <point x="268" y="279" type="curve"/>
      <point x="351" y="285" type="line"/>
      <point x="340" y="363"/>
      <point x="297" y="410"/>
      <point x="189" y="410" type="curve" smooth="yes"/>
      <point x="97" y="410"/>
      <point x="37" y="366"/>
      <point x="37" y="290" type="curve" smooth="yes"/>
      <point x="37" y="219"/>
      <point x="79" y="187"/>
      <point x="147" y="168" type="curve" smooth="yes"/>
      <point x="185" y="157" type="line" smooth="yes"/>
      <point x="246" y="141"/>
      <point x="270" y="123"/>
      <point x="270" y="94" type="curve" smooth="yes"/>
      <point x="270" y="65"/>
      <point x="242" y="39"/>
      <point x="200" y="39" type="curve" smooth="yes"/>
      <point x="145" y="39"/>
      <point x="116" y="72"/>
      <point x="111" y="125" type="curve"/>
      <point x="29" y="117" type="line"/>
      <point x="41" y="39"/>
      <point x="85" y="-10"/>
      <point x="200" y="-10" type="curve" smooth="yes"/>
      <point x="293" y="-10"/>
      <point x="354" y="36"/>
      <point x="354" y="115" type="curve" smooth="yes"/>
      <point x="354" y="185"/>
      <point x="311" y="214"/>
      <point x="237" y="235" type="curve" smooth="yes"/>
    </contour>
    <contour>
      <point x="192" y="400" type="move" name="top"/>
    </contour>
    <contour>
      <point x="199" y="0" type="move" name="bottom"/>
    </contour>
  </outline>
</glyph>
<glyph name="u" format="1">
  <advance width="465"/>
  <unicode hex="0075"/>
  <outline>
    <contour>
      <point x="345" y="164" type="line"/>
      <point x="310" y="82"/>
      <point x="274" y="42"/>
      <point x="221" y="42" type="curve" smooth="yes"/>
      <point x="175" y="42"/>
      <point x="156" y="73"/>
      <point x="156" y="129" type="curve" smooth="yes"/>
      <point x="156" y="400" type="line"/>
      <point x="57" y="400" type="line"/>
      <point x="57" y="118" type="line" smooth="yes"/>
      <point x="57" y="44"/>
      <point x="90" y="-10"/>
      <point x="185" y="-10" type="curve" smooth="yes"/>
      <point x="274" y="-10"/>
      <point x="321" y="52"/>
      <point x="351" y="105" type="curve"/>
    </contour>
    <contour>
      <point x="337" y="0" type="line"/>
      <point x="401" y="0" type="line"/>
      <point x="401" y="400" type="line"/>
      <point x="302" y="400" type="line"/>
      <point x="302" y="60" type="line"/>
    </contour>
    <contour>
      <point x="437" y="7" type="move" name="ogonek"/>
    </contour>
    <contour>
      <point x="233" y="400" type="move" name="top"/>
    </contour>
  </outline>
</glyph>
<glyph name="v" format="1">
  <advance width="389"/>
  <unicode hex="0076"/>
  <outline>
    <contour>
      <point x="249" y="0" type="line"/>
      <point x="385" y="400" type="line"/>
      <point x="328" y="400" type="line"/>
      <point x="200" y="0" type="line"/>
    </contour>
    <contour>
      <point x="232" y="0" type="line"/>
      <point x="104" y="400" type="line"/>
      <point x="5" y="400" type="line"/>
      <point x="139" y="0" type="line"/>
    </contour>
  </outline>
</glyph>
<glyph name="w" format="1">
  <advance width="541"/>
  <unicode hex="0077"/>
  <outline>
    <contour>
      <point x="204" y="0" type="line"/>
      <point x="303" y="400" type="line"/>
      <point x="247" y="400" type="line"/>
      <point x="154" y="0" type="line"/>
    </contour>
    <contour>
      <point x="187" y="0" type="line"/>
      <point x="108" y="400" type="line"/>
      <point x="8" y="400" type="line"/>
      <point x="94" y="0" type="line"/>
    </contour>
    <contour>
      <point x="433" y="0" type="line"/>
      <point x="534" y="400" type="line"/>
      <point x="477" y="400" type="line"/>
      <point x="384" y="0" type="line"/>
    </contour>
    <contour>
      <point x="416" y="0" type="line"/>
      <point x="337" y="400" type="line"/>
      <point x="304" y="400" type="line"/>
      <point x="250" y="341" type="line"/>
      <point x="323" y="0" type="line"/>
    </contour>
    <contour>
      <point x="273" y="400" type="move" name="top"/>
    </contour>
  </outline>
</glyph>
<glyph name="braceleft" format="1">
  <advance width="236"/>
  <unicode hex="007B"/>
  <outline>
    <contour>
      <point x="111" y="262" type="line"/>
      <point x="136" y="262"/>
      <point x="158" y="278"/>
      <point x="158" y="310" type="curve" smooth="yes"/>
      <point x="158" y="338"/>
      <point x="152" y="357"/>
      <point x="152" y="391" type="curve" smooth="yes"/>
      <point x="152" y="451"/>
      <point x="171" y="496"/>
      <point x="229" y="496" type="curve"/>
      <point x="229" y="536" type="line"/>
      <point x="96" y="536"/>
      <point x="50" y="473"/>
      <point x="50" y="394" type="curve" smooth="yes"/>
      <point x="50" y="365"/>
      <point x="56" y="341"/>
      <point x="56" y="316" type="curve" smooth="yes"/>
      <point x="56" y="285"/>
      <point x="24" y="276"/>
      <point x="7" y="276" type="curve"/>
      <point x="7" y="235" type="line"/>
      <point x="24" y="235"/>
      <point x="56" y="226"/>
      <point x="56" y="195" type="curve" smooth="yes"/>
      <point x="56" y="170"/>
      <point x="50" y="146"/>
      <point x="50" y="117" type="curve" smooth="yes"/>
      <point x="50" y="38"/>
      <point x="96" y="-25"/>
      <point x="229" y="-25" type="curve"/>
      <point x="229" y="15" type="line"/>
      <point x="171" y="15"/>
      <point x="152" y="62"/>
      <point x="152" y="125" type="curve" smooth="yes"/>
      <point x="152" y="161"/>
      <point x="158" y="181"/>
      <point x="158" y="210" type="curve" smooth="yes"/>
      <point x="158" y="241"/>
      <point x="136" y="257"/>
      <point x="111" y="257" type="curve"/>
    </contour>
  </outline>
</glyph>
<glyph name="asciitilde" format="1">
  <advance width="406"/>
  <unicode hex="007E"/>
  <outline>
    <contour>
      <point x="60" y="190" type="line"/>
      <point x="79" y="178"/>
      <point x="104" y="174"/>
      <point x="123" y="174" type="curve" smooth="yes"/>
      <point x="176" y="174"/>
      <point x="230" y="204"/>
      <point x="283" y="204" type="curve" smooth="yes"/>
      <point x="302" y="204"/>
      <point x="328" y="200"/>
      <point x="347" y="190" type="curve"/>
      <point x="347" y="257" type="line"/>
      <point x="328" y="266"/>
      <point x="302" y="270"/>
      <point x="283" y="270" type="curve" smooth="yes"/>
      <point x="230" y="270"/>
      <point x="176" y="240"/>
      <point x="123" y="240" type="curve" smooth="yes"/>
      <point x="104" y="240"/>
      <point x="79" y="243"/>
      <point x="60" y="257" type="curve"/>
    </contour>
  </outline>
</glyph>
<glyph name="cent" format="1">
  <advance width="441"/>
  <unicode hex="00A2"/>
  <outline>
    <contour>
      <point x="354" y="27"/>
      <point x="399" y="85"/>
      <point x="406" y="171" type="curve"/>
      <point x="328" y="176" type="line"/>
      <point x="326" y="108"/>
      <point x="299" y="67"/>
      <point x="234" y="67" type="curve" smooth="yes"/>
      <point x="163" y="67"/>
      <point x="144" y="154"/>
      <point x="144" y="255" type="curve" smooth="yes"/>
      <point x="144" y="357"/>
      <point x="157" y="444"/>
      <point x="243" y="444" type="curve" smooth="yes"/>
      <point x="293" y="444"/>
      <point x="320" y="392"/>
      <point x="322" y="325" type="curve"/>
      <point x="400" y="329" type="line"/>
      <point x="394" y="415"/>
      <point x="352" y="484"/>
      <point x="243" y="484" type="curve" smooth="yes"/>
      <point x="81" y="484"/>
      <point x="45" y="374"/>
      <point x="45" y="255" type="curve" smooth="yes"/>
      <point x="45" y="137"/>
      <point x="81" y="27"/>
      <point x="234" y="27" type="curve" smooth="yes"/>
    </contour>
    <contour>
      <point x="263" y="463" type="line"/>
      <point x="263" y="567" type="line"/>
      <point x="197" y="567" type="line"/>
      <point x="197" y="463" type="line"/>
    </contour>
    <contour>
      <point x="197" y="47" type="line"/>
      <point x="197" y="-57" type="line"/>
      <point x="263" y="-57" type="line"/>
      <point x="263" y="47" type="line"/>
    </contour>
  </outline>
</glyph>
<glyph name="ordfeminine" format="1">
  <advance width="306"/>
  <unicode hex="00AA"/>
  <outline>
    <contour>
      <point x="109" y="430" type="line"/>
      <point x="113" y="486"/>
      <point x="129" y="498"/>
      <point x="153" y="498" type="curve" smooth="yes"/>
      <point x="174" y="498"/>
      <point x="187" y="483"/>
      <point x="187" y="434" type="curve" smooth="yes"/>
      <point x="187" y="407" type="line"/>
      <point x="127" y="400" type="line" smooth="yes"/>
      <point x="56" y="390"/>
      <point x="28" y="357"/>
      <point x="28" y="315" type="curve" smooth="yes"/>
      <point x="28" y="270"/>
      <point x="51" y="238"/>
      <point x="107" y="238" type="curve" smooth="yes"/>
      <point x="153" y="238"/>
      <point x="180" y="257"/>
      <point x="201" y="276" type="curve"/>
      <point x="227" y="245" type="line"/>
      <point x="271" y="245" type="line"/>
      <point x="271" y="435" type="line" smooth="yes"/>
      <point x="271" y="515"/>
      <point x="210" y="532"/>
      <point x="153" y="532" type="curve" smooth="yes"/>
      <point x="92" y="532"/>
      <point x="49" y="503"/>
      <point x="42" y="447" type="curve"/>
    </contour>
    <contour>
      <point x="118" y="278"/>
      <point x="104" y="294"/>
      <point x="104" y="317" type="curve" smooth="yes"/>
      <point x="104" y="336"/>
      <point x="111" y="370"/>
      <point x="159" y="377" type="curve" smooth="yes"/>
      <point x="187" y="380" type="line"/>
      <point x="187" y="295" type="line"/>
      <point x="179" y="287"/>
      <point x="165" y="278"/>
      <point x="143" y="278" type="curve" smooth="yes"/>
    </contour>
    <contour>
      <point x="22" y="140" type="line"/>
      <point x="275" y="140" type="line"/>
      <point x="275" y="197" type="line"/>
      <point x="22" y="197" type="line"/>
    </contour>
  </outline>
</glyph>
<glyph name="guillemotleft" format="1">
  <advance width="367"/>
  <unicode hex="00AB"/>
  <outline>
    <contour>
      <point x="181" y="330" type="line"/>
      <point x="150" y="361" type="line"/>
      <point x="22" y="238" type="line"/>
      <point x="22" y="203" type="line"/>
      <point x="150" y="80" type="line"/>
      <point x="181" y="111" type="line"/>
      <point x="104" y="221" type="line"/>
    </contour>
    <contour>
      <point x="344" y="330" type="line"/>
      <point x="312" y="361" type="line"/>
      <point x="185" y="238" type="line"/>
      <point x="185" y="203" type="line"/>
      <point x="312" y="80" type="line"/>
      <point x="344" y="111" type="line"/>
      <point x="266" y="221" type="line"/>
    </contour>
  </outline>
</glyph>
<glyph name="logicalnot" format="1">
  <advance width="406"/>
  <unicode hex="00AC"/>
  <outline>
    <contour>
      <point x="60" y="190" type="line"/>
      <point x="347" y="190" type="line"/>
      <point x="347" y="257" type="line"/>
      <point x="60" y="257" type="line"/>
    </contour>
    <contour>
      <point x="346" y="93" type="line"/>
      <point x="346" y="257" type="line"/>
      <point x="282" y="257" type="line"/>
      <point x="282" y="93" type="line"/>
    </contour>
  </outline>
</glyph>
<glyph name="registered" format="1">
  <advance width="515"/>
  <unicode hex="00AE"/>
  <outline>
    <contour>
      <point x="33" y="247"/>
      <point x="112" y="168"/>
      <point x="258" y="168" type="curve" smooth="yes"/>
      <point x="403" y="168"/>
      <point x="482" y="247"/>
      <point x="482" y="392" type="curve" smooth="yes"/>
      <point x="482" y="538"/>
      <point x="403" y="617"/>
      <point x="258" y="617" type="curve" smooth="yes"/>
      <point x="112" y="617"/>
      <point x="33" y="538"/>
      <point x="33" y="392" type="curve" smooth="yes"/>
    </contour>
    <contour>
      <point x="86" y="505"/>
      <point x="141" y="568"/>
      <point x="258" y="568" type="curve" smooth="yes"/>
      <point x="374" y="568"/>
      <point x="430" y="505"/>
      <point x="430" y="392" type="curve" smooth="yes"/>
      <point x="430" y="279"/>
      <point x="374" y="217"/>
      <point x="258" y="217" type="curve" smooth="yes"/>
      <point x="141" y="217"/>
      <point x="86" y="279"/>
      <point x="86" y="392" type="curve" smooth="yes"/>
    </contour>
    <contour>
      <point x="169" y="533" type="line"/>
      <point x="169" y="252" type="line"/>
      <point x="224" y="252" type="line"/>
      <point x="224" y="362" type="line"/>
      <point x="245" y="362" type="line" smooth="yes"/>
      <point x="257" y="362"/>
      <point x="264" y="357"/>
      <point x="269" y="343" type="curve" smooth="yes"/>
      <point x="308" y="252" type="line"/>
      <point x="367" y="252" type="line"/>
      <point x="325" y="345" type="line" smooth="yes"/>
      <point x="320" y="356"/>
      <point x="315" y="364"/>
      <point x="308" y="370" type="curve"/>
      <point x="350" y="382"/>
      <point x="355" y="422"/>
      <point x="355" y="450" type="curve" smooth="yes"/>
      <point x="355" y="484"/>
      <point x="346" y="533"/>
      <point x="261" y="533" type="curve" smooth="yes"/>
    </contour>
    <contour>
      <point x="224" y="402" type="line"/>
      <point x="224" y="492" type="line"/>
      <point x="261" y="492" type="line" smooth="yes"/>
      <point x="295" y="492"/>
      <point x="299" y="467"/>
      <point x="299" y="447" type="curve" smooth="yes"/>
      <point x="299" y="428"/>
      <point x="295" y="402"/>
      <point x="261" y="402" type="curve" smooth="yes"/>
    </contour>
  </outline>
</glyph>
<glyph name="macron" format="1">
  <advance width="248"/>
  <unicode hex="00AF"/>
  <outline>
    <contour>
      <point x="19" y="468" type="line"/>
      <point x="229" y="468" type="line"/>
      <point x="229" y="537" type="line"/>
      <point x="19" y="537" type="line"/>
    </contour>
    <contour>
      <point x="124" y="400" type="move" name="_top"/>
    </contour>
  </outline>
</glyph>
<glyph name="degree" format="1">
  <advance width="298"/>
  <unicode hex="00B0"/>
  <outline>
    <contour>
      <point x="234" y="262"/>
      <point x="275" y="314"/>
      <point x="275" y="391" type="curve" smooth="yes"/>
      <point x="275" y="480"/>
      <point x="224" y="521"/>
      <point x="148" y="521" type="curve" smooth="yes"/>
      <point x="62" y="521"/>
      <point x="22" y="469"/>
      <point x="22" y="391" type="curve" smooth="yes"/>
      <point x="22" y="302"/>
      <point x="72" y="262"/>
      <point x="148" y="262" type="curve" smooth="yes"/>
    </contour>
    <contour>
      <point x="99" y="339"/>
      <point x="99" y="391" type="curve" smooth="yes"/>
      <point x="99" y="459"/>
      <point x="119" y="481"/>
      <point x="148" y="481" type="curve" smooth="yes"/>
      <point x="186" y="481"/>
      <point x="199" y="445"/>
      <point x="199" y="391" type="curve" smooth="yes"/>
      <point x="199" y="325"/>
      <point x="178" y="303"/>
      <point x="148" y="303" type="curve" smooth="yes"/>
      <point x="111" y="303"/>
    </contour>
  </outline>
</glyph>
<glyph name="twosuperior" format="1">
  <advance width="314"/>
  <unicode hex="00B2"/>
  <outline>
    <contour>
      <point x="114" y="466" type="line"/>
      <point x="116" y="515"/>
      <point x="129" y="537"/>
      <point x="157" y="537" type="curve" smooth="yes"/>
      <point x="180" y="537"/>
      <point x="192" y="521"/>
      <point x="192" y="494" type="curve" smooth="yes"/>
      <point x="192" y="460"/>
      <point x="187" y="438"/>
      <point x="149" y="407" type="curve" smooth="yes"/>
      <point x="47" y="326" type="line"/>
      <point x="47" y="280" type="line"/>
      <point x="266" y="280" type="line"/>
      <point x="266" y="336" type="line"/>
      <point x="125" y="336" type="line"/>
      <point x="216" y="407" type="line" smooth="yes"/>
      <point x="258" y="441"/>
      <point x="266" y="466"/>
      <point x="266" y="494" type="curve" smooth="yes"/>
      <point x="266" y="539"/>
      <point x="226" y="566"/>
      <point x="157" y="566" type="curve" smooth="yes"/>
      <point x="89" y="566"/>
      <point x="54" y="537"/>
      <point x="49" y="475" type="curve"/>
    </contour>
  </outline>
</glyph>
<glyph name="acute" format="1">
  <advance width="208"/>
  <unicode hex="00B4"/>
  <outline>
    <contour>
      <point x="74" y="441" type="line"/>
      <point x="213" y="533" type="line"/>
      <point x="154" y="602" type="line"/>
      <point x="54" y="463" type="line"/>
    </contour>
    <contour>
      <point x="108" y="400" type="move" name="_top"/>
    </contour>
  </outline>
</glyph>
<glyph name="mu" format="1">
  <advance width="465"/>
  <unicode hex="00B5"/>
  <outline>
    <contour>
      <point x="144" y="52"/>
      <point x="191" y="-10"/>
      <point x="280" y="-10" type="curve" smooth="yes"/>
      <point x="375" y="-10"/>
      <point x="408" y="44"/>
      <point x="408" y="118" type="curve" smooth="yes"/>
      <point x="408" y="400" type="line"/>
      <point x="309" y="400" type="line"/>
      <point x="309" y="129" type="line" smooth="yes"/>
      <point x="309" y="73"/>
      <point x="290" y="42"/>
      <point x="244" y="42" type="curve" smooth="yes"/>
      <point x="191" y="42"/>
      <point x="155" y="82"/>
      <point x="120" y="164" type="curve"/>
      <point x="114" y="105" type="line"/>
    </contour>
    <contour>
      <point x="163" y="400" type="line"/>
      <point x="64" y="400" type="line"/>
      <point x="64" y="-169" type="line"/>
      <point x="128" y="-169" type="line"/>
      <point x="163" y="60" type="line"/>
    </contour>
  </outline>
</glyph>
<glyph name="paragraph" format="1">
  <advance width="361"/>
  <unicode hex="00B6"/>
  <outline>
    <contour>
      <point x="182" y="424" type="line"/>
      <point x="182" y="0" type="line"/>
      <point x="282" y="0" type="line"/>
      <point x="282" y="424" type="line"/>
    </contour>
    <contour>
      <point x="282" y="188" type="line"/>
      <point x="282" y="469" type="line"/>
      <point x="153" y="469" type="line" smooth="yes"/>
      <point x="50" y="469"/>
      <point x="8" y="400"/>
      <point x="8" y="328" type="curve" smooth="yes"/>
      <point x="8" y="255"/>
      <point x="50" y="188"/>
      <point x="153" y="188" type="curve"/>
    </contour>
  </outline>
</glyph>
<glyph name="onesuperior" format="1">
  <advance width="316"/>
  <unicode hex="00B9"/>
  <outline>
    <contour>
      <point x="199" y="309" type="line"/>
      <point x="199" y="561" type="line"/>
      <point x="168" y="561" type="line"/>
      <point x="125" y="533" type="line"/>
      <point x="125" y="309" type="line"/>
    </contour>
    <contour>
      <point x="257" y="280" type="line"/>
      <point x="257" y="309" type="line"/>
      <point x="60" y="309" type="line"/>
      <point x="60" y="280" type="line"/>
    </contour>
    <contour>
      <point x="138" y="505" type="line"/>
      <point x="168" y="561" type="line"/>
      <point x="140" y="545"/>
      <point x="92" y="531"/>
      <point x="59" y="531" type="curve"/>
      <point x="59" y="503" type="line"/>
    </contour>
  </outline>
</glyph>
<glyph name="germandbls" format="1">
  <advance width="464"/>
  <unicode hex="00DF"/>
  <outline>
    <contour>
      <point x="170" y="367" type="line"/>
      <point x="170" y="444"/>
      <point x="188" y="482"/>
      <point x="238" y="482" type="curve" smooth="yes"/>
      <point x="289" y="482"/>
      <point x="309" y="444"/>
      <point x="309" y="367" type="curve" smooth="yes"/>
      <point x="309" y="323"/>
      <point x="289" y="285"/>
      <point x="245" y="285" type="curve" smooth="yes"/>
      <point x="213" y="285" type="line"/>
      <point x="213" y="261" type="line"/>
      <point x="256" y="261" type="line" smooth="yes"/>
      <point x="346" y="261"/>
      <point x="408" y="313"/>
      <point x="408" y="380" type="curve" smooth="yes"/>
      <point x="408" y="463"/>
      <point x="350" y="522"/>
      <point x="238" y="522" type="curve" smooth="yes"/>
      <point x="131" y="522"/>
      <point x="71" y="475"/>
      <point x="71" y="367" type="curve" smooth="yes"/>
      <point x="71" y="0" type="line"/>
      <point x="170" y="0" type="line"/>
    </contour>
    <contour>
      <point x="455" y="219"/>
      <point x="398" y="274"/>
      <point x="299" y="274" type="curve" smooth="yes"/>
      <point x="213" y="274" type="line"/>
      <point x="213" y="249" type="line"/>
      <point x="272" y="249" type="line" smooth="yes"/>
      <point x="325" y="249"/>
      <point x="356" y="221"/>
      <point x="356" y="133" type="curve" smooth="yes"/>
      <point x="356" y="76"/>
      <point x="351" y="30"/>
      <point x="315" y="30" type="curve" smooth="yes"/>
      <point x="283" y="30"/>
      <point x="274" y="64"/>
      <point x="273" y="138" type="curve"/>
      <point x="193" y="138" type="line"/>
      <point x="193" y="37"/>
      <point x="242" y="-10"/>
      <point x="319" y="-10" type="curve" smooth="yes"/>
      <point x="413" y="-10"/>
      <point x="455" y="53"/>
      <point x="455" y="126" type="curve" smooth="yes"/>
    </contour>
  </outline>
</glyph>
<glyph name="eth" format="1">
  <advance width="446"/>
  <unicode hex="00F0"/>
  <outline>
    <contour>
      <point x="361" y="-10"/>
      <point x="403" y="101"/>
      <point x="403" y="185" type="curve" smooth="yes"/>
      <point x="403" y="391"/>
      <point x="302" y="500"/>
      <point x="240" y="556" type="curve"/>
      <point x="194" y="505" type="line"/>
      <point x="246" y="456"/>
      <point x="291" y="399"/>
      <point x="317" y="310" type="curve"/>
      <point x="295" y="343"/>
      <point x="254" y="354"/>
      <point x="220" y="354" type="curve" smooth="yes"/>
      <point x="79" y="354"/>
      <point x="36" y="257"/>
      <point x="36" y="172" type="curve" smooth="yes"/>
      <point x="36" y="87"/>
      <point x="78" y="-10"/>
      <point x="220" y="-10" type="curve" smooth="yes"/>
    </contour>
    <contour>
      <point x="156" y="30"/>
      <point x="135" y="98"/>
      <point x="135" y="172" type="curve" smooth="yes"/>
      <point x="135" y="247"/>
      <point x="156" y="314"/>
      <point x="222" y="314" type="curve" smooth="yes"/>
      <point x="297" y="314"/>
      <point x="311" y="240"/>
      <point x="311" y="172" type="curve" smooth="yes"/>
      <point x="311" y="98"/>
      <point x="290" y="30"/>
      <point x="222" y="30" type="curve" smooth="yes"/>
    </contour>
    <component base="eslash" xOffset="179" yOffset="189"/>
  </outline>
</glyph>
<glyph name="dotlessi" format="1">
  <advance width="228"/>
  <unicode hex="0131"/>
  <outline>
    <contour>
      <point x="64" y="400" type="line"/>
      <point x="64" y="0" type="line"/>
      <point x="163" y="0" type="line"/>
      <point x="163" y="400" type="line"/>
    </contour>
    <contour>
      <point x="200" y="7" type="move" name="ogonek"/>
    </contour>
    <contour>
      <point x="114" y="400" type="move" name="top"/>
    </contour>
  </outline>
</glyph>
<glyph name="kgreenlandic" format="1">
  <advance width="406"/>
  <unicode hex="0138"/>
  <outline>
    <contour>
      <point x="163" y="0" type="line"/>
      <point x="163" y="400" type="line"/>
      <point x="64" y="400" type="line"/>
      <point x="64" y="0" type="line"/>
    </contour>
    <contour>
      <point x="100" y="183" type="line"/>
      <point x="223" y="183" type="line"/>
      <point x="223" y="249" type="line"/>
      <point x="100" y="249" type="line"/>
    </contour>
    <contour>
      <point x="293" y="400" type="line"/>
      <point x="174" y="228" type="line"/>
      <point x="251" y="189" type="line"/>
      <point x="401" y="400" type="line"/>
    </contour>
    <contour>
      <point x="412" y="0" type="line"/>
      <point x="262" y="214" type="line"/>
      <point x="158" y="214" type="line"/>
      <point x="305" y="0" type="line"/>
    </contour>
  </outline>
</glyph>
<glyph name="Eng" format="1">
  <advance width="533"/>
  <unicode hex="014A"/>
  <outline>
    <contour>
      <point x="228" y="-141" type="line"/>
      <point x="262" y="-158"/>
      <point x="295" y="-169"/>
      <point x="330" y="-169" type="curve" smooth="yes"/>
      <point x="421" y="-169"/>
      <point x="468" y="-124"/>
      <point x="468" y="-35" type="curve" smooth="yes"/>
      <point x="468" y="0" type="line"/>
      <point x="362" y="0" type="line"/>
      <point x="369" y="-13" type="line"/>
      <point x="369" y="-58" type="line" smooth="yes"/>
      <point x="369" y="-89"/>
      <point x="352" y="-112"/>
      <point x="321" y="-112" type="curve" smooth="yes"/>
      <point x="295" y="-112"/>
      <point x="274" y="-94"/>
      <point x="259" y="-70" type="curve"/>
    </contour>
    <component base="N"/>
  </outline>
</glyph>
<glyph name="florin" format="1">
  <advance width="441"/>
  <unicode hex="0192"/>
  <outline>
    <contour>
      <point x="222" y="-153"/>
      <point x="250" y="-102"/>
      <point x="250" y="17" type="curve" smooth="yes"/>
      <point x="250" y="410" type="line"/>
      <point x="250" y="441"/>
      <point x="267" y="463"/>
      <point x="297" y="463" type="curve" smooth="yes"/>
      <point x="326" y="463"/>
      <point x="345" y="445"/>
      <point x="360" y="422" type="curve"/>
      <point x="391" y="492" type="line"/>
      <point x="357" y="510"/>
      <point x="324" y="521"/>
      <point x="289" y="521" type="curve" smooth="yes"/>
      <point x="198" y="521"/>
      <point x="151" y="476"/>
      <point x="151" y="386" type="curve"/>
      <point x="151" y="18" type="line" smooth="yes"/>
      <point x="151" y="-78"/>
      <point x="139" y="-113"/>
      <point x="70" y="-113" type="curve"/>
      <point x="77" y="-153" type="line"/>
    </contour>
    <contour>
      <point x="360" y="207" type="line"/>
      <point x="360" y="274" type="line"/>
      <point x="78" y="274" type="line"/>
      <point x="78" y="207" type="line"/>
    </contour>
  </outline>
</glyph>
<glyph name="dotlessj" format="1">
  <advance width="228"/>
  <unicode hex="0237"/>
  <outline>
    <contour>
      <point x="-77" y="-141" type="line"/>
      <point x="-43" y="-158"/>
      <point x="-10" y="-169"/>
      <point x="26" y="-169" type="curve" smooth="yes"/>
      <point x="116" y="-169"/>
      <point x="163" y="-124"/>
      <point x="163" y="-35" type="curve" smooth="yes"/>
      <point x="163" y="400" type="line"/>
      <point x="64" y="400" type="line"/>
      <point x="64" y="-52" type="line" smooth="yes"/>
      <point x="64" y="-86"/>
      <point x="48" y="-112"/>
      <point x="19" y="-112" type="curve" smooth="yes"/>
      <point x="-10" y="-112"/>
      <point x="-30" y="-94"/>
      <point x="-46" y="-70" type="curve"/>
    </contour>
    <contour>
      <point x="114" y="400" type="move" name="top"/>
    </contour>
  </outline>
</glyph>
<glyph name="circumflex" format="1">
  <advance width="265"/>
  <unicode hex="02C6"/>
  <outline>
    <contour>
      <point x="57" y="438" type="line"/>
      <point x="132" y="509" type="line"/>
      <point x="209" y="438" type="line"/>
      <point x="235" y="461" type="line"/>
      <point x="155" y="587" type="line"/>
      <point x="110" y="587" type="line"/>
      <point x="29" y="461" type="line"/>
    </contour>
    <contour>
      <point x="133" y="400" type="move" name="_top"/>
    </contour>
  </outline>
</glyph>
<glyph name="caron" format="1">
  <advance width="265"/>
  <unicode hex="02C7"/>
  <outline>
    <contour>
      <point x="110" y="438" type="line"/>
      <point x="155" y="438" type="line"/>
      <point x="235" y="563" type="line"/>
      <point x="209" y="587" type="line"/>
      <point x="132" y="516" type="line"/>
      <point x="57" y="587" type="line"/>
      <point x="29" y="563" type="line"/>
    </contour>
    <contour>
      <point x="132" y="400" type="move" name="_top"/>
    </contour>
  </outline>
</glyph>
<glyph name="dotaccent" format="1">
  <advance width="227"/>
  <unicode hex="02D9"/>
  <outline>
    <contour>
      <point x="147" y="447"/>
      <point x="174" y="473"/>
      <point x="174" y="506" type="curve" smooth="yes"/>
      <point x="174" y="540"/>
      <point x="147" y="567"/>
      <point x="114" y="567" type="curve" smooth="yes"/>
      <point x="81" y="567"/>
      <point x="54" y="540"/>
      <point x="54" y="506" type="curve" smooth="yes"/>
      <point x="54" y="474"/>
      <point x="81" y="447"/>
      <point x="114" y="447" type="curve" smooth="yes"/>
    </contour>
    <contour>
      <point x="114" y="400" type="move" name="_top"/>
    </contour>
  </outline>
</glyph>
<glyph name="ring" format="1">
  <advance width="191"/>
  <unicode hex="02DA"/>
  <outline>
    <contour>
      <point x="164" y="434"/>
      <point x="176" y="480"/>
      <point x="176" y="514" type="curve" smooth="yes"/>
      <point x="176" y="548"/>
      <point x="164" y="594"/>
      <point x="95" y="594" type="curve" smooth="yes"/>
      <point x="27" y="594"/>
      <point x="15" y="548"/>
      <point x="15" y="514" type="curve" smooth="yes"/>
      <point x="15" y="480"/>
      <point x="27" y="434"/>
      <point x="95" y="434" type="curve" smooth="yes"/>
    </contour>
    <contour>
      <point x="66" y="496"/>
      <point x="66" y="514" type="curve" smooth="yes"/>
      <point x="66" y="533"/>
      <point x="70" y="562"/>
      <point x="95" y="562" type="curve" smooth="yes"/>
      <point x="122" y="562"/>
      <point x="126" y="533"/>
      <point x="126" y="514" type="curve" smooth="yes"/>
      <point x="126" y="496"/>
      <point x="122" y="467"/>
      <point x="95" y="467" type="curve" smooth="yes"/>
      <point x="70" y="467"/>
    </contour>
    <contour>
      <point x="95" y="400" type="move" name="_top"/>
    </contour>
  </outline>
</glyph>
<glyph name="hungarumlaut" format="1">
  <advance width="371"/>
  <unicode hex="02DD"/>
  <outline>
    <contour>
      <point x="67" y="441" type="line"/>
      <point x="206" y="533" type="line"/>
      <point x="147" y="602" type="line"/>
      <point x="47" y="463" type="line"/>
    </contour>
    <contour>
      <point x="223" y="441" type="line"/>
      <point x="362" y="533" type="line"/>
      <point x="303" y="602" type="line"/>
      <point x="203" y="463" type="line"/>
    </contour>
    <contour>
      <point x="186" y="400" type="move" name="_top"/>
    </contour>
  </outline>
</glyph>
<glyph name="pi" format="1">
  <advance width="458"/>
  <unicode hex="03C0"/>
  <outline>
    <contour>
      <point x="286" y="400" type="line"/>
      <point x="286" y="0" type="line"/>
      <point x="385" y="0" type="line"/>
      <point x="385" y="400" type="line"/>
    </contour>
    <contour>
      <point x="72" y="400" type="line"/>
      <point x="72" y="0" type="line"/>
      <point x="171" y="0" type="line"/>
      <point x="171" y="400" type="line"/>
    </contour>
    <contour>
      <point x="30" y="350" type="line"/>
      <point x="427" y="350" type="line"/>
      <point x="427" y="400" type="line"/>
      <point x="30" y="400" type="line"/>
    </contour>
  </outline>
</glyph>
<glyph name="candraBindu-deva" format="1">
  <advance width="0"/>
  <unicode hex="0901"/>
  <outline>
    <component base="anusvara-deva" xOffset="20" yOffset="28"/>
    <component base="eCandraMatra-deva"/>
    <contour>
      <point x="-120" y="500" type="move" name="_top"/>
    </contour>
  </outline>
</glyph>
<glyph name="aa-deva" format="1">
  <advance width="899"/>
  <unicode hex="0906"/>
  <outline>
    <component base="a-deva"/>
    <component base="aaMatra-deva" xOffset="659"/>
    <contour>
      <point x="224" y="-100" type="move" name="nukta"/>
    </contour>
    <contour>
      <point x="639" y="0" type="move" name="bottom"/>
    </contour>
    <contour>
      <point x="639" y="500" type="move" name="top"/>
    </contour>
  </outline>
</glyph>
<glyph name="i-deva" format="1">
  <advance width="504"/>
  <unicode hex="0907"/>
  <outline>
    <contour>
      <point x="363" y="59"/>
      <point x="293" y="25"/>
      <point x="225" y="25" type="curve" smooth="yes"/>
      <point x="164" y="25"/>
      <point x="103" y="55"/>
      <point x="103" y="114" type="curve" smooth="yes"/>
      <point x="103" y="130"/>
      <point x="112" y="143"/>
      <point x="123" y="143" type="curve" smooth="yes"/>
      <point x="144" y="143"/>
      <point x="161" y="122"/>
      <point x="223" y="4" type="curve" smooth="yes"/>
      <point x="253" y="-53"/>
      <point x="291" y="-89"/>
      <point x="345" y="-89" type="curve" smooth="yes"/>
      <point x="385" y="-89"/>
      <point x="419" y="-75"/>
      <point x="436" y="-51" type="curve"/>
      <point x="374" y="-51"/>
      <point x="346" y="-34"/>
      <point x="320" y="15" type="curve" smooth="yes"/>
      <point x="252" y="142"/>
      <point x="198" y="178"/>
      <point x="123" y="178" type="curve" smooth="yes"/>
      <point x="68" y="178"/>
      <point x="24" y="147"/>
      <point x="24" y="109" type="curve" smooth="yes"/>
      <point x="24" y="41"/>
      <point x="109" y="-10"/>
      <point x="218" y="-10" type="curve" smooth="yes"/>
      <point x="342" y="-10"/>
      <point x="473" y="38"/>
      <point x="473" y="150" type="curve"/>
      <point x="473" y="318"/>
      <point x="183" y="275"/>
      <point x="183" y="365" type="curve" smooth="yes"/>
      <point x="183" y="381"/>
      <point x="208" y="395"/>
      <point x="238" y="395" type="curve" smooth="yes"/>
      <point x="281" y="395"/>
      <point x="323" y="378"/>
      <point x="353" y="350" type="curve"/>
      <point x="433" y="350" type="line"/>
      <point x="433" y="470" type="line"/>
      <point x="514" y="470" type="line"/>
      <point x="514" y="500" type="line"/>
      <point x="-10" y="500" type="line"/>
      <point x="-10" y="470" type="line"/>
      <point x="333" y="470" type="line"/>
      <point x="333" y="410" type="line"/>
      <point x="292" y="425"/>
      <point x="259" y="430"/>
      <point x="228" y="430" type="curve" smooth="yes"/>
      <point x="143" y="430"/>
      <point x="73" y="402"/>
      <point x="73" y="342" type="curve" smooth="yes"/>
      <point x="73" y="194"/>
      <point x="363" y="254"/>
      <point x="363" y="123" type="curve"/>
    </contour>
    <contour>
      <point x="383" y="500" type="move" name="top"/>
    </contour>
  </outline>
</glyph>
<glyph name="lVocalic-deva" format="1">
  <advance width="637"/>
  <unicode hex="090C"/>
  <outline>
    <contour>
      <point x="603" y="295"/>
      <point x="569" y="360"/>
      <point x="513" y="390" type="curve"/>
      <point x="513" y="470" type="line"/>
      <point x="647" y="470" type="line"/>
      <point x="647" y="500" type="line"/>
      <point x="-10" y="500" type="line"/>
      <point x="-10" y="470" type="line"/>
      <point x="413" y="470" type="line"/>
      <point x="413" y="400" type="line"/>
      <point x="376" y="393"/>
      <point x="343" y="370"/>
      <point x="323" y="335" type="curve"/>
      <point x="301" y="375"/>
      <point x="263" y="400"/>
      <point x="218" y="400" type="curve" smooth="yes"/>
      <point x="113" y="400"/>
      <point x="33" y="311"/>
      <point x="33" y="200" type="curve" smooth="yes"/>
      <point x="33" y="89"/>
      <point x="118" y="0"/>
      <point x="223" y="0" type="curve"/>
      <point x="268" y="50" type="line"/>
      <point x="199" y="50"/>
      <point x="143" y="135"/>
      <point x="143" y="240" type="curve" smooth="yes"/>
      <point x="143" y="289"/>
      <point x="156" y="360"/>
      <point x="188" y="360" type="curve" smooth="yes"/>
      <point x="238" y="360"/>
      <point x="281" y="297"/>
      <point x="281" y="220" type="curve"/>
      <point x="351" y="220" type="line"/>
      <point x="351" y="297"/>
      <point x="387" y="360"/>
      <point x="428" y="360" type="curve" smooth="yes"/>
      <point x="471" y="360"/>
      <point x="493" y="276"/>
      <point x="493" y="210" type="curve"/>
      <point x="493" y="37"/>
      <point x="357" y="48"/>
      <point x="357" y="-47" type="curve" smooth="yes"/>
      <point x="357" y="-108"/>
      <point x="424" y="-155"/>
      <point x="512" y="-155" type="curve" smooth="yes"/>
      <point x="587" y="-155"/>
      <point x="654" y="-118"/>
      <point x="687" y="-76" type="curve"/>
      <point x="637" y="-36" type="line"/>
      <point x="613" y="-74"/>
      <point x="582" y="-110"/>
      <point x="534" y="-110" type="curve" smooth="yes"/>
      <point x="485" y="-110"/>
      <point x="457" y="-78"/>
      <point x="457" y="-36" type="curve" smooth="yes"/>
      <point x="457" y="70"/>
      <point x="603" y="76"/>
      <point x="603" y="220" type="curve"/>
    </contour>
    <contour>
      <point x="463" y="500" type="move" name="top"/>
    </contour>
    <contour>
      <point x="351" y="0" type="move" name="bottom"/>
    </contour>
  </outline>
</glyph>
<glyph name="ka-deva" format="1">
  <advance width="761"/>
  <unicode hex="0915"/>
  <outline>
    <contour>
      <point x="-10" y="500" type="line"/>
      <point x="-10" y="470" type="line"/>
      <point x="333" y="470" type="line"/>
      <point x="333" y="343" type="line"/>
      <point x="311" y="390"/>
      <point x="266" y="420"/>
      <point x="213" y="420" type="curve" smooth="yes"/>
      <point x="113" y="420"/>
      <point x="33" y="331"/>
      <point x="33" y="220" type="curve" smooth="yes"/>
      <point x="33" y="117"/>
      <point x="107" y="35"/>
      <point x="198" y="35" type="curve" smooth="yes"/>
      <point x="241" y="35"/>
      <point x="301" y="52"/>
      <point x="333" y="115" type="curve"/>
      <point x="333" y="0" type="line"/>
      <point x="434" y="0" type="line"/>
      <point x="434" y="190" type="line" smooth="yes"/>
      <point x="434" y="281"/>
      <point x="479" y="355"/>
      <point x="534" y="355" type="curve" smooth="yes"/>
      <point x="581" y="355"/>
      <point x="619" y="297"/>
      <point x="619" y="225" type="curve" smooth="yes"/>
      <point x="619" y="137"/>
      <point x="571" y="65"/>
      <point x="514" y="65" type="curve" smooth="yes"/>
      <point x="486" y="65"/>
      <point x="466" y="68"/>
      <point x="454" y="75" type="curve"/>
      <point x="463" y="51"/>
      <point x="496" y="35"/>
      <point x="539" y="35" type="curve" smooth="yes"/>
      <point x="644" y="35"/>
      <point x="729" y="120"/>
      <point x="729" y="225" type="curve" smooth="yes"/>
      <point x="729" y="330"/>
      <point x="652" y="415"/>
      <point x="559" y="415" type="curve" smooth="yes"/>
      <point x="507" y="415"/>
      <point x="457" y="373"/>
      <point x="434" y="310" type="curve"/>
      <point x="434" y="470" type="line"/>
      <point x="771" y="470" type="line"/>
      <point x="771" y="500" type="line"/>
    </contour>
    <contour>
      <point x="222" y="380"/>
      <point x="233" y="311"/>
      <point x="233" y="260" type="curve"/>
      <point x="333" y="305" type="line"/>
      <point x="333" y="180" type="line"/>
      <point x="306" y="123"/>
      <point x="270" y="95"/>
      <point x="231" y="95" type="curve" smooth="yes"/>
      <point x="174" y="95"/>
      <point x="143" y="164"/>
      <point x="143" y="250" type="curve" smooth="yes"/>
      <point x="143" y="322"/>
      <point x="167" y="380"/>
      <point x="198" y="380" type="curve" smooth="yes"/>
    </contour>
    <contour>
      <point x="176" y="-71" type="move" name="nukta"/>
    </contour>
    <contour>
      <point x="384" y="0" type="move" name="bottom"/>
    </contour>
    <contour>
      <point x="384" y="500" type="move" name="top"/>
    </contour>
  </outline>
</glyph>
<glyph name="kha-deva" format="1">
  <advance width="834"/>
  <unicode hex="0916"/>
  <outline>
    <contour>
      <point x="377" y="-15"/>
      <point x="429" y="15"/>
      <point x="479" y="69" type="curve"/>
      <point x="502" y="60"/>
      <point x="526" y="55"/>
      <point x="549" y="55" type="curve" smooth="yes"/>
      <point x="600" y="55"/>
      <point x="644" y="82"/>
      <point x="664" y="125" type="curve"/>
      <point x="664" y="0" type="line"/>
      <point x="764" y="0" type="line"/>
      <point x="764" y="470" type="line"/>
      <point x="844" y="470" type="line"/>
      <point x="844" y="500" type="line"/>
      <point x="-10" y="500" type="line"/>
      <point x="-10" y="470" type="line"/>
      <point x="664" y="470" type="line"/>
      <point x="664" y="190" type="line"/>
      <point x="644" y="135"/>
      <point x="603" y="100"/>
      <point x="559" y="100" type="curve" smooth="yes"/>
      <point x="512" y="100"/>
      <point x="474" y="167"/>
      <point x="474" y="250" type="curve" smooth="yes"/>
      <point x="474" y="325"/>
      <point x="501" y="385"/>
      <point x="534" y="385" type="curve" smooth="yes"/>
      <point x="556" y="385"/>
      <point x="571" y="339"/>
      <point x="574" y="300" type="curve"/>
      <point x="659" y="350" type="line"/>
      <point x="644" y="393"/>
      <point x="600" y="420"/>
      <point x="549" y="420" type="curve" smooth="yes"/>
      <point x="446" y="420"/>
      <point x="364" y="340"/>
      <point x="364" y="240" type="curve" smooth="yes"/>
      <point x="364" y="179"/>
      <point x="394" y="122"/>
      <point x="445" y="87" type="curve"/>
      <point x="411" y="49"/>
      <point x="368" y="35"/>
      <point x="338" y="35" type="curve" smooth="yes"/>
      <point x="288" y="35"/>
      <point x="269" y="58"/>
      <point x="237" y="105" type="curve" smooth="yes"/>
      <point x="159" y="222" type="line"/>
      <point x="175" y="217"/>
      <point x="189" y="215"/>
      <point x="202" y="215" type="curve" smooth="yes"/>
      <point x="291" y="215"/>
      <point x="334" y="274"/>
      <point x="334" y="336" type="curve" smooth="yes"/>
      <point x="334" y="389"/>
      <point x="307" y="441"/>
      <point x="261" y="470" type="curve"/>
      <point x="365" y="470" type="line"/>
      <point x="365" y="500" type="line"/>
      <point x="-10" y="500" type="line"/>
      <point x="-10" y="470" type="line"/>
      <point x="166" y="470" type="line"/>
      <point x="205" y="442"/>
      <point x="230" y="395"/>
      <point x="230" y="335" type="curve" smooth="yes"/>
      <point x="230" y="278"/>
      <point x="195" y="252"/>
      <point x="157" y="252" type="curve" smooth="yes"/>
      <point x="115" y="252"/>
      <point x="112" y="280"/>
      <point x="71" y="280" type="curve" smooth="yes"/>
      <point x="40" y="280"/>
      <point x="13" y="265"/>
      <point x="-5" y="240" type="curve"/>
      <point x="96" y="227"/>
      <point x="107" y="-15"/>
      <point x="294" y="-15" type="curve"/>
    </contour>
    <contour>
      <point x="714" y="500" type="move" name="top"/>
    </contour>
    <contour>
      <point x="714" y="0" type="move" name="bottom"/>
    </contour>
  </outline>
</glyph>
<glyph name="ga-deva" format="1">
  <advance width="617"/>
  <unicode hex="0917"/>
  <outline>
    <contour>
      <point x="-10" y="500" type="line"/>
      <point x="-10" y="470" type="line"/>
      <point x="447" y="470" type="line"/>
      <point x="447" y="0" type="line"/>
      <point x="547" y="0" type="line"/>
      <point x="547" y="470" type="line"/>
      <point x="627" y="470" type="line"/>
      <point x="627" y="500" type="line"/>
    </contour>
    <contour>
      <point x="156" y="470" type="line"/>
      <point x="216" y="446"/>
      <point x="257" y="396"/>
      <point x="266" y="360" type="curve"/>
      <point x="249" y="369"/>
      <point x="227" y="375"/>
      <point x="196" y="375" type="curve" smooth="yes"/>
      <point x="101" y="375"/>
      <point x="26" y="306"/>
      <point x="26" y="220" type="curve" smooth="yes"/>
      <point x="26" y="142"/>
      <point x="85" y="80"/>
      <point x="181" y="80" type="curve" smooth="yes"/>
      <point x="289" y="80"/>
      <point x="376" y="159"/>
      <point x="376" y="260" type="curve" smooth="yes"/>
      <point x="376" y="343"/>
      <point x="336" y="417"/>
      <point x="261" y="470" type="curve"/>
    </contour>
    <contour>
      <point x="235" y="340"/>
      <point x="254" y="335"/>
      <point x="271" y="325" type="curve"/>
      <point x="274" y="305"/>
      <point x="276" y="289"/>
      <point x="276" y="265" type="curve" smooth="yes"/>
      <point x="276" y="175"/>
      <point x="240" y="120"/>
      <point x="196" y="120" type="curve" smooth="yes"/>
      <point x="158" y="120"/>
      <point x="126" y="159"/>
      <point x="126" y="230" type="curve" smooth="yes"/>
      <point x="126" y="289"/>
      <point x="167" y="340"/>
      <point x="216" y="340" type="curve" smooth="yes"/>
    </contour>
    <contour>
      <point x="202" y="-55" type="move" name="nukta"/>
    </contour>
    <contour>
      <point x="497" y="0" type="move" name="bottom"/>
    </contour>
    <contour>
      <point x="497" y="500" type="move" name="top"/>
    </contour>
  </outline>
</glyph>
<glyph name="gha-deva" format="1">
  <advance width="509"/>
  <unicode hex="0918"/>
  <outline>
    <contour>
      <point x="-10" y="500" type="line"/>
      <point x="-10" y="470" type="line"/>
      <point x="99" y="470" type="line"/>
      <point x="64" y="453"/>
      <point x="59" y="430"/>
      <point x="59" y="410" type="curve" smooth="yes"/>
      <point x="59" y="365"/>
      <point x="98" y="330"/>
      <point x="154" y="325" type="curve"/>
      <point x="86" y="310"/>
      <point x="34" y="261"/>
      <point x="34" y="190" type="curve" smooth="yes"/>
      <point x="34" y="110"/>
      <point x="106" y="45"/>
      <point x="194" y="45" type="curve" smooth="yes"/>
      <point x="255" y="45"/>
      <point x="311" y="76"/>
      <point x="339" y="125" type="curve"/>
      <point x="339" y="0" type="line"/>
      <point x="439" y="0" type="line"/>
      <point x="439" y="470" type="line"/>
      <point x="519" y="470" type="line"/>
      <point x="519" y="500" type="line"/>
    </contour>
    <contour>
      <point x="339" y="215" type="line"/>
      <point x="327" y="146"/>
      <point x="276" y="95"/>
      <point x="219" y="95" type="curve" smooth="yes"/>
      <point x="178" y="95"/>
      <point x="144" y="138"/>
      <point x="144" y="190" type="curve" smooth="yes"/>
      <point x="144" y="257"/>
      <point x="185" y="310"/>
      <point x="234" y="310" type="curve" smooth="yes"/>
      <point x="274" y="310" type="line"/>
      <point x="274" y="335" type="line"/>
      <point x="224" y="335" type="line" smooth="yes"/>
      <point x="193" y="335"/>
      <point x="169" y="366"/>
      <point x="169" y="405" type="curve" smooth="yes"/>
      <point x="169" y="441"/>
      <point x="193" y="470"/>
      <point x="224" y="470" type="curve" smooth="yes"/>
      <point x="339" y="470" type="line"/>
    </contour>
    <contour>
      <point x="167" y="-54" type="move" name="nukta"/>
    </contour>
    <contour>
      <point x="389" y="0" type="move" name="bottom"/>
    </contour>
    <contour>
      <point x="389" y="500" type="move" name="top"/>
    </contour>
  </outline>
</glyph>
<glyph name="ca-deva" format="1">
  <advance width="548"/>
  <unicode hex="091A"/>
  <outline>
    <contour>
      <point x="-10" y="500" type="line"/>
      <point x="-10" y="470" type="line"/>
      <point x="378" y="470" type="line"/>
      <point x="378" y="220" type="line"/>
      <point x="365" y="148"/>
      <point x="313" y="95"/>
      <point x="253" y="95" type="curve" smooth="yes"/>
      <point x="209" y="95"/>
      <point x="173" y="144"/>
      <point x="173" y="205" type="curve" smooth="yes"/>
      <point x="173" y="285"/>
      <point x="247" y="350"/>
      <point x="338" y="350" type="curve"/>
      <point x="338" y="385" type="line"/>
      <point x="8" y="385" type="line"/>
      <point x="8" y="350" type="line"/>
      <point x="208" y="350" type="line"/>
      <point x="124" y="335"/>
      <point x="63" y="270"/>
      <point x="63" y="195" type="curve" smooth="yes"/>
      <point x="63" y="107"/>
      <point x="128" y="50"/>
      <point x="228" y="50" type="curve" smooth="yes"/>
      <point x="293" y="50"/>
      <point x="353" y="85"/>
      <point x="378" y="140" type="curve"/>
      <point x="378" y="0" type="line"/>
      <point x="478" y="0" type="line"/>
      <point x="478" y="470" type="line"/>
      <point x="558" y="470" type="line"/>
      <point x="558" y="500" type="line"/>
    </contour>
    <contour>
      <point x="173" y="-55" type="move" name="nukta"/>
    </contour>
    <contour>
      <point x="428" y="0" type="move" name="bottom"/>
    </contour>
    <contour>
      <point x="428" y="500" type="move" name="top"/>
    </contour>
  </outline>
</glyph>
<glyph name="ja-deva" format="1">
  <advance width="673"/>
  <unicode hex="091C"/>
  <outline>
    <contour>
      <point x="-10" y="500" type="line"/>
      <point x="-10" y="470" type="line"/>
      <point x="503" y="470" type="line"/>
      <point x="503" y="390" type="line"/>
      <point x="188" y="390" type="line"/>
      <point x="168" y="360" type="line"/>
      <point x="256" y="335"/>
      <point x="318" y="263"/>
      <point x="318" y="185" type="curve" smooth="yes"/>
      <point x="318" y="123"/>
      <point x="280" y="90"/>
      <point x="230" y="90" type="curve" smooth="yes"/>
      <point x="174" y="90"/>
      <point x="128" y="141"/>
      <point x="128" y="225" type="curve" smooth="yes"/>
      <point x="128" y="258"/>
      <point x="132" y="280"/>
      <point x="135" y="290" type="curve"/>
      <point x="67" y="290"/>
      <point x="18" y="252"/>
      <point x="18" y="190" type="curve" smooth="yes"/>
      <point x="18" y="104"/>
      <point x="108" y="50"/>
      <point x="223" y="50" type="curve" smooth="yes"/>
      <point x="336" y="50"/>
      <point x="428" y="115"/>
      <point x="428" y="215" type="curve" smooth="yes"/>
      <point x="428" y="258"/>
      <point x="397" y="318"/>
      <point x="318" y="350" type="curve"/>
      <point x="503" y="350" type="line"/>
      <point x="503" y="0" type="line"/>
      <point x="603" y="0" type="line"/>
      <point x="603" y="470" type="line"/>
      <point x="683" y="470" type="line"/>
      <point x="683" y="500" type="line"/>
    </contour>
    <contour>
      <point x="233" y="-55" type="move" name="nukta"/>
    </contour>
    <contour>
      <point x="553" y="0" type="move" name="bottom"/>
    </contour>
    <contour>
      <point x="553" y="500" type="move" name="top"/>
    </contour>
  </outline>
</glyph>
<glyph name="jha-deva" format="1">
  <advance width="693"/>
  <unicode hex="091D"/>
  <outline>
    <contour>
      <point x="459" y="500" type="line"/>
      <point x="459" y="470" type="line"/>
      <point x="531" y="470" type="line"/>
      <point x="531" y="0" type="line"/>
      <point x="631" y="0" type="line"/>
      <point x="631" y="470" type="line"/>
      <point x="703" y="470" type="line"/>
      <point x="703" y="500" type="line"/>
    </contour>
    <contour>
      <point x="441" y="330"/>
      <point x="183" y="295"/>
      <point x="183" y="376" type="curve" smooth="yes"/>
      <point x="183" y="389"/>
      <point x="201" y="401"/>
      <point x="223" y="401" type="curve" smooth="yes"/>
      <point x="255" y="401"/>
      <point x="286" y="386"/>
      <point x="307" y="362" type="curve"/>
      <point x="400" y="362" type="line"/>
      <point x="400" y="470" type="line"/>
      <point x="477" y="470" type="line"/>
      <point x="477" y="500" type="line"/>
      <point x="-9" y="500" type="line"/>
      <point x="-9" y="470" type="line"/>
      <point x="300" y="470" type="line"/>
      <point x="300" y="419" type="line"/>
      <point x="274" y="429"/>
      <point x="246" y="434"/>
      <point x="215" y="434" type="curve" smooth="yes"/>
      <point x="137" y="434"/>
      <point x="75" y="408"/>
      <point x="75" y="356" type="curve" smooth="yes"/>
      <point x="75" y="226"/>
      <point x="334" y="270"/>
      <point x="334" y="148" type="curve"/>
      <point x="334" y="92"/>
      <point x="273" y="62"/>
      <point x="213" y="62" type="curve" smooth="yes"/>
      <point x="154" y="62"/>
      <point x="96" y="92"/>
      <point x="96" y="151" type="curve" smooth="yes"/>
      <point x="96" y="167"/>
      <point x="105" y="180"/>
      <point x="116" y="180" type="curve" smooth="yes"/>
      <point x="137" y="180"/>
      <point x="158" y="160"/>
      <point x="221" y="41" type="curve" smooth="yes"/>
      <point x="251" y="-16"/>
      <point x="289" y="-52"/>
      <point x="343" y="-52" type="curve" smooth="yes"/>
      <point x="383" y="-52"/>
      <point x="417" y="-38"/>
      <point x="434" y="-14" type="curve"/>
      <point x="372" y="-14"/>
      <point x="344" y="3"/>
      <point x="318" y="52" type="curve" smooth="yes"/>
      <point x="250" y="180"/>
      <point x="191" y="215"/>
      <point x="116" y="215" type="curve" smooth="yes"/>
      <point x="61" y="215"/>
      <point x="17" y="184"/>
      <point x="17" y="146" type="curve" smooth="yes"/>
      <point x="17" y="78"/>
      <point x="100" y="27"/>
      <point x="206" y="27" type="curve" smooth="yes"/>
      <point x="320" y="27"/>
      <point x="441" y="70"/>
      <point x="441" y="168" type="curve"/>
    </contour>
    <contour>
      <point x="531" y="242"/>
      <point x="493" y="235"/>
      <point x="466" y="235" type="curve" smooth="yes"/>
      <point x="430" y="235"/>
      <point x="407" y="245"/>
      <point x="378" y="266" type="curve"/>
      <point x="363" y="223" type="line"/>
      <point x="393" y="205"/>
      <point x="420" y="195"/>
      <point x="466" y="195" type="curve" smooth="yes"/>
      <point x="499" y="195"/>
      <point x="536" y="203"/>
      <point x="551" y="210" type="curve"/>
      <point x="551" y="255" type="line"/>
    </contour>
    <contour>
      <point x="89" y="-64" type="move" name="nukta"/>
    </contour>
    <contour>
      <point x="581" y="0" type="move" name="bottom"/>
    </contour>
    <contour>
      <point x="581" y="500" type="move" name="top"/>
    </contour>
  </outline>
</glyph>
<glyph name="ttha-deva" format="1">
  <advance width="545"/>
  <unicode hex="0920"/>
  <outline>
    <contour>
      <point x="-10" y="500" type="line"/>
      <point x="-10" y="470" type="line"/>
      <point x="332" y="470" type="line"/>
      <point x="332" y="410" type="line"/>
      <point x="318" y="417"/>
      <point x="296" y="420"/>
      <point x="267" y="420" type="curve" smooth="yes"/>
      <point x="138" y="420"/>
      <point x="32" y="328"/>
      <point x="32" y="215" type="curve" smooth="yes"/>
      <point x="32" y="69"/>
      <point x="156" y="0"/>
      <point x="279" y="0" type="curve" smooth="yes"/>
      <point x="399" y="0"/>
      <point x="517" y="65"/>
      <point x="517" y="185" type="curve" smooth="yes"/>
      <point x="517" y="270"/>
      <point x="454" y="340"/>
      <point x="377" y="340" type="curve" smooth="yes"/>
      <point x="345" y="340"/>
      <point x="315" y="330"/>
      <point x="292" y="310" type="curve"/>
      <point x="359" y="298"/>
      <point x="407" y="245"/>
      <point x="407" y="185" type="curve" smooth="yes"/>
      <point x="407" y="92"/>
      <point x="349" y="35"/>
      <point x="277" y="35" type="curve" smooth="yes"/>
      <point x="202" y="35"/>
      <point x="142" y="115"/>
      <point x="142" y="215" type="curve" smooth="yes"/>
      <point x="142" y="306"/>
      <point x="202" y="380"/>
      <point x="277" y="380" type="curve" smooth="yes"/>
      <point x="308" y="380"/>
      <point x="334" y="369"/>
      <point x="342" y="350" type="curve"/>
      <point x="432" y="370" type="line"/>
      <point x="432" y="470" type="line"/>
      <point x="555" y="470" type="line"/>
      <point x="555" y="500" type="line"/>
    </contour>
    <contour>
      <point x="252" y="-100" type="move" name="nukta"/>
    </contour>
    <contour>
      <point x="382" y="0" type="move" name="bottom"/>
    </contour>
    <contour>
      <point x="382" y="500" type="move" name="top"/>
    </contour>
  </outline>
</glyph>
<glyph name="nna-deva" format="1">
  <advance width="652"/>
  <unicode hex="0923"/>
  <outline>
    <contour>
      <point x="-10" y="500" type="line"/>
      <point x="-10" y="470" type="line"/>
      <point x="112" y="470" type="line"/>
      <point x="61" y="419"/>
      <point x="32" y="351"/>
      <point x="32" y="280" type="curve" smooth="yes"/>
      <point x="32" y="187"/>
      <point x="121" y="110"/>
      <point x="232" y="110" type="curve" smooth="yes"/>
      <point x="345" y="110"/>
      <point x="437" y="187"/>
      <point x="437" y="280" type="curve" smooth="yes"/>
      <point x="437" y="333"/>
      <point x="406" y="401"/>
      <point x="347" y="470" type="curve"/>
      <point x="482" y="470" type="line"/>
      <point x="482" y="0" type="line"/>
      <point x="582" y="0" type="line"/>
      <point x="582" y="470" type="line"/>
      <point x="662" y="470" type="line"/>
      <point x="662" y="500" type="line"/>
    </contour>
    <contour>
      <point x="303" y="435"/>
      <point x="327" y="377"/>
      <point x="327" y="310" type="curve" smooth="yes"/>
      <point x="327" y="217"/>
      <point x="284" y="140"/>
      <point x="232" y="140" type="curve" smooth="yes"/>
      <point x="183" y="140"/>
      <point x="142" y="214"/>
      <point x="142" y="305" type="curve" smooth="yes"/>
      <point x="142" y="373"/>
      <point x="160" y="431"/>
      <point x="192" y="470" type="curve"/>
      <point x="262" y="470" type="line"/>
    </contour>
    <contour>
      <point x="232" y="-55" type="move" name="nukta"/>
    </contour>
    <contour>
      <point x="532" y="0" type="move" name="bottom"/>
    </contour>
    <contour>
      <point x="532" y="500" type="move" name="top"/>
    </contour>
  </outline>
</glyph>
<glyph name="da-deva" format="1">
  <advance width="486"/>
  <unicode hex="0926"/>
  <outline>
    <contour>
      <point x="-10" y="500" type="line"/>
      <point x="-10" y="470" type="line"/>
      <point x="311" y="470" type="line"/>
      <point x="311" y="390" type="line"/>
      <point x="291" y="398"/>
      <point x="268" y="402"/>
      <point x="243" y="402" type="curve" smooth="yes"/>
      <point x="147" y="402"/>
      <point x="31" y="342"/>
      <point x="31" y="220" type="curve" smooth="yes"/>
      <point x="31" y="105"/>
      <point x="110" y="30"/>
      <point x="231" y="30" type="curve" smooth="yes"/>
      <point x="256" y="30" type="line"/>
      <point x="271" y="-1"/>
      <point x="296" y="-35"/>
      <point x="331" y="-70" type="curve"/>
      <point x="416" y="-30" type="line"/>
      <point x="388" y="-7"/>
      <point x="366" y="18"/>
      <point x="351" y="45" type="curve"/>
      <point x="418" y="69"/>
      <point x="461" y="119"/>
      <point x="461" y="170" type="curve" smooth="yes"/>
      <point x="461" y="227"/>
      <point x="401" y="275"/>
      <point x="326" y="275" type="curve" smooth="yes"/>
      <point x="257" y="275"/>
      <point x="201" y="226"/>
      <point x="201" y="165" type="curve" smooth="yes"/>
      <point x="201" y="134"/>
      <point x="214" y="97"/>
      <point x="241" y="60" type="curve"/>
      <point x="186" y="60"/>
      <point x="141" y="132"/>
      <point x="141" y="220" type="curve" smooth="yes"/>
      <point x="141" y="300"/>
      <point x="192" y="365"/>
      <point x="256" y="365" type="curve" smooth="yes"/>
      <point x="283" y="365"/>
      <point x="305" y="358"/>
      <point x="321" y="345" type="curve"/>
      <point x="411" y="366" type="line"/>
      <point x="411" y="470" type="line"/>
      <point x="496" y="470" type="line"/>
      <point x="496" y="500" type="line"/>
    </contour>
    <contour>
      <point x="343" y="240"/>
      <point x="351" y="202"/>
      <point x="351" y="170" type="curve" smooth="yes"/>
      <point x="351" y="136"/>
      <point x="350" y="107"/>
      <point x="336" y="80" type="curve"/>
      <point x="319" y="109"/>
      <point x="311" y="142"/>
      <point x="311" y="180" type="curve" smooth="yes"/>
      <point x="311" y="201"/>
      <point x="314" y="240"/>
      <point x="326" y="240" type="curve" smooth="yes"/>
    </contour>
    <contour>
      <point x="112" y="-80" type="move" name="nukta"/>
    </contour>
    <contour>
      <point x="361" y="-56" type="move" name="bottom"/>
    </contour>
    <contour>
      <point x="361" y="500" type="move" name="top"/>
    </contour>
  </outline>
</glyph>
<glyph name="dha-deva" format="1">
  <advance width="541"/>
  <unicode hex="0927"/>
  <outline>
    <contour>
      <point x="101" y="530"/>
      <point x="36" y="485"/>
      <point x="36" y="430" type="curve" smooth="yes"/>
      <point x="36" y="354"/>
      <point x="113" y="307"/>
      <point x="181" y="300" type="curve"/>
      <point x="104" y="288"/>
      <point x="41" y="230"/>
      <point x="41" y="170" type="curve" smooth="yes"/>
      <point x="41" y="87"/>
      <point x="115" y="40"/>
      <point x="206" y="40" type="curve" smooth="yes"/>
      <point x="267" y="40"/>
      <point x="332" y="66"/>
      <point x="371" y="110" type="curve"/>
      <point x="371" y="0" type="line"/>
      <point x="471" y="0" type="line"/>
      <point x="471" y="470" type="line"/>
      <point x="551" y="470" type="line"/>
      <point x="551" y="500" type="line"/>
      <point x="341" y="500" type="line"/>
      <point x="341" y="470" type="line"/>
      <point x="371" y="470" type="line"/>
      <point x="371" y="160" type="line"/>
      <point x="344" y="117"/>
      <point x="290" y="90"/>
      <point x="241" y="90" type="curve" smooth="yes"/>
      <point x="186" y="90"/>
      <point x="151" y="125"/>
      <point x="151" y="180" type="curve" smooth="yes"/>
      <point x="151" y="232"/>
      <point x="211" y="287"/>
      <point x="286" y="287" type="curve"/>
      <point x="286" y="317" type="line"/>
      <point x="205" y="317"/>
      <point x="157" y="345"/>
      <point x="142" y="385" type="curve"/>
      <point x="161" y="374"/>
      <point x="179" y="370"/>
      <point x="209" y="370" type="curve" smooth="yes"/>
      <point x="273" y="370"/>
      <point x="316" y="409"/>
      <point x="316" y="448" type="curve" smooth="yes"/>
      <point x="316" y="488"/>
      <point x="271" y="530"/>
      <point x="181" y="530" type="curve" smooth="yes"/>
    </contour>
    <contour>
      <point x="200" y="502"/>
      <point x="216" y="479"/>
      <point x="216" y="450" type="curve" smooth="yes"/>
      <point x="216" y="421"/>
      <point x="199" y="398"/>
      <point x="176" y="398" type="curve"/>
      <point x="157" y="398"/>
      <point x="141" y="421"/>
      <point x="141" y="450" type="curve" smooth="yes"/>
      <point x="141" y="479"/>
      <point x="158" y="502"/>
      <point x="181" y="502" type="curve"/>
    </contour>
    <contour>
      <point x="151" y="-55" type="move" name="nukta"/>
    </contour>
    <contour>
      <point x="421" y="0" type="move" name="bottom"/>
    </contour>
    <contour>
      <point x="421" y="500" type="move" name="top"/>
    </contour>
  </outline>
</glyph>
<glyph name="na-deva" format="1">
  <advance width="567"/>
  <unicode hex="0928"/>
  <outline>
    <contour>
      <point x="-10" y="500" type="line"/>
      <point x="-10" y="470" type="line"/>
      <point x="397" y="470" type="line"/>
      <point x="397" y="360" type="line"/>
      <point x="362" y="380"/>
      <point x="324" y="390"/>
      <point x="282" y="390" type="curve" smooth="yes"/>
      <point x="121" y="390"/>
      <point x="27" y="296"/>
      <point x="27" y="180" type="curve" smooth="yes"/>
      <point x="27" y="103"/>
      <point x="101" y="40"/>
      <point x="192" y="40" type="curve" smooth="yes"/>
      <point x="285" y="40"/>
      <point x="362" y="112"/>
      <point x="362" y="200" type="curve" smooth="yes"/>
      <point x="362" y="261"/>
      <point x="311" y="310"/>
      <point x="247" y="310" type="curve" smooth="yes"/>
      <point x="217" y="310"/>
      <point x="192" y="296"/>
      <point x="177" y="270" type="curve"/>
      <point x="221" y="261"/>
      <point x="252" y="220"/>
      <point x="252" y="170" type="curve" smooth="yes"/>
      <point x="252" y="115"/>
      <point x="225" y="70"/>
      <point x="192" y="70" type="curve" smooth="yes"/>
      <point x="161" y="70"/>
      <point x="137" y="119"/>
      <point x="137" y="180" type="curve" smooth="yes"/>
      <point x="137" y="273"/>
      <point x="202" y="350"/>
      <point x="282" y="350" type="curve" smooth="yes"/>
      <point x="333" y="350"/>
      <point x="374" y="340"/>
      <point x="397" y="320" type="curve"/>
      <point x="397" y="0" type="line"/>
      <point x="497" y="0" type="line"/>
      <point x="497" y="470" type="line"/>
      <point x="577" y="470" type="line"/>
      <point x="577" y="500" type="line"/>
    </contour>
    <contour>
      <point x="192" y="-55" type="move" name="nukta"/>
    </contour>
    <contour>
      <point x="447" y="0" type="move" name="bottom"/>
    </contour>
    <contour>
      <point x="447" y="500" type="move" name="top"/>
    </contour>
  </outline>
</glyph>
<glyph name="la-deva" format="1">
  <advance width="633"/>
  <unicode hex="0932"/>
  <outline>
    <contour>
      <point x="-10" y="500" type="line"/>
      <point x="-10" y="470" type="line"/>
      <point x="463" y="470" type="line"/>
      <point x="463" y="395" type="line"/>
      <point x="420" y="387"/>
      <point x="382" y="365"/>
      <point x="353" y="330" type="curve"/>
      <point x="325" y="379"/>
      <point x="267" y="410"/>
      <point x="203" y="410" type="curve" smooth="yes"/>
      <point x="110" y="410"/>
      <point x="33" y="321"/>
      <point x="33" y="210" type="curve" smooth="yes"/>
      <point x="33" y="109"/>
      <point x="115" y="20"/>
      <point x="228" y="0" type="curve"/>
      <point x="293" y="40" type="line"/>
      <point x="206" y="55"/>
      <point x="143" y="143"/>
      <point x="143" y="250" type="curve" smooth="yes"/>
      <point x="143" y="300"/>
      <point x="159" y="370"/>
      <point x="193" y="370" type="curve" smooth="yes"/>
      <point x="235" y="370"/>
      <point x="262" y="273"/>
      <point x="268" y="200" type="curve"/>
      <point x="353" y="200" type="line"/>
      <point x="353" y="276"/>
      <point x="399" y="339"/>
      <point x="463" y="350" type="curve"/>
      <point x="463" y="0" type="line"/>
      <point x="563" y="0" type="line"/>
      <point x="563" y="470" type="line"/>
      <point x="643" y="470" type="line"/>
      <point x="643" y="500" type="line"/>
    </contour>
    <contour>
      <point x="90" y="-80" type="move" name="nukta"/>
    </contour>
    <contour>
      <point x="513" y="0" type="move" name="bottom"/>
    </contour>
    <contour>
      <point x="513" y="500" type="move" name="top"/>
    </contour>
  </outline>
</glyph>
<glyph name="va-deva" format="1">
  <advance width="531"/>
  <unicode hex="0935"/>
  <outline>
    <contour>
      <point x="-10" y="500" type="line"/>
      <point x="-10" y="470" type="line"/>
      <point x="361" y="470" type="line"/>
      <point x="361" y="225" type="line"/>
      <point x="341" y="152"/>
      <point x="289" y="100"/>
      <point x="236" y="100" type="curve" smooth="yes"/>
      <point x="184" y="100"/>
      <point x="141" y="167"/>
      <point x="141" y="250" type="curve" smooth="yes"/>
      <point x="141" y="322"/>
      <point x="175" y="380"/>
      <point x="216" y="380" type="curve" smooth="yes"/>
      <point x="239" y="380"/>
      <point x="262" y="342"/>
      <point x="271" y="290" type="curve"/>
      <point x="356" y="330" type="line"/>
      <point x="334" y="385"/>
      <point x="283" y="420"/>
      <point x="226" y="420" type="curve" smooth="yes"/>
      <point x="118" y="420"/>
      <point x="31" y="333"/>
      <point x="31" y="225" type="curve" smooth="yes"/>
      <point x="31" y="120"/>
      <point x="101" y="50"/>
      <point x="206" y="50" type="curve" smooth="yes"/>
      <point x="275" y="50"/>
      <point x="336" y="85"/>
      <point x="361" y="140" type="curve"/>
      <point x="361" y="0" type="line"/>
      <point x="461" y="0" type="line"/>
      <point x="461" y="470" type="line"/>
      <point x="541" y="470" type="line"/>
      <point x="541" y="500" type="line"/>
    </contour>
    <contour>
      <point x="87" y="-55" type="move" name="nukta"/>
    </contour>
    <contour>
      <point x="411" y="0" type="move" name="bottom"/>
    </contour>
    <contour>
      <point x="411" y="500" type="move" name="top"/>
    </contour>
  </outline>
</glyph>
<glyph name="ssa-deva" format="1">
  <advance width="523"/>
  <unicode hex="0937"/>
  <outline>
    <contour>
      <point x="132" y="423" type="line"/>
      <point x="332" y="183" type="line"/>
      <point x="363" y="213" type="line"/>
      <point x="153" y="465" type="line"/>
    </contour>
    <component base="pa-deva"/>
    <contour>
      <point x="153" y="-55" type="move" name="nukta"/>
    </contour>
    <contour>
      <point x="403" y="0" type="move" name="bottom"/>
    </contour>
    <contour>
      <point x="403" y="500" type="move" name="top"/>
    </contour>
  </outline>
</glyph>
<glyph name="sa-deva" format="1">
  <advance width="608"/>
  <unicode hex="0938"/>
  <outline>
    <contour>
      <point x="434" y="307"/>
      <point x="412" y="300"/>
      <point x="385" y="300" type="curve" smooth="yes"/>
      <point x="367" y="300"/>
      <point x="349" y="304"/>
      <point x="332" y="313" type="curve"/>
      <point x="309" y="274" type="line"/>
      <point x="331" y="265"/>
      <point x="356" y="260"/>
      <point x="385" y="260" type="curve" smooth="yes"/>
      <point x="418" y="260"/>
      <point x="438" y="268"/>
      <point x="450" y="275" type="curve"/>
      <point x="450" y="320" type="line"/>
    </contour>
    <contour>
      <point x="358" y="500" type="line"/>
      <point x="358" y="470" type="line"/>
      <point x="438" y="470" type="line"/>
      <point x="438" y="0" type="line"/>
      <point x="538" y="0" type="line"/>
      <point x="538" y="470" type="line"/>
      <point x="618" y="470" type="line"/>
      <point x="618" y="500" type="line"/>
    </contour>
    <contour>
      <point x="-10" y="500" type="line"/>
      <point x="-10" y="470" type="line"/>
      <point x="166" y="470" type="line"/>
      <point x="205" y="442"/>
      <point x="230" y="395"/>
      <point x="230" y="335" type="curve" smooth="yes"/>
      <point x="230" y="278"/>
      <point x="195" y="252"/>
      <point x="157" y="252" type="curve" smooth="yes"/>
      <point x="115" y="252"/>
      <point x="112" y="280"/>
      <point x="71" y="280" type="curve" smooth="yes"/>
      <point x="40" y="280"/>
      <point x="13" y="265"/>
      <point x="-5" y="240" type="curve"/>
      <point x="79" y="227"/>
      <point x="132" y="-8"/>
      <point x="242" y="-8" type="curve" smooth="yes"/>
      <point x="275" y="-8"/>
      <point x="310" y="5"/>
      <point x="330" y="44" type="curve"/>
      <point x="292" y="44"/>
      <point x="273" y="51"/>
      <point x="247" y="90" type="curve" smooth="yes"/>
      <point x="159" y="222" type="line"/>
      <point x="175" y="217"/>
      <point x="189" y="215"/>
      <point x="202" y="215" type="curve" smooth="yes"/>
      <point x="291" y="215"/>
      <point x="334" y="274"/>
      <point x="334" y="336" type="curve" smooth="yes"/>
      <point x="334" y="389"/>
      <point x="307" y="441"/>
      <point x="261" y="470" type="curve"/>
      <point x="365" y="470" type="line"/>
      <point x="365" y="500" type="line"/>
    </contour>
    <contour>
      <point x="66" y="0" type="move" name="nukta"/>
    </contour>
    <contour>
      <point x="488" y="0" type="move" name="bottom"/>
    </contour>
    <contour>
      <point x="488" y="500" type="move" name="top"/>
    </contour>
  </outline>
</glyph>
<glyph name="ha-deva" format="1">
  <advance width="489"/>
  <unicode hex="0939"/>
  <outline>
    <contour>
      <point x="-10" y="500" type="line"/>
      <point x="-10" y="470" type="line"/>
      <point x="315" y="470" type="line"/>
      <point x="315" y="419" type="line"/>
      <point x="296" y="422"/>
      <point x="278" y="424"/>
      <point x="260" y="424" type="curve" smooth="yes"/>
      <point x="107" y="424"/>
      <point x="55" y="381"/>
      <point x="55" y="330" type="curve" smooth="yes"/>
      <point x="55" y="294"/>
      <point x="85" y="273"/>
      <point x="130" y="258" type="curve"/>
      <point x="71" y="224"/>
      <point x="35" y="169"/>
      <point x="35" y="115" type="curve" smooth="yes"/>
      <point x="35" y="24"/>
      <point x="129" y="-50"/>
      <point x="245" y="-50" type="curve" smooth="yes"/>
      <point x="405" y="-50" type="line"/>
      <point x="435" y="-20" type="line"/>
      <point x="310" y="-20" type="line" smooth="yes"/>
      <point x="219" y="-20"/>
      <point x="145" y="50"/>
      <point x="145" y="135" type="curve" smooth="yes"/>
      <point x="145" y="210"/>
      <point x="196" y="267"/>
      <point x="260" y="267" type="curve" smooth="yes"/>
      <point x="313" y="267"/>
      <point x="355" y="223"/>
      <point x="355" y="170" type="curve" smooth="yes"/>
      <point x="355" y="134"/>
      <point x="333" y="102"/>
      <point x="300" y="90" type="curve"/>
      <point x="311" y="77"/>
      <point x="332" y="70"/>
      <point x="360" y="70" type="curve" smooth="yes"/>
      <point x="417" y="70"/>
      <point x="465" y="115"/>
      <point x="465" y="170" type="curve" smooth="yes"/>
      <point x="465" y="242"/>
      <point x="386" y="300"/>
      <point x="290" y="300" type="curve" smooth="yes"/>
      <point x="251" y="300"/>
      <point x="217" y="295"/>
      <point x="190" y="285" type="curve"/>
      <point x="174" y="294"/>
      <point x="165" y="311"/>
      <point x="165" y="330" type="curve" smooth="yes"/>
      <point x="165" y="365"/>
      <point x="208" y="393"/>
      <point x="260" y="393" type="curve" smooth="yes"/>
      <point x="291" y="393"/>
      <point x="314" y="383"/>
      <point x="325" y="374" type="curve"/>
      <point x="415" y="400" type="line"/>
      <point x="415" y="470" type="line"/>
      <point x="499" y="470" type="line"/>
      <point x="499" y="500" type="line"/>
    </contour>
    <contour>
      <point x="91" y="-100" type="move" name="nukta"/>
    </contour>
    <contour>
      <point x="365" y="-50" type="move" name="bottom"/>
    </contour>
    <contour>
      <point x="365" y="500" type="move" name="top"/>
    </contour>
  </outline>
</glyph>
<glyph name="uni093A" format="1">
  <advance width="0"/>
  <unicode hex="093A"/>
  <outline>
    <contour>
      <point x="-170" y="620" type="line"/>
      <point x="-170" y="500" type="line"/>
      <point x="-70" y="500" type="line"/>
      <point x="-70" y="620" type="line"/>
    </contour>
    <contour>
      <point x="-120" y="500" type="move" name="_top"/>
    </contour>
  </outline>
</glyph>
<glyph name="nukta-deva" format="1">
  <advance width="0"/>
  <unicode hex="093C"/>
  <outline>
    <contour>
      <point x="-150" y="55"/>
      <point x="-175" y="30"/>
      <point x="-175" y="0" type="curve" smooth="yes"/>
      <point x="-175" y="-30"/>
      <point x="-150" y="-55"/>
      <point x="-120" y="-55" type="curve" smooth="yes"/>
      <point x="-90" y="-55"/>
      <point x="-65" y="-30"/>
      <point x="-65" y="0" type="curve" smooth="yes"/>
      <point x="-65" y="30"/>
      <point x="-90" y="55"/>
      <point x="-120" y="55" type="curve" smooth="yes"/>
    </contour>
    <contour>
      <point x="-120" y="0" type="move" name="_nukta"/>
    </contour>
  </outline>
</glyph>
<glyph name="uuMatra-deva" format="1">
  <advance width="0"/>
  <unicode hex="0942"/>
  <outline>
    <contour>
      <point x="-212" y="-50"/>
      <point x="-271" y="-103"/>
      <point x="-271" y="-168" type="curve" smooth="yes"/>
      <point x="-271" y="-229"/>
      <point x="-219" y="-277"/>
      <point x="-152" y="-277" type="curve" smooth="yes"/>
      <point x="-99" y="-277"/>
      <point x="-57" y="-240"/>
      <point x="-48" y="-190" type="curve"/>
      <point x="-79" y="-178" type="line"/>
      <point x="-83" y="-205"/>
      <point x="-109" y="-227"/>
      <point x="-139" y="-227" type="curve" smooth="yes"/>
      <point x="-182" y="-227"/>
      <point x="-201" y="-196"/>
      <point x="-201" y="-159" type="curve" smooth="yes"/>
      <point x="-201" y="-118"/>
      <point x="-172" y="-81"/>
      <point x="-123" y="-81" type="curve" smooth="yes"/>
      <point x="-52" y="-81"/>
      <point x="19" y="-159"/>
      <point x="62" y="-282" type="curve"/>
      <point x="145" y="-255" type="line"/>
      <point x="78" y="-128"/>
      <point x="-22" y="-50"/>
      <point x="-123" y="-50" type="curve" smooth="yes"/>
    </contour>
    <contour>
      <point x="-120" y="0" type="move" name="_bottom"/>
    </contour>
  </outline>
</glyph>
<glyph name="rVocalicMatra-deva" format="1">
  <advance width="0"/>
  <unicode hex="0943"/>
  <outline>
    <contour>
      <point x="-130" y="0" type="line" smooth="yes"/>
      <point x="-230" y="0"/>
      <point x="-300" y="-58"/>
      <point x="-300" y="-130" type="curve" smooth="yes"/>
      <point x="-300" y="-197"/>
      <point x="-218" y="-250"/>
      <point x="-115" y="-250" type="curve" smooth="yes"/>
      <point x="-50" y="-250"/>
      <point x="3" y="-232"/>
      <point x="30" y="-200" type="curve"/>
      <point x="-20" y="-160" type="line"/>
      <point x="-42" y="-188"/>
      <point x="-75" y="-205"/>
      <point x="-113" y="-205" type="curve" smooth="yes"/>
      <point x="-162" y="-205"/>
      <point x="-200" y="-167"/>
      <point x="-200" y="-120" type="curve" smooth="yes"/>
      <point x="-200" y="-71"/>
      <point x="-157" y="-30"/>
      <point x="-105" y="-30" type="curve" smooth="yes"/>
      <point x="-55" y="-30" type="line"/>
      <point x="-55" y="0" type="line"/>
    </contour>
    <contour>
      <point x="-120" y="0" type="move" name="_bottom"/>
    </contour>
  </outline>
</glyph>
<glyph name="halant-deva" format="1">
  <advance width="0"/>
  <unicode hex="094D"/>
  <outline>
    <contour>
      <point x="-231" y="-90" type="line"/>
      <point x="-206" y="-125" type="line"/>
      <point x="-134" y="-84" type="line"/>
      <point x="21" y="-235" type="line"/>
      <point x="65" y="-205" type="line"/>
      <point x="-120" y="-25" type="line"/>
    </contour>
    <contour>
      <point x="-120" y="0" type="move" name="_bottom"/>
    </contour>
  </outline>
</glyph>
<glyph name="om-deva" format="1">
  <advance width="893"/>
  <unicode hex="0950"/>
  <outline>
    <contour>
      <point x="402" y="220" type="line"/>
      <point x="568" y="220"/>
      <point x="582" y="410"/>
      <point x="660" y="410" type="curve" smooth="yes"/>
      <point x="706" y="410"/>
      <point x="750" y="347"/>
      <point x="750" y="262" type="curve" smooth="yes"/>
      <point x="750" y="160"/>
      <point x="717" y="85"/>
      <point x="666" y="85" type="curve" smooth="yes"/>
      <point x="602" y="85"/>
      <point x="586" y="206"/>
      <point x="600" y="275" type="curve"/>
      <point x="490" y="210" type="line"/>
      <point x="490" y="122"/>
      <point x="567" y="50"/>
      <point x="659" y="50" type="curve" smooth="yes"/>
      <point x="776" y="50"/>
      <point x="860" y="141"/>
      <point x="860" y="262" type="curve" smooth="yes"/>
      <point x="860" y="370"/>
      <point x="784" y="450"/>
      <point x="668" y="450" type="curve" smooth="yes"/>
      <point x="472" y="450"/>
      <point x="481" y="207"/>
      <point x="367" y="263" type="curve"/>
    </contour>
    <contour>
      <point x="119" y="510"/>
      <point x="39" y="462"/>
      <point x="39" y="405" type="curve" smooth="yes"/>
      <point x="39" y="377"/>
      <point x="63" y="355"/>
      <point x="94" y="355" type="curve" smooth="yes"/>
      <point x="115" y="355"/>
      <point x="141" y="365"/>
      <point x="169" y="385" type="curve"/>
      <point x="156" y="396"/>
      <point x="149" y="408"/>
      <point x="149" y="420" type="curve" smooth="yes"/>
      <point x="149" y="453"/>
      <point x="178" y="480"/>
      <point x="214" y="480" type="curve" smooth="yes"/>
      <point x="255" y="480"/>
      <point x="289" y="449"/>
      <point x="289" y="410" type="curve" smooth="yes"/>
      <point x="289" y="342"/>
      <point x="253" y="305"/>
      <point x="154" y="305" type="curve"/>
      <point x="119" y="253" type="line"/>
      <point x="137" y="260"/>
      <point x="159" y="263"/>
      <point x="184" y="263" type="curve" smooth="yes"/>
      <point x="261" y="263"/>
      <point x="324" y="209"/>
      <point x="324" y="140" type="curve" smooth="yes"/>
      <point x="324" y="76"/>
      <point x="279" y="25"/>
      <point x="224" y="25" type="curve" smooth="yes"/>
      <point x="177" y="25"/>
      <point x="139" y="73"/>
      <point x="139" y="130" type="curve" smooth="yes"/>
      <point x="139" y="146"/>
      <point x="141" y="165"/>
      <point x="144" y="180" type="curve"/>
      <point x="80" y="180"/>
      <point x="29" y="149"/>
      <point x="29" y="110" type="curve" smooth="yes"/>
      <point x="29" y="43"/>
      <point x="116" y="-10"/>
      <point x="224" y="-10" type="curve" smooth="yes"/>
      <point x="340" y="-10"/>
      <point x="434" y="57"/>
      <point x="434" y="140" type="curve" smooth="yes"/>
      <point x="434" y="210"/>
      <point x="395" y="280"/>
      <point x="274" y="294" type="curve"/>
      <point x="357" y="316"/>
      <point x="399" y="363"/>
      <point x="399" y="410" type="curve" smooth="yes"/>
      <point x="399" y="465"/>
      <point x="329" y="510"/>
      <point x="219" y="510" type="curve" smooth="yes"/>
    </contour>
    <component base="candraBindu-deva" xOffset="652" yOffset="-59"/>
  </outline>
</glyph>
<glyph name="udatta-deva" format="1">
  <advance width="0"/>
  <unicode hex="0951"/>
  <outline>
    <contour>
      <point x="-155" y="820" type="line"/>
      <point x="-155" y="590" type="line" smooth="yes"/>
      <point x="-85" y="590" type="line"/>
      <point x="-85" y="820" type="line"/>
    </contour>
    <contour>
      <point x="-120" y="650" type="move" name="_top"/>
    </contour>
  </outline>
</glyph>
<glyph name="grave-deva" format="1">
  <advance width="0"/>
  <unicode hex="0953"/>
  <outline>
    <contour>
      <point x="-192" y="713" type="line"/>
      <point x="-77" y="502" type="line"/>
      <point x="-48" y="502" type="line"/>
      <point x="-95" y="713" type="line"/>
    </contour>
  </outline>
</glyph>
<glyph name="acute-deva" format="1">
  <advance width="0"/>
  <unicode hex="0954"/>
  <outline>
    <contour>
      <point x="-145" y="713" type="line"/>
      <point x="-192" y="502" type="line"/>
      <point x="-163" y="502" type="line"/>
      <point x="-48" y="713" type="line"/>
    </contour>
  </outline>
</glyph>
<glyph name="khha-deva" format="1">
  <advance width="907"/>
  <unicode hex="0959"/>
  <outline>
    <component base="nukta-deva" xOffset="236" yOffset="-55"/>
    <component base="kha-deva"/>
    <contour>
      <point x="787" y="500" type="move" name="top"/>
    </contour>
    <contour>
      <point x="787" y="0" type="move" name="bottom"/>
    </contour>
  </outline>
</glyph>
<glyph name="rha-deva" format="1">
  <advance width="540"/>
  <unicode hex="095D"/>
  <outline>
    <component base="ddha-deva"/>
    <component base="nukta-deva" xOffset="397" yOffset="-100"/>
    <contour>
      <point x="277" y="-100" type="move" name="nukta"/>
    </contour>
    <contour>
      <point x="377" y="0" type="move" name="bottom"/>
    </contour>
    <contour>
      <point x="377" y="500" type="move" name="top"/>
    </contour>
  </outline>
</glyph>
<glyph name="yya-deva" format="1">
  <advance width="524"/>
  <unicode hex="095F"/>
  <outline>
    <component base="nukta-deva" xOffset="234" yOffset="-55"/>
    <component base="ya-deva"/>
    <contour>
      <point x="404" y="500" type="move" name="top"/>
    </contour>
    <contour>
      <point x="404" y="0" type="move" name="bottom"/>
    </contour>
  </outline>
</glyph>
<glyph name="rrVocalic-deva" format="1">
  <advance width="768"/>
  <unicode hex="0960"/>
  <outline>
    <contour>
      <point x="-10" y="500" type="line"/>
      <point x="-10" y="470" type="line"/>
      <point x="348" y="470" type="line"/>
      <point x="348" y="215" type="line"/>
      <point x="263" y="170" type="line"/>
      <point x="304" y="205"/>
      <point x="328" y="245"/>
      <point x="328" y="280" type="curve" smooth="yes"/>
      <point x="328" y="352"/>
      <point x="263" y="410"/>
      <point x="183" y="410" type="curve" smooth="yes"/>
      <point x="111" y="410"/>
      <point x="49" y="377"/>
      <point x="18" y="325" type="curve"/>
      <point x="33" y="285" type="line"/>
      <point x="60" y="332"/>
      <point x="99" y="360"/>
      <point x="138" y="360" type="curve" smooth="yes"/>
      <point x="182" y="360"/>
      <point x="218" y="311"/>
      <point x="218" y="250" type="curve" smooth="yes"/>
      <point x="218" y="191"/>
      <point x="145" y="113"/>
      <point x="28" y="45" type="curve"/>
      <point x="48" y="10" type="line"/>
      <point x="348" y="170" type="line"/>
      <point x="348" y="0" type="line"/>
      <point x="448" y="0" type="line"/>
      <point x="448" y="240" type="line"/>
      <point x="538" y="290" type="line"/>
      <point x="573" y="235" type="line"/>
      <point x="532" y="207"/>
      <point x="508" y="165"/>
      <point x="508" y="125" type="curve" smooth="yes"/>
      <point x="508" y="64"/>
      <point x="561" y="15"/>
      <point x="628" y="15" type="curve" smooth="yes"/>
      <point x="672" y="15"/>
      <point x="716" y="36"/>
      <point x="748" y="75" type="curve"/>
      <point x="723" y="115" type="line"/>
      <point x="707" y="87"/>
      <point x="680" y="70"/>
      <point x="653" y="70" type="curve" smooth="yes"/>
      <point x="617" y="70"/>
      <point x="588" y="106"/>
      <point x="588" y="150" type="curve" smooth="yes"/>
      <point x="588" y="195"/>
      <point x="615" y="235"/>
      <point x="658" y="250" type="curve"/>
      <point x="618" y="320" type="line"/>
      <point x="629" y="329"/>
      <point x="638" y="338"/>
      <point x="644" y="346" type="curve" smooth="yes"/>
      <point x="650" y="354"/>
      <point x="653" y="360"/>
      <point x="653" y="365" type="curve" smooth="yes"/>
      <point x="653" y="390"/>
      <point x="622" y="410"/>
      <point x="583" y="410" type="curve" smooth="yes"/>
      <point x="536" y="410"/>
      <point x="498" y="388"/>
      <point x="498" y="360" type="curve" smooth="yes"/>
      <point x="498" y="357"/>
      <point x="500" y="353"/>
      <point x="505" y="346" type="curve"/>
      <point x="510" y="338"/>
      <point x="515" y="331"/>
      <point x="518" y="325" type="curve"/>
      <point x="448" y="290" type="line"/>
      <point x="448" y="470" type="line"/>
      <point x="768" y="470" type="line"/>
      <point x="768" y="500" type="line"/>
    </contour>
    <contour>
      <point x="398" y="500" type="move" name="top"/>
    </contour>
    <contour>
      <point x="398" y="0" type="move" name="bottom"/>
    </contour>
  </outline>
</glyph>
<glyph name="llVocalic-deva" format="1">
  <advance width="637"/>
  <unicode hex="0961"/>
  <outline>
    <contour>
      <point x="603" y="295"/>
      <point x="569" y="360"/>
      <point x="513" y="390" type="curve"/>
      <point x="513" y="470" type="line"/>
      <point x="647" y="470" type="line"/>
      <point x="647" y="500" type="line"/>
      <point x="-10" y="500" type="line"/>
      <point x="-10" y="470" type="line"/>
      <point x="413" y="470" type="line"/>
      <point x="413" y="400" type="line"/>
      <point x="376" y="393"/>
      <point x="343" y="370"/>
      <point x="323" y="335" type="curve"/>
      <point x="300" y="375"/>
      <point x="259" y="400"/>
      <point x="218" y="400" type="curve" smooth="yes"/>
      <point x="115" y="400"/>
      <point x="33" y="311"/>
      <point x="33" y="200" type="curve" smooth="yes"/>
      <point x="33" y="89"/>
      <point x="118" y="0"/>
      <point x="223" y="0" type="curve"/>
      <point x="268" y="50" type="line"/>
      <point x="199" y="50"/>
      <point x="143" y="135"/>
      <point x="143" y="240" type="curve" smooth="yes"/>
      <point x="143" y="289"/>
      <point x="157" y="360"/>
      <point x="188" y="360" type="curve" smooth="yes"/>
      <point x="237" y="360"/>
      <point x="281" y="297"/>
      <point x="281" y="220" type="curve"/>
      <point x="351" y="220" type="line"/>
      <point x="351" y="297"/>
      <point x="387" y="360"/>
      <point x="428" y="360" type="curve" smooth="yes"/>
      <point x="471" y="360"/>
      <point x="493" y="276"/>
      <point x="493" y="210" type="curve"/>
      <point x="493" y="106"/>
      <point x="328" y="104"/>
      <point x="328" y="50" type="curve" smooth="yes"/>
      <point x="328" y="28"/>
      <point x="348" y="-2"/>
      <point x="417" y="-2" type="curve"/>
      <point x="417" y="-7" type="line"/>
      <point x="364" y="-20"/>
      <point x="328" y="-47"/>
      <point x="328" y="-80" type="curve" smooth="yes"/>
      <point x="328" y="-130"/>
      <point x="412" y="-155"/>
      <point x="468" y="-155" type="curve" smooth="yes"/>
      <point x="580" y="-155"/>
      <point x="636" y="-128"/>
      <point x="678" y="-85" type="curve"/>
      <point x="603" y="-50" type="line"/>
      <point x="579" y="-87"/>
      <point x="544" y="-110"/>
      <point x="488" y="-110" type="curve" smooth="yes"/>
      <point x="456" y="-110"/>
      <point x="433" y="-91"/>
      <point x="433" y="-70" type="curve" smooth="yes"/>
      <point x="433" y="-42"/>
      <point x="502" y="-19"/>
      <point x="553" y="-10" type="curve"/>
      <point x="533" y="20" type="line"/>
      <point x="460" y="20"/>
      <point x="433" y="29"/>
      <point x="433" y="50" type="curve" smooth="yes"/>
      <point x="433" y="86"/>
      <point x="603" y="95"/>
      <point x="603" y="220" type="curve"/>
    </contour>
    <contour>
      <point x="463" y="500" type="move" name="top"/>
    </contour>
    <contour>
      <point x="351" y="0" type="move" name="bottom"/>
    </contour>
  </outline>
</glyph>
<glyph name="one-deva" format="1">
  <advance width="549"/>
  <unicode hex="0967"/>
  <outline>
    <contour>
      <point x="427" y="469"/>
      <point x="354" y="499"/>
      <point x="280" y="499" type="curve" smooth="yes"/>
      <point x="204" y="499"/>
      <point x="127" y="468"/>
      <point x="127" y="404" type="curve" smooth="yes"/>
      <point x="127" y="340"/>
      <point x="195" y="307"/>
      <point x="259" y="307" type="curve"/>
      <point x="181" y="257" type="line" smooth="yes"/>
      <point x="157" y="242"/>
      <point x="146" y="222"/>
      <point x="146" y="202" type="curve" smooth="yes"/>
      <point x="146" y="184"/>
      <point x="155" y="166"/>
      <point x="174" y="153" type="curve" smooth="yes"/>
      <point x="280" y="77" type="line" smooth="yes"/>
      <point x="312" y="54"/>
      <point x="330" y="39"/>
      <point x="330" y="24" type="curve" smooth="yes"/>
      <point x="330" y="16"/>
      <point x="326" y="9"/>
      <point x="317" y="0" type="curve"/>
      <point x="407" y="0" type="line" smooth="yes"/>
      <point x="417" y="12"/>
      <point x="421" y="24"/>
      <point x="421" y="35" type="curve" smooth="yes"/>
      <point x="421" y="62"/>
      <point x="396" y="85"/>
      <point x="374" y="101" type="curve" smooth="yes"/>
      <point x="272" y="174" type="line" smooth="yes"/>
      <point x="253" y="188"/>
      <point x="244" y="200"/>
      <point x="244" y="212" type="curve" smooth="yes"/>
      <point x="244" y="226"/>
      <point x="256" y="238"/>
      <point x="276" y="251" type="curve" smooth="yes"/>
      <point x="343" y="294" type="line"/>
      <point x="384" y="321"/>
      <point x="427" y="358"/>
      <point x="427" y="410" type="curve" smooth="yes"/>
    </contour>
    <contour>
      <point x="303" y="460"/>
      <point x="327" y="433"/>
      <point x="327" y="400" type="curve" smooth="yes"/>
      <point x="327" y="377"/>
      <point x="312" y="351"/>
      <point x="287" y="330" type="curve"/>
      <point x="251" y="343"/>
      <point x="227" y="375"/>
      <point x="227" y="410" type="curve" smooth="yes"/>
      <point x="227" y="438"/>
      <point x="247" y="460"/>
      <point x="272" y="460" type="curve" smooth="yes"/>
    </contour>
  </outline>
</glyph>
<glyph name="three-deva" format="1">
  <advance width="550"/>
  <unicode hex="0969"/>
  <outline>
    <contour>
      <point x="169" y="510"/>
      <point x="89" y="462"/>
      <point x="89" y="405" type="curve" smooth="yes"/>
      <point x="89" y="377"/>
      <point x="113" y="355"/>
      <point x="144" y="355" type="curve" smooth="yes"/>
      <point x="165" y="355"/>
      <point x="191" y="365"/>
      <point x="219" y="385" type="curve"/>
      <point x="206" y="396"/>
      <point x="199" y="408"/>
      <point x="199" y="420" type="curve" smooth="yes"/>
      <point x="199" y="453"/>
      <point x="228" y="480"/>
      <point x="264" y="480" type="curve" smooth="yes"/>
      <point x="310" y="480"/>
      <point x="349" y="449"/>
      <point x="349" y="410" type="curve" smooth="yes"/>
      <point x="349" y="342"/>
      <point x="310" y="305"/>
      <point x="204" y="305" type="curve"/>
      <point x="169" y="253" type="line"/>
      <point x="187" y="260"/>
      <point x="209" y="263"/>
      <point x="234" y="263" type="curve" smooth="yes"/>
      <point x="316" y="263"/>
      <point x="384" y="209"/>
      <point x="384" y="140" type="curve" smooth="yes"/>
      <point x="384" y="76"/>
      <point x="334" y="25"/>
      <point x="274" y="25" type="curve" smooth="yes"/>
      <point x="227" y="25"/>
      <point x="189" y="73"/>
      <point x="189" y="130" type="curve" smooth="yes"/>
      <point x="189" y="146"/>
      <point x="191" y="165"/>
      <point x="194" y="180" type="curve"/>
      <point x="130" y="180"/>
      <point x="79" y="149"/>
      <point x="79" y="110" type="curve" smooth="yes"/>
      <point x="79" y="43"/>
      <point x="166" y="-10"/>
      <point x="274" y="-10" type="curve" smooth="yes"/>
      <point x="390" y="-10"/>
      <point x="484" y="57"/>
      <point x="484" y="140" type="curve" smooth="yes"/>
      <point x="484" y="210"/>
      <point x="445" y="280"/>
      <point x="324" y="294" type="curve"/>
      <point x="407" y="316"/>
      <point x="449" y="363"/>
      <point x="449" y="410" type="curve" smooth="yes"/>
      <point x="449" y="465"/>
      <point x="379" y="510"/>
      <point x="269" y="510" type="curve" smooth="yes"/>
    </contour>
  </outline>
</glyph>
<glyph name="four-deva" format="1">
  <advance width="550"/>
  <unicode hex="096A"/>
  <outline>
    <contour>
      <point x="257" y="321" type="line"/>
      <point x="205" y="353"/>
      <point x="170" y="424"/>
      <point x="170" y="510" type="curve"/>
      <point x="60" y="495" type="line"/>
      <point x="60" y="420"/>
      <point x="121" y="339"/>
      <point x="218" y="283" type="curve"/>
      <point x="152" y="224"/>
      <point x="111" y="165"/>
      <point x="111" y="122" type="curve" smooth="yes"/>
      <point x="111" y="30"/>
      <point x="199" y="-14"/>
      <point x="284" y="-14" type="curve" smooth="yes"/>
      <point x="365" y="-14"/>
      <point x="444" y="27"/>
      <point x="444" y="108" type="curve" smooth="yes"/>
      <point x="444" y="168"/>
      <point x="388" y="237"/>
      <point x="299" y="294" type="curve"/>
      <point x="497" y="477" type="line"/>
      <point x="465" y="510" type="line"/>
    </contour>
    <contour>
      <point x="317" y="218"/>
      <point x="344" y="167"/>
      <point x="344" y="118" type="curve" smooth="yes"/>
      <point x="344" y="59"/>
      <point x="317" y="32"/>
      <point x="287" y="32" type="curve" smooth="yes"/>
      <point x="250" y="32"/>
      <point x="211" y="71"/>
      <point x="211" y="142" type="curve" smooth="yes"/>
      <point x="211" y="183"/>
      <point x="231" y="221"/>
      <point x="267" y="257" type="curve"/>
    </contour>
  </outline>
</glyph>
<glyph name="five-deva" format="1">
  <advance width="550"/>
  <unicode hex="096B"/>
  <outline>
    <contour>
      <point x="160" y="500" type="line"/>
      <point x="91" y="441"/>
      <point x="50" y="368"/>
      <point x="50" y="300" type="curve" smooth="yes"/>
      <point x="50" y="207"/>
      <point x="127" y="150"/>
      <point x="220" y="150" type="curve" smooth="yes"/>
      <point x="285" y="150"/>
      <point x="341" y="184"/>
      <point x="359" y="235" type="curve"/>
      <point x="386" y="189"/>
      <point x="399" y="147"/>
      <point x="399" y="110" type="curve" smooth="yes"/>
      <point x="399" y="83"/>
      <point x="381" y="52"/>
      <point x="349" y="25" type="curve"/>
      <point x="409" y="-10" type="line"/>
      <point x="464" y="10"/>
      <point x="499" y="66"/>
      <point x="499" y="130" type="curve" smooth="yes"/>
      <point x="499" y="161"/>
      <point x="439" y="297"/>
      <point x="439" y="340" type="curve" smooth="yes"/>
      <point x="439" y="363"/>
      <point x="446" y="387"/>
      <point x="459" y="410" type="curve"/>
      <point x="354" y="370" type="line"/>
      <point x="345" y="358"/>
      <point x="339" y="336"/>
      <point x="339" y="305" type="curve" smooth="yes"/>
      <point x="339" y="253"/>
      <point x="299" y="208"/>
      <point x="250" y="208" type="curve" smooth="yes"/>
      <point x="196" y="208"/>
      <point x="150" y="252"/>
      <point x="150" y="330" type="curve" smooth="yes"/>
      <point x="150" y="410"/>
      <point x="196" y="457"/>
      <point x="266" y="500" type="curve"/>
    </contour>
  </outline>
</glyph>
<glyph name="nine-deva" format="1">
  <advance width="550"/>
  <unicode hex="096F"/>
  <outline>
    <contour>
      <point x="148" y="500"/>
      <point x="70" y="449"/>
      <point x="70" y="385" type="curve" smooth="yes"/>
      <point x="70" y="350"/>
      <point x="91" y="315"/>
      <point x="125" y="285" type="curve" smooth="yes"/>
      <point x="359" y="80" type="line" smooth="yes"/>
      <point x="386" y="57"/>
      <point x="390" y="35"/>
      <point x="390" y="20" type="curve" smooth="yes"/>
      <point x="390" y="8"/>
      <point x="387" y="-7"/>
      <point x="380" y="-15" type="curve"/>
      <point x="446" y="-15"/>
      <point x="480" y="13"/>
      <point x="480" y="50" type="curve" smooth="yes"/>
      <point x="480" y="76"/>
      <point x="446" y="118"/>
      <point x="378" y="175" type="curve"/>
      <point x="220" y="320" type="line"/>
      <point x="235" y="318"/>
      <point x="248" y="317"/>
      <point x="261" y="317" type="curve" smooth="yes"/>
      <point x="348" y="317"/>
      <point x="385" y="362"/>
      <point x="385" y="410" type="curve" smooth="yes"/>
      <point x="385" y="459"/>
      <point x="324" y="500"/>
      <point x="245" y="500" type="curve" smooth="yes"/>
    </contour>
    <contour>
      <point x="258" y="467"/>
      <point x="286" y="439"/>
      <point x="286" y="405" type="curve" smooth="yes"/>
      <point x="286" y="373"/>
      <point x="261" y="348"/>
      <point x="227" y="348" type="curve" smooth="yes"/>
      <point x="191" y="348"/>
      <point x="162" y="373"/>
      <point x="162" y="405" type="curve" smooth="yes"/>
      <point x="162" y="439"/>
      <point x="188" y="467"/>
      <point x="222" y="467" type="curve" smooth="yes"/>
    </contour>
  </outline>
</glyph>
<glyph name="abbreviation-deva" format="1">
  <advance width="590"/>
  <unicode hex="0970"/>
  <outline>
    <contour>
      <point x="176" y="243"/>
      <point x="70" y="192"/>
      <point x="70" y="129" type="curve" smooth="yes"/>
      <point x="70" y="58"/>
      <point x="166" y="0"/>
      <point x="285" y="0" type="curve" smooth="yes"/>
      <point x="414" y="0"/>
      <point x="520" y="53"/>
      <point x="520" y="117" type="curve" smooth="yes"/>
      <point x="520" y="186"/>
      <point x="424" y="243"/>
      <point x="305" y="243" type="curve" smooth="yes"/>
    </contour>
    <contour>
      <point x="345" y="214"/>
      <point x="410" y="163"/>
      <point x="410" y="102" type="curve" smooth="yes"/>
      <point x="410" y="59"/>
      <point x="365" y="25"/>
      <point x="310" y="25" type="curve" smooth="yes"/>
      <point x="238" y="25"/>
      <point x="180" y="79"/>
      <point x="180" y="146" type="curve" smooth="yes"/>
      <point x="180" y="183"/>
      <point x="218" y="214"/>
      <point x="265" y="214" type="curve" smooth="yes"/>
    </contour>
  </outline>
</glyph>
<glyph name="gga-deva" format="1">
  <advance width="617"/>
  <unicode hex="097B"/>
  <outline>
    <contour>
      <point x="44" y="-35" type="line"/>
      <point x="44" y="-75" type="line"/>
      <point x="354" y="-75" type="line"/>
      <point x="354" y="-35" type="line"/>
    </contour>
    <component base="ga-deva"/>
    <contour>
      <point x="380" y="500" type="move" name="top"/>
    </contour>
  </outline>
</glyph>
<glyph name="endash" format="1">
  <advance width="394"/>
  <unicode hex="2013"/>
  <outline>
    <contour>
      <point x="43" y="190" type="line"/>
      <point x="351" y="190" type="line"/>
      <point x="351" y="257" type="line"/>
      <point x="43" y="257" type="line"/>
    </contour>
  </outline>
</glyph>
<glyph name="dagger" format="1">
  <advance width="333"/>
  <unicode hex="2020"/>
  <outline>
    <contour>
      <point x="112" y="511" type="line"/>
      <point x="130" y="0" type="line"/>
      <point x="202" y="0" type="line"/>
      <point x="220" y="511" type="line"/>
    </contour>
    <contour>
      <point x="8" y="321" type="line"/>
      <point x="126" y="330" type="line"/>
      <point x="126" y="390" type="line"/>
      <point x="8" y="398" type="line"/>
    </contour>
    <contour>
      <point x="325" y="398" type="line"/>
      <point x="207" y="390" type="line"/>
      <point x="207" y="330" type="line"/>
      <point x="325" y="321" type="line"/>
    </contour>
  </outline>
</glyph>
<glyph name="daggerdbl" format="1">
  <advance width="333"/>
  <unicode hex="2021"/>
  <outline>
    <contour>
      <point x="112" y="511" type="line"/>
      <point x="130" y="255" type="line"/>
      <point x="202" y="255" type="line"/>
      <point x="220" y="511" type="line"/>
    </contour>
    <contour>
      <point x="220" y="0" type="line"/>
      <point x="202" y="255" type="line"/>
      <point x="130" y="255" type="line"/>
      <point x="112" y="0" type="line"/>
    </contour>
    <contour>
      <point x="8" y="321" type="line"/>
      <point x="128" y="330" type="line"/>
      <point x="128" y="390" type="line"/>
      <point x="8" y="398" type="line"/>
    </contour>
    <contour>
      <point x="325" y="398" type="line"/>
      <point x="205" y="390" type="line"/>
      <point x="205" y="330" type="line"/>
      <point x="325" y="321" type="line"/>
    </contour>
    <contour>
      <point x="8" y="113" type="line"/>
      <point x="128" y="121" type="line"/>
      <point x="128" y="181" type="line"/>
      <point x="8" y="190" type="line"/>
    </contour>
    <contour>
      <point x="325" y="190" type="line"/>
      <point x="205" y="181" type="line"/>
      <point x="205" y="121" type="line"/>
      <point x="325" y="113" type="line"/>
    </contour>
  </outline>
</glyph>
<glyph name="fraction" format="1">
  <advance width="200"/>
  <unicode hex="2044"/>
  <outline>
    <contour>
      <point x="11" y="0" type="line"/>
      <point x="52" y="0" type="line"/>
      <point x="188" y="511" type="line"/>
      <point x="146" y="511" type="line"/>
    </contour>
  </outline>
</glyph>
<glyph name="fivesuperior" format="1">
  <advance width="314"/>
  <unicode hex="2075"/>
  <outline>
    <contour>
      <point x="47" y="367" type="line"/>
      <point x="51" y="309"/>
      <point x="82" y="274"/>
      <point x="153" y="274" type="curve" smooth="yes"/>
      <point x="232" y="274"/>
      <point x="269" y="318"/>
      <point x="269" y="360" type="curve" smooth="yes"/>
      <point x="269" y="410"/>
      <point x="228" y="450"/>
      <point x="138" y="450" type="curve" smooth="yes"/>
      <point x="93" y="450" type="line"/>
      <point x="97" y="505" type="line"/>
      <point x="248" y="505" type="line"/>
      <point x="248" y="561" type="line"/>
      <point x="72" y="561" type="line"/>
      <point x="62" y="421" type="line"/>
      <point x="105" y="421" type="line" smooth="yes"/>
      <point x="177" y="421"/>
      <point x="195" y="394"/>
      <point x="195" y="360" type="curve" smooth="yes"/>
      <point x="195" y="331"/>
      <point x="183" y="304"/>
      <point x="153" y="304" type="curve" smooth="yes"/>
      <point x="125" y="304"/>
      <point x="112" y="329"/>
      <point x="111" y="372" type="curve"/>
    </contour>
  </outline>
</glyph>
<glyph name="sixsuperior" format="1">
  <advance width="314"/>
  <unicode hex="2076"/>
  <outline>
    <contour>
      <point x="266" y="480" type="line"/>
      <point x="263" y="538"/>
      <point x="228" y="566"/>
      <point x="160" y="566" type="curve" smooth="yes"/>
      <point x="63" y="566"/>
      <point x="39" y="498"/>
      <point x="39" y="407" type="curve" smooth="yes"/>
      <point x="39" y="338"/>
      <point x="70" y="274"/>
      <point x="159" y="274" type="curve" smooth="yes"/>
      <point x="237" y="274"/>
      <point x="273" y="305"/>
      <point x="273" y="366" type="curve" smooth="yes"/>
      <point x="273" y="419"/>
      <point x="244" y="448"/>
      <point x="172" y="448" type="curve" smooth="yes"/>
      <point x="149" y="448"/>
      <point x="122" y="445"/>
      <point x="91" y="433" type="curve"/>
      <point x="91" y="403" type="line"/>
      <point x="113" y="414"/>
      <point x="131" y="418"/>
      <point x="151" y="418" type="curve" smooth="yes"/>
      <point x="190" y="418"/>
      <point x="201" y="395"/>
      <point x="201" y="366" type="curve" smooth="yes"/>
      <point x="201" y="325"/>
      <point x="189" y="304"/>
      <point x="159" y="304" type="curve" smooth="yes"/>
      <point x="125" y="304"/>
      <point x="111" y="326"/>
      <point x="111" y="416" type="curve" smooth="yes"/>
      <point x="111" y="498"/>
      <point x="118" y="538"/>
      <point x="160" y="538" type="curve" smooth="yes"/>
      <point x="188" y="538"/>
      <point x="202" y="512"/>
      <point x="202" y="474" type="curve"/>
    </contour>
  </outline>
</glyph>
<glyph name="lira" format="1">
  <advance width="441"/>
  <unicode hex="20A4"/>
  <outline>
    <contour>
      <point x="42" y="141" type="line"/>
      <point x="336" y="141" type="line"/>
      <point x="336" y="201" type="line"/>
      <point x="42" y="201" type="line"/>
    </contour>
    <contour>
      <point x="42" y="252" type="line"/>
      <point x="336" y="252" type="line"/>
      <point x="336" y="311" type="line"/>
      <point x="42" y="311" type="line"/>
    </contour>
    <contour>
      <point x="45" y="0" type="line"/>
      <point x="415" y="0" type="line"/>
      <point x="415" y="78" type="line"/>
      <point x="149" y="78" type="line"/>
      <point x="176" y="97"/>
      <point x="188" y="114"/>
      <point x="188" y="155" type="curve" smooth="yes"/>
      <point x="188" y="366" type="line" smooth="yes"/>
      <point x="188" y="435"/>
      <point x="200" y="481"/>
      <point x="254" y="481" type="curve" smooth="yes"/>
      <point x="303" y="481"/>
      <point x="322" y="432"/>
      <point x="322" y="358" type="curve"/>
      <point x="409" y="364" type="line"/>
      <point x="409" y="464"/>
      <point x="371" y="521"/>
      <point x="254" y="521" type="curve" smooth="yes"/>
      <point x="129" y="521"/>
      <point x="87" y="460"/>
      <point x="87" y="366" type="curve" smooth="yes"/>
      <point x="87" y="138" type="line" smooth="yes"/>
      <point x="87" y="113"/>
      <point x="76" y="80"/>
      <point x="45" y="59" type="curve"/>
    </contour>
  </outline>
</glyph>
<glyph name="Euro" format="1">
  <advance width="441"/>
  <unicode hex="20AC"/>
  <outline>
    <contour>
      <point x="178" y="30"/>
      <point x="161" y="124"/>
      <point x="161" y="255" type="curve" smooth="yes"/>
      <point x="161" y="387"/>
      <point x="178" y="481"/>
      <point x="260" y="481" type="curve" smooth="yes"/>
      <point x="305" y="481"/>
      <point x="338" y="444"/>
      <point x="338" y="377" type="curve"/>
      <point x="425" y="383" type="line"/>
      <point x="423" y="468"/>
      <point x="374" y="521"/>
      <point x="260" y="521" type="curve" smooth="yes"/>
      <point x="102" y="521"/>
      <point x="62" y="400"/>
      <point x="62" y="255" type="curve" smooth="yes"/>
      <point x="62" y="111"/>
      <point x="102" y="-10"/>
      <point x="260" y="-10" type="curve" smooth="yes"/>
      <point x="375" y="-10"/>
      <point x="425" y="43"/>
      <point x="426" y="130" type="curve"/>
      <point x="339" y="136" type="line"/>
      <point x="339" y="68"/>
      <point x="307" y="30"/>
      <point x="260" y="30" type="curve" smooth="yes"/>
    </contour>
    <contour>
      <point x="18" y="172" type="line"/>
      <point x="291" y="172" type="line"/>
      <point x="291" y="231" type="line"/>
      <point x="18" y="231" type="line"/>
    </contour>
    <contour>
      <point x="18" y="280" type="line"/>
      <point x="291" y="280" type="line"/>
      <point x="291" y="340" type="line"/>
      <point x="18" y="340" type="line"/>
    </contour>
  </outline>
</glyph>
<glyph name="rupeeIndian" format="1">
  <advance width="650"/>
  <unicode hex="20B9"/>
  <outline>
    <contour>
      <point x="65" y="500" type="line"/>
      <point x="65" y="469" type="line"/>
      <point x="295" y="469" type="line"/>
      <point x="335" y="451"/>
      <point x="363" y="414"/>
      <point x="371" y="370" type="curve"/>
      <point x="65" y="370" type="line"/>
      <point x="65" y="340" type="line"/>
      <point x="371" y="340" type="line"/>
      <point x="366" y="281"/>
      <point x="336" y="244"/>
      <point x="267" y="244" type="curve" smooth="yes"/>
      <point x="211" y="244"/>
      <point x="184" y="280"/>
      <point x="143" y="280" type="curve" smooth="yes"/>
      <point x="113" y="280"/>
      <point x="89" y="265"/>
      <point x="66" y="238" type="curve"/>
      <point x="162" y="196"/>
      <point x="310" y="-7"/>
      <point x="404" y="-7" type="curve" smooth="yes"/>
      <point x="435" y="-7"/>
      <point x="473" y="5"/>
      <point x="492" y="45" type="curve"/>
      <point x="422" y="45"/>
      <point x="325" y="114"/>
      <point x="227" y="212" type="curve"/>
      <point x="254" y="207"/>
      <point x="279" y="205"/>
      <point x="301" y="205" type="curve" smooth="yes"/>
      <point x="411" y="205"/>
      <point x="463" y="267"/>
      <point x="471" y="340" type="curve"/>
      <point x="584" y="340" type="line"/>
      <point x="584" y="370" type="line"/>
      <point x="471" y="370" type="line"/>
      <point x="466" y="414"/>
      <point x="444" y="451"/>
      <point x="413" y="469" type="curve"/>
      <point x="585" y="469" type="line"/>
      <point x="585" y="500" type="line"/>
    </contour>
  </outline>
</glyph>
<glyph name="trademark" format="1">
  <advance width="675"/>
  <unicode hex="2122"/>
  <outline>
    <contour>
      <point x="467" y="251" type="line"/>
      <point x="384" y="558" type="line"/>
      <point x="320" y="558" type="line"/>
      <point x="404" y="251" type="line"/>
    </contour>
    <contour>
      <point x="177" y="251" type="line"/>
      <point x="177" y="520" type="line"/>
      <point x="96" y="520" type="line"/>
      <point x="96" y="251" type="line"/>
    </contour>
    <contour>
      <point x="255" y="520" type="line"/>
      <point x="255" y="558" type="line"/>
      <point x="18" y="558" type="line"/>
      <point x="18" y="520" type="line"/>
    </contour>
    <contour>
      <point x="325" y="251" type="line"/>
      <point x="335" y="558" type="line"/>
      <point x="289" y="558" type="line"/>
      <point x="277" y="251" type="line"/>
    </contour>
    <contour>
      <point x="474" y="251" type="line"/>
      <point x="559" y="558" type="line"/>
      <point x="517" y="558" type="line"/>
      <point x="433" y="251" type="line"/>
    </contour>
    <contour>
      <point x="631" y="251" type="line"/>
      <point x="617" y="558" type="line"/>
      <point x="541" y="558" type="line"/>
      <point x="551" y="251" type="line"/>
    </contour>
    <contour>
      <point x="124" y="151" type="move" name="center"/>
    </contour>
  </outline>
</glyph>
<glyph name="Omega" format="1">
  <advance width="557"/>
  <unicode hex="2126"/>
  <outline>
    <contour>
      <point x="151" y="138" type="line"/>
      <point x="151" y="0" type="line"/>
      <point x="224" y="0" type="line"/>
      <point x="224" y="126" type="line"/>
    </contour>
    <contour>
      <point x="57" y="0" type="line"/>
      <point x="151" y="0" type="line"/>
      <point x="151" y="65" type="line"/>
      <point x="57" y="65" type="line"/>
    </contour>
    <contour>
      <point x="387" y="481"/>
      <point x="426" y="402"/>
      <point x="426" y="303" type="curve" smooth="yes"/>
      <point x="426" y="220"/>
      <point x="398" y="160"/>
      <point x="333" y="129" type="curve"/>
      <point x="333" y="92" type="line"/>
      <point x="472" y="118"/>
      <point x="521" y="226"/>
      <point x="521" y="306" type="curve" smooth="yes"/>
      <point x="521" y="412"/>
      <point x="458" y="522"/>
      <point x="278" y="522" type="curve" smooth="yes"/>
      <point x="98" y="522"/>
      <point x="36" y="412"/>
      <point x="36" y="306" type="curve" smooth="yes"/>
      <point x="36" y="226"/>
      <point x="84" y="118"/>
      <point x="223" y="92" type="curve"/>
      <point x="223" y="129" type="line"/>
      <point x="158" y="160"/>
      <point x="130" y="220"/>
      <point x="130" y="303" type="curve" smooth="yes"/>
      <point x="130" y="402"/>
      <point x="169" y="481"/>
      <point x="278" y="481" type="curve" smooth="yes"/>
    </contour>
    <contour>
      <point x="333" y="126" type="line"/>
      <point x="333" y="0" type="line"/>
      <point x="406" y="0" type="line"/>
      <point x="406" y="138" type="line"/>
    </contour>
    <contour>
      <point x="499" y="65" type="line"/>
      <point x="405" y="65" type="line"/>
      <point x="405" y="0" type="line"/>
      <point x="499" y="0" type="line"/>
    </contour>
    <contour>
      <point x="14" y="511" type="move" name="topleft"/>
    </contour>
  </outline>
</glyph>
<glyph name="increment" format="1">
  <advance width="480"/>
  <unicode hex="2206"/>
  <outline>
    <contour>
      <point x="202" y="511" type="line"/>
      <point x="375" y="0" type="line"/>
      <point x="475" y="0" type="line"/>
      <point x="295" y="511" type="line"/>
    </contour>
    <contour>
      <point x="185" y="511" type="line"/>
      <point x="5" y="0" type="line"/>
      <point x="64" y="0" type="line"/>
      <point x="237" y="511" type="line"/>
    </contour>
    <contour>
      <point x="45" y="0" type="line"/>
      <point x="435" y="0" type="line"/>
      <point x="435" y="65" type="line"/>
      <point x="45" y="65" type="line"/>
    </contour>
  </outline>
</glyph>
<glyph name="minus" format="1">
  <advance width="406"/>
  <unicode hex="2212"/>
  <outline>
    <contour>
      <point x="60" y="190" type="line"/>
      <point x="347" y="190" type="line"/>
      <point x="347" y="257" type="line"/>
      <point x="60" y="257" type="line"/>
    </contour>
  </outline>
</glyph>
<glyph name="radical" format="1">
  <advance width="402"/>
  <unicode hex="221A"/>
  <outline>
    <contour>
      <point x="214" y="0" type="line"/>
      <point x="366" y="511" type="line"/>
      <point x="266" y="511" type="line"/>
      <point x="121" y="0" type="line"/>
    </contour>
    <contour>
      <point x="196" y="0" type="line"/>
      <point x="94" y="306" type="line"/>
      <point x="-7" y="306" type="line"/>
      <point x="104" y="0" type="line"/>
    </contour>
    <contour>
      <point x="443" y="511" type="line"/>
      <point x="283" y="511" type="line"/>
      <point x="283" y="447" type="line"/>
      <point x="443" y="447" type="line"/>
    </contour>
  </outline>
</glyph>
<glyph name="infinity" format="1">
  <advance width="422"/>
  <unicode hex="221E"/>
  <outline>
    <contour>
      <point x="178" y="221" type="line" smooth="yes"/>
      <point x="172" y="188"/>
      <point x="161" y="164"/>
      <point x="134" y="164" type="curve" smooth="yes"/>
      <point x="104" y="164"/>
      <point x="87" y="175"/>
      <point x="87" y="223" type="curve" smooth="yes"/>
      <point x="87" y="271"/>
      <point x="104" y="281"/>
      <point x="134" y="281" type="curve" smooth="yes"/>
      <point x="161" y="281"/>
      <point x="180" y="256"/>
      <point x="185" y="234" type="curve"/>
      <point x="236" y="237" type="line"/>
      <point x="225" y="319"/>
      <point x="200" y="359"/>
      <point x="123" y="359" type="curve" smooth="yes"/>
      <point x="58" y="359"/>
      <point x="15" y="330"/>
      <point x="15" y="223" type="curve" smooth="yes"/>
      <point x="15" y="116"/>
      <point x="58" y="87"/>
      <point x="123" y="87" type="curve" smooth="yes"/>
      <point x="200" y="87"/>
      <point x="221" y="121"/>
      <point x="237" y="202" type="curve" smooth="yes"/>
      <point x="243" y="227" type="line" smooth="yes"/>
      <point x="249" y="258"/>
      <point x="259" y="281"/>
      <point x="287" y="281" type="curve" smooth="yes"/>
      <point x="317" y="281"/>
      <point x="334" y="271"/>
      <point x="334" y="223" type="curve" smooth="yes"/>
      <point x="334" y="175"/>
      <point x="317" y="164"/>
      <point x="287" y="164" type="curve" smooth="yes"/>
      <point x="259" y="164"/>
      <point x="240" y="190"/>
      <point x="235" y="212" type="curve"/>
      <point x="184" y="209" type="line"/>
      <point x="196" y="127"/>
      <point x="221" y="87"/>
      <point x="297" y="87" type="curve" smooth="yes"/>
      <point x="363" y="87"/>
      <point x="406" y="116"/>
      <point x="406" y="223" type="curve" smooth="yes"/>
      <point x="406" y="330"/>
      <point x="363" y="359"/>
      <point x="297" y="359" type="curve" smooth="yes"/>
      <point x="221" y="359"/>
      <point x="198" y="325"/>
      <point x="184" y="244" type="curve"/>
    </contour>
  </outline>
</glyph>
<glyph name="lozenge" format="1">
  <advance width="388"/>
  <unicode hex="25CA"/>
  <outline>
    <contour>
      <point x="249" y="-70" type="line"/>
      <point x="378" y="234" type="line"/>
      <point x="279" y="234" type="line"/>
      <point x="156" y="-70" type="line"/>
    </contour>
    <contour>
      <point x="232" y="-70" type="line"/>
      <point x="110" y="234" type="line"/>
      <point x="10" y="234" type="line"/>
      <point x="139" y="-70" type="line"/>
    </contour>
    <contour>
      <point x="156" y="539" type="line"/>
      <point x="279" y="234" type="line"/>
      <point x="378" y="234" type="line"/>
      <point x="249" y="539" type="line"/>
    </contour>
    <contour>
      <point x="139" y="539" type="line"/>
      <point x="10" y="234" type="line"/>
      <point x="110" y="234" type="line"/>
      <point x="232" y="539" type="line"/>
    </contour>
  </outline>
</glyph>
<glyph name="dottedCircle" format="1">
  <advance width="690"/>
  <unicode hex="25CC"/>
  <outline>
    <contour>
      <point x="75" y="245"/>
      <point x="79" y="237"/>
      <point x="86" y="230" type="curve" smooth="yes"/>
      <point x="93" y="223"/>
      <point x="101" y="219"/>
      <point x="111" y="219" type="curve" smooth="yes"/>
      <point x="121" y="219"/>
      <point x="129" y="223"/>
      <point x="136" y="230" type="curve" smooth="yes"/>
      <point x="143" y="237"/>
      <point x="147" y="245"/>
      <point x="147" y="255" type="curve" smooth="yes"/>
      <point x="147" y="265"/>
      <point x="143" y="273"/>
      <point x="136" y="280" type="curve" smooth="yes"/>
      <point x="129" y="287"/>
      <point x="121" y="291"/>
      <point x="111" y="291" type="curve" smooth="yes"/>
      <point x="101" y="291"/>
      <point x="93" y="287"/>
      <point x="86" y="280" type="curve" smooth="yes"/>
      <point x="79" y="273"/>
      <point x="75" y="265"/>
      <point x="75" y="255" type="curve" smooth="yes"/>
    </contour>
    <contour>
      <point x="309" y="479"/>
      <point x="313" y="471"/>
      <point x="320" y="464" type="curve" smooth="yes"/>
      <point x="327" y="457"/>
      <point x="335" y="453"/>
      <point x="345" y="453" type="curve" smooth="yes"/>
      <point x="355" y="453"/>
      <point x="363" y="457"/>
      <point x="370" y="464" type="curve" smooth="yes"/>
      <point x="377" y="471"/>
      <point x="381" y="479"/>
      <point x="381" y="489" type="curve" smooth="yes"/>
      <point x="381" y="499"/>
      <point x="377" y="507"/>
      <point x="370" y="514" type="curve" smooth="yes"/>
      <point x="363" y="521"/>
      <point x="355" y="525"/>
      <point x="345" y="525" type="curve" smooth="yes"/>
      <point x="335" y="525"/>
      <point x="327" y="521"/>
      <point x="320" y="514" type="curve" smooth="yes"/>
      <point x="313" y="507"/>
      <point x="309" y="499"/>
      <point x="309" y="489" type="curve" smooth="yes"/>
    </contour>
    <contour>
      <point x="309" y="11"/>
      <point x="313" y="3"/>
      <point x="320" y="-4" type="curve" smooth="yes"/>
      <point x="327" y="-11"/>
      <point x="335" y="-15"/>
      <point x="345" y="-15" type="curve" smooth="yes"/>
      <point x="355" y="-15"/>
      <point x="363" y="-11"/>
      <point x="370" y="-4" type="curve" smooth="yes"/>
      <point x="377" y="3"/>
      <point x="381" y="11"/>
      <point x="381" y="21" type="curve" smooth="yes"/>
      <point x="381" y="31"/>
      <point x="377" y="39"/>
      <point x="370" y="46" type="curve" smooth="yes"/>
      <point x="363" y="53"/>
      <point x="355" y="57"/>
      <point x="345" y="57" type="curve" smooth="yes"/>
      <point x="335" y="57"/>
      <point x="327" y="53"/>
      <point x="320" y="46" type="curve" smooth="yes"/>
      <point x="313" y="39"/>
      <point x="309" y="31"/>
      <point x="309" y="21" type="curve" smooth="yes"/>
    </contour>
    <contour>
      <point x="543" y="245"/>
      <point x="547" y="237"/>
      <point x="554" y="230" type="curve" smooth="yes"/>
      <point x="561" y="223"/>
      <point x="569" y="219"/>
      <point x="579" y="219" type="curve" smooth="yes"/>
      <point x="589" y="219"/>
      <point x="597" y="223"/>
      <point x="604" y="230" type="curve" smooth="yes"/>
      <point x="611" y="237"/>
      <point x="615" y="245"/>
      <point x="615" y="255" type="curve" smooth="yes"/>
      <point x="615" y="265"/>
      <point x="611" y="273"/>
      <point x="604" y="280" type="curve" smooth="yes"/>
      <point x="597" y="287"/>
      <point x="589" y="291"/>
      <point x="579" y="291" type="curve" smooth="yes"/>
      <point x="569" y="291"/>
      <point x="561" y="287"/>
      <point x="554" y="280" type="curve" smooth="yes"/>
      <point x="547" y="273"/>
      <point x="543" y="265"/>
      <point x="543" y="255" type="curve" smooth="yes"/>
    </contour>
    <contour>
      <point x="107" y="128"/>
      <point x="111" y="120"/>
      <point x="118" y="113" type="curve" smooth="yes"/>
      <point x="125" y="106"/>
      <point x="133" y="102"/>
      <point x="143" y="102" type="curve" smooth="yes"/>
      <point x="153" y="102"/>
      <point x="161" y="106"/>
      <point x="168" y="113" type="curve" smooth="yes"/>
      <point x="175" y="120"/>
      <point x="179" y="128"/>
      <point x="179" y="138" type="curve" smooth="yes"/>
      <point x="179" y="148"/>
      <point x="175" y="156"/>
      <point x="168" y="163" type="curve" smooth="yes"/>
      <point x="161" y="170"/>
      <point x="153" y="174"/>
      <point x="143" y="174" type="curve" smooth="yes"/>
      <point x="133" y="174"/>
      <point x="125" y="170"/>
      <point x="118" y="163" type="curve" smooth="yes"/>
      <point x="111" y="156"/>
      <point x="107" y="148"/>
      <point x="107" y="138" type="curve" smooth="yes"/>
    </contour>
    <contour>
      <point x="512" y="362"/>
      <point x="516" y="354"/>
      <point x="523" y="347" type="curve" smooth="yes"/>
      <point x="530" y="340"/>
      <point x="538" y="336"/>
      <point x="548" y="336" type="curve" smooth="yes"/>
      <point x="558" y="336"/>
      <point x="566" y="340"/>
      <point x="573" y="347" type="curve" smooth="yes"/>
      <point x="580" y="354"/>
      <point x="584" y="362"/>
      <point x="584" y="372" type="curve" smooth="yes"/>
      <point x="584" y="382"/>
      <point x="580" y="390"/>
      <point x="573" y="397" type="curve" smooth="yes"/>
      <point x="566" y="404"/>
      <point x="558" y="408"/>
      <point x="548" y="408" type="curve" smooth="yes"/>
      <point x="538" y="408"/>
      <point x="530" y="404"/>
      <point x="523" y="397" type="curve" smooth="yes"/>
      <point x="516" y="390"/>
      <point x="512" y="382"/>
      <point x="512" y="372" type="curve" smooth="yes"/>
    </contour>
    <contour>
      <point x="426" y="448"/>
      <point x="430" y="440"/>
      <point x="437" y="433" type="curve" smooth="yes"/>
      <point x="444" y="426"/>
      <point x="452" y="422"/>
      <point x="462" y="422" type="curve" smooth="yes"/>
      <point x="472" y="422"/>
      <point x="480" y="426"/>
      <point x="487" y="433" type="curve" smooth="yes"/>
      <point x="494" y="440"/>
      <point x="498" y="448"/>
      <point x="498" y="458" type="curve" smooth="yes"/>
      <point x="498" y="468"/>
      <point x="494" y="476"/>
      <point x="487" y="483" type="curve" smooth="yes"/>
      <point x="480" y="490"/>
      <point x="472" y="494"/>
      <point x="462" y="494" type="curve" smooth="yes"/>
      <point x="452" y="494"/>
      <point x="444" y="490"/>
      <point x="437" y="483" type="curve" smooth="yes"/>
      <point x="430" y="476"/>
      <point x="426" y="468"/>
      <point x="426" y="458" type="curve" smooth="yes"/>
    </contour>
    <contour>
      <point x="192" y="43"/>
      <point x="196" y="34"/>
      <point x="203" y="27" type="curve" smooth="yes"/>
      <point x="210" y="20"/>
      <point x="218" y="16"/>
      <point x="228" y="16" type="curve" smooth="yes"/>
      <point x="238" y="16"/>
      <point x="246" y="20"/>
      <point x="253" y="27" type="curve" smooth="yes"/>
      <point x="260" y="34"/>
      <point x="264" y="43"/>
      <point x="264" y="53" type="curve" smooth="yes"/>
      <point x="264" y="63"/>
      <point x="260" y="71"/>
      <point x="253" y="78" type="curve" smooth="yes"/>
      <point x="246" y="85"/>
      <point x="238" y="89"/>
      <point x="228" y="89" type="curve" smooth="yes"/>
      <point x="218" y="89"/>
      <point x="210" y="85"/>
      <point x="203" y="78" type="curve" smooth="yes"/>
      <point x="196" y="71"/>
      <point x="192" y="63"/>
      <point x="192" y="53" type="curve" smooth="yes"/>
    </contour>
    <contour>
      <point x="107" y="362"/>
      <point x="111" y="354"/>
      <point x="118" y="347" type="curve" smooth="yes"/>
      <point x="125" y="340"/>
      <point x="133" y="336"/>
      <point x="143" y="336" type="curve" smooth="yes"/>
      <point x="153" y="336"/>
      <point x="161" y="340"/>
      <point x="168" y="347" type="curve" smooth="yes"/>
      <point x="175" y="354"/>
      <point x="179" y="362"/>
      <point x="179" y="372" type="curve" smooth="yes"/>
      <point x="179" y="382"/>
      <point x="175" y="390"/>
      <point x="168" y="397" type="curve" smooth="yes"/>
      <point x="161" y="404"/>
      <point x="153" y="408"/>
      <point x="143" y="408" type="curve" smooth="yes"/>
      <point x="133" y="408"/>
      <point x="125" y="404"/>
      <point x="118" y="397" type="curve" smooth="yes"/>
      <point x="111" y="390"/>
      <point x="107" y="382"/>
      <point x="107" y="372" type="curve" smooth="yes"/>
    </contour>
    <contour>
      <point x="512" y="128"/>
      <point x="516" y="120"/>
      <point x="523" y="113" type="curve" smooth="yes"/>
      <point x="530" y="106"/>
      <point x="538" y="102"/>
      <point x="548" y="102" type="curve" smooth="yes"/>
      <point x="558" y="102"/>
      <point x="566" y="106"/>
      <point x="573" y="113" type="curve" smooth="yes"/>
      <point x="580" y="120"/>
      <point x="584" y="128"/>
      <point x="584" y="138" type="curve" smooth="yes"/>
      <point x="584" y="148"/>
      <point x="580" y="156"/>
      <point x="573" y="163" type="curve" smooth="yes"/>
      <point x="566" y="170"/>
      <point x="558" y="174"/>
      <point x="548" y="174" type="curve" smooth="yes"/>
      <point x="538" y="174"/>
      <point x="530" y="170"/>
      <point x="523" y="163" type="curve" smooth="yes"/>
      <point x="516" y="156"/>
      <point x="512" y="148"/>
      <point x="512" y="138" type="curve" smooth="yes"/>
    </contour>
    <contour>
      <point x="192" y="448"/>
      <point x="196" y="440"/>
      <point x="203" y="433" type="curve" smooth="yes"/>
      <point x="210" y="426"/>
      <point x="218" y="422"/>
      <point x="228" y="422" type="curve" smooth="yes"/>
      <point x="238" y="422"/>
      <point x="246" y="426"/>
      <point x="253" y="433" type="curve" smooth="yes"/>
      <point x="260" y="440"/>
      <point x="264" y="448"/>
      <point x="264" y="458" type="curve" smooth="yes"/>
      <point x="264" y="468"/>
      <point x="260" y="476"/>
      <point x="253" y="483" type="curve" smooth="yes"/>
      <point x="246" y="490"/>
      <point x="238" y="494"/>
      <point x="228" y="494" type="curve" smooth="yes"/>
      <point x="218" y="494"/>
      <point x="210" y="490"/>
      <point x="203" y="483" type="curve" smooth="yes"/>
      <point x="196" y="476"/>
      <point x="192" y="468"/>
      <point x="192" y="458" type="curve" smooth="yes"/>
    </contour>
    <contour>
      <point x="426" y="43"/>
      <point x="430" y="34"/>
      <point x="437" y="27" type="curve" smooth="yes"/>
      <point x="444" y="20"/>
      <point x="452" y="16"/>
      <point x="462" y="16" type="curve" smooth="yes"/>
      <point x="472" y="16"/>
      <point x="480" y="20"/>
      <point x="487" y="27" type="curve" smooth="yes"/>
      <point x="494" y="34"/>
      <point x="498" y="43"/>
      <point x="498" y="53" type="curve" smooth="yes"/>
      <point x="498" y="63"/>
      <point x="494" y="71"/>
      <point x="487" y="78" type="curve" smooth="yes"/>
      <point x="480" y="85"/>
      <point x="472" y="89"/>
      <point x="462" y="89" type="curve" smooth="yes"/>
      <point x="452" y="89"/>
      <point x="444" y="85"/>
      <point x="437" y="78" type="curve" smooth="yes"/>
      <point x="430" y="71"/>
      <point x="426" y="63"/>
      <point x="426" y="53" type="curve" smooth="yes"/>
    </contour>
  </outline>
</glyph>
<glyph name="aiMatra_reph_anusvara-deva" format="1">
  <advance width="0"/>
  <outline>
    <component base="aiMatra_reph-deva"/>
    <component base="anusvara-deva" xOffset="57" yOffset="55" xScale="0.826" yScale="0.826"/>
    <contour>
      <point x="-120" y="500" type="move" name="_top"/>
    </contour>
  </outline>
</glyph>
<glyph name="b-deva" format="1">
  <advance width="341"/>
  <outline>
    <contour>
      <point x="123" y="349" type="line"/>
      <point x="298" y="87" type="line"/>
      <point x="331" y="115" type="line"/>
      <point x="148" y="389" type="line"/>
    </contour>
    <component base="v-deva"/>
  </outline>
</glyph>
<glyph name="c_ca-deva" format="1">
  <advance width="781"/>
  <outline>
    <contour>
      <point x="-10" y="500" type="line"/>
      <point x="-10" y="470" type="line"/>
      <point x="611" y="470" type="line"/>
      <point x="611" y="210" type="line"/>
      <point x="592" y="142"/>
      <point x="552" y="95"/>
      <point x="511" y="95" type="curve" smooth="yes"/>
      <point x="462" y="95"/>
      <point x="421" y="146"/>
      <point x="421" y="210" type="curve" smooth="yes"/>
      <point x="421" y="298"/>
      <point x="479" y="370"/>
      <point x="551" y="370" type="curve" smooth="yes"/>
      <point x="601" y="370" type="line"/>
      <point x="601" y="410" type="line"/>
      <point x="11" y="410" type="line"/>
      <point x="11" y="370" type="line"/>
      <point x="176" y="370" type="line"/>
      <point x="107" y="345"/>
      <point x="61" y="281"/>
      <point x="61" y="210" type="curve" smooth="yes"/>
      <point x="61" y="122"/>
      <point x="140" y="50"/>
      <point x="236" y="50" type="curve" smooth="yes"/>
      <point x="277" y="50"/>
      <point x="319" y="68"/>
      <point x="351" y="100" type="curve"/>
      <point x="372" y="68"/>
      <point x="420" y="50"/>
      <point x="476" y="50" type="curve" smooth="yes"/>
      <point x="536" y="50"/>
      <point x="588" y="81"/>
      <point x="611" y="130" type="curve"/>
      <point x="611" y="0" type="line"/>
      <point x="711" y="0" type="line"/>
      <point x="711" y="470" type="line"/>
      <point x="791" y="470" type="line"/>
      <point x="791" y="500" type="line"/>
    </contour>
    <contour>
      <point x="362" y="342"/>
      <point x="311" y="273"/>
      <point x="311" y="200" type="curve" smooth="yes"/>
      <point x="311" y="170"/>
      <point x="318" y="143"/>
      <point x="331" y="120" type="curve"/>
      <point x="318" y="104"/>
      <point x="291" y="95"/>
      <point x="256" y="95" type="curve" smooth="yes"/>
      <point x="209" y="95"/>
      <point x="171" y="151"/>
      <point x="171" y="220" type="curve" smooth="yes"/>
      <point x="171" y="303"/>
      <point x="224" y="370"/>
      <point x="291" y="370" type="curve" smooth="yes"/>
      <point x="441" y="370" type="line"/>
    </contour>
    <contour>
      <point x="236" y="-80" type="move" name="nukta"/>
    </contour>
    <contour>
      <point x="661" y="0" type="move" name="bottom"/>
    </contour>
    <contour>
      <point x="661" y="500" type="move" name="top"/>
    </contour>
  </outline>
</glyph>
<glyph name="ch_ra-deva" format="1">
  <advance width="586"/>
  <outline>
    <component base="rakar-deva" xOffset="481"/>
    <component base="cha-deva"/>
    <contour>
      <point x="422" y="500" type="move" name="top"/>
    </contour>
    <contour>
      <point x="294" y="0" type="move" name="bottom"/>
    </contour>
  </outline>
</glyph>
<glyph name="d_ba-deva" format="1">
  <advance width="486"/>
  <outline>
    <contour>
      <point x="76" y="39"/>
      <point x="33" y="4"/>
      <point x="33" y="-35" type="curve" smooth="yes"/>
      <point x="33" y="-93"/>
      <point x="83" y="-130"/>
      <point x="168" y="-130" type="curve" smooth="yes"/>
      <point x="228" y="-130"/>
      <point x="288" y="-90"/>
      <point x="308" y="-30" type="curve"/>
      <point x="287" y="52" type="line"/>
      <point x="133" y="50" type="line"/>
    </contour>
    <contour>
      <point x="278" y="0" type="line"/>
      <point x="278" y="-51"/>
      <point x="237" y="-92"/>
      <point x="188" y="-92" type="curve" smooth="yes"/>
      <point x="163" y="-92"/>
      <point x="143" y="-71"/>
      <point x="143" y="-45" type="curve" smooth="yes"/>
      <point x="143" y="-4"/>
      <point x="173" y="28"/>
      <point x="223" y="34" type="curve"/>
      <point x="258" y="30" type="line"/>
    </contour>
    <contour>
      <point x="151" y="23" type="line"/>
      <point x="234" y="-101" type="line"/>
      <point x="268" y="-74" type="line"/>
      <point x="193" y="38" type="line"/>
    </contour>
    <component base="da-deva"/>
    <contour>
      <point x="112" y="-80" type="move" name="nukta"/>
    </contour>
    <contour>
      <point x="361" y="-56" type="move" name="bottom"/>
    </contour>
    <contour>
      <point x="361" y="500" type="move" name="top"/>
    </contour>
  </outline>
</glyph>
<glyph name="d_da-deva" format="1">
  <advance width="486"/>
  <outline>
    <contour>
      <point x="-10" y="500" type="line"/>
      <point x="-10" y="470" type="line"/>
      <point x="323" y="470" type="line"/>
      <point x="323" y="385" type="line"/>
      <point x="296" y="395"/>
      <point x="264" y="400"/>
      <point x="228" y="400" type="curve" smooth="yes"/>
      <point x="120" y="400"/>
      <point x="33" y="357"/>
      <point x="33" y="305" type="curve" smooth="yes"/>
      <point x="33" y="268"/>
      <point x="71" y="234"/>
      <point x="123" y="225" type="curve"/>
      <point x="71" y="201"/>
      <point x="38" y="162"/>
      <point x="38" y="125" type="curve" smooth="yes"/>
      <point x="38" y="45"/>
      <point x="141" y="1"/>
      <point x="225" y="1" type="curve"/>
      <point x="377" y="1"/>
      <point x="458" y="74"/>
      <point x="458" y="145" type="curve" smooth="yes"/>
      <point x="458" y="184"/>
      <point x="424" y="225"/>
      <point x="353" y="225" type="curve" smooth="yes"/>
      <point x="284" y="225"/>
      <point x="228" y="180"/>
      <point x="228" y="120" type="curve" smooth="yes"/>
      <point x="228" y="59"/>
      <point x="252" y="2"/>
      <point x="323" y="-70" type="curve"/>
      <point x="403" y="-35" type="line"/>
      <point x="359" y="-3"/>
      <point x="313" y="71"/>
      <point x="313" y="140" type="curve"/>
      <point x="313" y="157"/>
      <point x="322" y="191"/>
      <point x="348" y="191" type="curve" smooth="yes"/>
      <point x="361" y="191"/>
      <point x="373" y="172"/>
      <point x="373" y="145" type="curve"/>
      <point x="373" y="45"/>
      <point x="254" y="38"/>
      <point x="235" y="38" type="curve" smooth="yes"/>
      <point x="185" y="38"/>
      <point x="148" y="81"/>
      <point x="148" y="128" type="curve" smooth="yes"/>
      <point x="148" y="183"/>
      <point x="193" y="228"/>
      <point x="253" y="228" type="curve"/>
      <point x="253" y="260" type="line"/>
      <point x="239" y="258"/>
      <point x="226" y="257"/>
      <point x="215" y="257" type="curve" smooth="yes"/>
      <point x="160" y="257"/>
      <point x="143" y="283"/>
      <point x="143" y="310" type="curve" smooth="yes"/>
      <point x="143" y="341"/>
      <point x="181" y="365"/>
      <point x="228" y="365" type="curve" smooth="yes"/>
      <point x="269" y="365"/>
      <point x="305" y="355"/>
      <point x="328" y="335" type="curve"/>
      <point x="423" y="376" type="line"/>
      <point x="423" y="470" type="line"/>
      <point x="496" y="470" type="line"/>
      <point x="496" y="500" type="line"/>
    </contour>
  </outline>
</glyph>
<glyph name="d_gha-deva" format="1">
  <advance width="602"/>
  <outline>
    <contour>
      <point x="77" y="188"/>
      <point x="21" y="140"/>
      <point x="21" y="85" type="curve" smooth="yes"/>
      <point x="21" y="33"/>
      <point x="64" y="-10"/>
      <point x="116" y="-10" type="curve" smooth="yes"/>
      <point x="129" y="-10"/>
      <point x="141" y="-8"/>
      <point x="151" y="-5" type="curve"/>
      <point x="150" y="-12"/>
      <point x="149" y="-18"/>
      <point x="149" y="-25" type="curve" smooth="yes"/>
      <point x="149" y="-85"/>
      <point x="206" y="-115"/>
      <point x="261" y="-115" type="curve" smooth="yes"/>
      <point x="327" y="-115"/>
      <point x="386" y="-73"/>
      <point x="406" y="0" type="curve"/>
      <point x="419" y="58" type="line"/>
      <point x="371" y="40" type="line"/>
      <point x="371" y="-21"/>
      <point x="328" y="-70"/>
      <point x="276" y="-70" type="curve" smooth="yes"/>
      <point x="248" y="-70"/>
      <point x="226" y="-48"/>
      <point x="226" y="-20" type="curve" smooth="yes"/>
      <point x="226" y="9"/>
      <point x="243" y="33"/>
      <point x="270" y="49" type="curve"/>
      <point x="227" y="74" type="line"/>
      <point x="206" y="51"/>
      <point x="169" y="40"/>
      <point x="146" y="40" type="curve" smooth="yes"/>
      <point x="115" y="40"/>
      <point x="91" y="60"/>
      <point x="91" y="93" type="curve" smooth="yes"/>
      <point x="91" y="134"/>
      <point x="120" y="157"/>
      <point x="158" y="164" type="curve"/>
      <point x="151" y="199" type="line"/>
    </contour>
    <contour>
      <point x="-10" y="500" type="line"/>
      <point x="-10" y="470" type="line"/>
      <point x="426" y="470" type="line"/>
      <point x="426" y="390" type="line"/>
      <point x="406" y="398"/>
      <point x="383" y="402"/>
      <point x="358" y="402" type="curve" smooth="yes"/>
      <point x="262" y="402"/>
      <point x="146" y="342"/>
      <point x="146" y="220" type="curve" smooth="yes"/>
      <point x="146" y="105"/>
      <point x="225" y="30"/>
      <point x="346" y="30" type="curve" smooth="yes"/>
      <point x="371" y="30" type="line"/>
      <point x="386" y="-1"/>
      <point x="411" y="-35"/>
      <point x="446" y="-70" type="curve"/>
      <point x="531" y="-30" type="line"/>
      <point x="503" y="-7"/>
      <point x="481" y="18"/>
      <point x="466" y="45" type="curve"/>
      <point x="533" y="69"/>
      <point x="576" y="119"/>
      <point x="576" y="170" type="curve" smooth="yes"/>
      <point x="576" y="227"/>
      <point x="516" y="275"/>
      <point x="441" y="275" type="curve" smooth="yes"/>
      <point x="372" y="275"/>
      <point x="316" y="226"/>
      <point x="316" y="165" type="curve" smooth="yes"/>
      <point x="316" y="134"/>
      <point x="329" y="97"/>
      <point x="356" y="60" type="curve"/>
      <point x="301" y="60"/>
      <point x="256" y="132"/>
      <point x="256" y="220" type="curve" smooth="yes"/>
      <point x="256" y="300"/>
      <point x="307" y="365"/>
      <point x="371" y="365" type="curve" smooth="yes"/>
      <point x="398" y="365"/>
      <point x="420" y="358"/>
      <point x="436" y="345" type="curve"/>
      <point x="526" y="366" type="line"/>
      <point x="526" y="470" type="line"/>
      <point x="611" y="470" type="line"/>
      <point x="611" y="500" type="line"/>
    </contour>
    <contour>
      <point x="458" y="240"/>
      <point x="466" y="202"/>
      <point x="466" y="170" type="curve" smooth="yes"/>
      <point x="466" y="136"/>
      <point x="465" y="107"/>
      <point x="451" y="80" type="curve"/>
      <point x="434" y="109"/>
      <point x="426" y="142"/>
      <point x="426" y="180" type="curve" smooth="yes"/>
      <point x="426" y="201"/>
      <point x="429" y="240"/>
      <point x="441" y="240" type="curve" smooth="yes"/>
    </contour>
    <contour>
      <point x="227" y="-80" type="move" name="nukta"/>
    </contour>
    <contour>
      <point x="476" y="-56" type="move" name="bottom"/>
    </contour>
    <contour>
      <point x="476" y="500" type="move" name="top"/>
    </contour>
  </outline>
</glyph>
<glyph name="d_ma-deva" format="1">
  <advance width="563"/>
  <note>
    g251
  </note>
  <outline>
    <contour>
      <point x="-10" y="500" type="line"/>
      <point x="-10" y="470" type="line"/>
      <point x="193" y="470" type="line"/>
      <point x="193" y="430" type="line"/>
      <point x="90" y="430"/>
      <point x="23" y="385"/>
      <point x="23" y="330" type="curve" smooth="yes"/>
      <point x="23" y="275"/>
      <point x="73" y="230"/>
      <point x="158" y="230" type="curve" smooth="yes"/>
      <point x="187" y="230"/>
      <point x="206" y="232"/>
      <point x="213" y="235" type="curve"/>
      <point x="213" y="180" type="line"/>
      <point x="130" y="180"/>
      <point x="63" y="138"/>
      <point x="63" y="80" type="curve" smooth="yes"/>
      <point x="63" y="21"/>
      <point x="117" y="-15"/>
      <point x="188" y="-15" type="curve" smooth="yes"/>
      <point x="259" y="-15"/>
      <point x="313" y="35"/>
      <point x="313" y="100" type="curve" smooth="yes"/>
      <point x="313" y="140" type="line"/>
      <point x="393" y="140" type="line"/>
      <point x="393" y="0" type="line"/>
      <point x="493" y="0" type="line"/>
      <point x="493" y="470" type="line"/>
      <point x="573" y="470" type="line"/>
      <point x="573" y="500" type="line"/>
    </contour>
    <contour>
      <point x="213" y="65" type="line" smooth="yes"/>
      <point x="213" y="39"/>
      <point x="209" y="20"/>
      <point x="193" y="20" type="curve" smooth="yes"/>
      <point x="175" y="20"/>
      <point x="163" y="42"/>
      <point x="163" y="70" type="curve" smooth="yes"/>
      <point x="163" y="106"/>
      <point x="185" y="136"/>
      <point x="213" y="140" type="curve"/>
    </contour>
    <contour>
      <point x="393" y="180" type="line"/>
      <point x="313" y="180" type="line"/>
      <point x="313" y="233" type="line" smooth="yes"/>
      <point x="313" y="252"/>
      <point x="296" y="268"/>
      <point x="273" y="268" type="curve" smooth="yes"/>
      <point x="203" y="268" type="line" smooth="yes"/>
      <point x="154" y="268"/>
      <point x="133" y="296"/>
      <point x="133" y="330" type="curve" smooth="yes"/>
      <point x="133" y="366"/>
      <point x="162" y="395"/>
      <point x="218" y="395" type="curve" smooth="yes"/>
      <point x="258" y="395"/>
      <point x="283" y="393"/>
      <point x="293" y="390" type="curve"/>
      <point x="293" y="470" type="line"/>
      <point x="393" y="470" type="line"/>
    </contour>
    <contour>
      <point x="198" y="-100" type="move" name="nukta"/>
    </contour>
    <contour>
      <point x="443" y="0" type="move" name="bottom"/>
    </contour>
    <contour>
      <point x="443" y="500" type="move" name="top"/>
    </contour>
  </outline>
</glyph>
<glyph name="d_ya-deva" format="1">
  <advance width="495"/>
  <outline>
    <contour>
      <point x="-10" y="500" type="line"/>
      <point x="-10" y="470" type="line"/>
      <point x="181" y="470" type="line"/>
      <point x="181" y="430" type="line"/>
      <point x="121" y="430"/>
      <point x="26" y="410"/>
      <point x="26" y="335" type="curve" smooth="yes"/>
      <point x="26" y="287"/>
      <point x="73" y="245"/>
      <point x="136" y="240" type="curve"/>
      <point x="91" y="219"/>
      <point x="61" y="178"/>
      <point x="61" y="135" type="curve" smooth="yes"/>
      <point x="61" y="64"/>
      <point x="134" y="26"/>
      <point x="209" y="26" type="curve" smooth="yes"/>
      <point x="263" y="26"/>
      <point x="318" y="45"/>
      <point x="351" y="85" type="curve"/>
      <point x="351" y="0" type="line"/>
      <point x="451" y="0" type="line"/>
      <point x="451" y="470" type="line"/>
      <point x="531" y="470" type="line"/>
      <point x="531" y="500" type="line"/>
    </contour>
    <contour>
      <point x="351" y="145" type="line"/>
      <point x="334" y="95"/>
      <point x="287" y="70"/>
      <point x="246" y="70" type="curve" smooth="yes"/>
      <point x="206" y="70"/>
      <point x="171" y="93"/>
      <point x="171" y="140" type="curve" smooth="yes"/>
      <point x="171" y="189"/>
      <point x="214" y="232"/>
      <point x="271" y="243" type="curve"/>
      <point x="263" y="274" type="line"/>
      <point x="249" y="271"/>
      <point x="235" y="270"/>
      <point x="220" y="270" type="curve" smooth="yes"/>
      <point x="176" y="270"/>
      <point x="136" y="285"/>
      <point x="136" y="336" type="curve" smooth="yes"/>
      <point x="136" y="381"/>
      <point x="178" y="400"/>
      <point x="224" y="400" type="curve" smooth="yes"/>
      <point x="243" y="400"/>
      <point x="263" y="396"/>
      <point x="281" y="390" type="curve"/>
      <point x="281" y="470" type="line"/>
      <point x="351" y="470" type="line"/>
    </contour>
    <contour>
      <point x="118" y="-80" type="move" name="nukta"/>
    </contour>
    <contour>
      <point x="401" y="0" type="move" name="bottom"/>
    </contour>
    <contour>
      <point x="401" y="500" type="move" name="top"/>
    </contour>
  </outline>
</glyph>
<glyph name="dd_dda-deva" format="1">
  <advance width="477"/>
  <outline>
    <contour>
      <point x="-10" y="500" type="line"/>
      <point x="-10" y="470" type="line"/>
      <point x="301" y="470" type="line"/>
      <point x="301" y="420" type="line"/>
      <point x="284" y="423"/>
      <point x="254" y="424"/>
      <point x="221" y="424" type="curve" smooth="yes"/>
      <point x="150" y="424"/>
      <point x="66" y="405"/>
      <point x="66" y="358" type="curve" smooth="yes"/>
      <point x="66" y="266"/>
      <point x="341" y="290"/>
      <point x="341" y="240" type="curve" smooth="yes"/>
      <point x="341" y="212"/>
      <point x="293" y="195"/>
      <point x="236" y="195" type="curve" smooth="yes"/>
      <point x="167" y="195"/>
      <point x="119" y="229"/>
      <point x="141" y="286" type="curve"/>
      <point x="94" y="289"/>
      <point x="41" y="283"/>
      <point x="41" y="243" type="curve" smooth="yes"/>
      <point x="41" y="193"/>
      <point x="128" y="164"/>
      <point x="236" y="164" type="curve" smooth="yes"/>
      <point x="351" y="164"/>
      <point x="446" y="197"/>
      <point x="446" y="255" type="curve" smooth="yes"/>
      <point x="446" y="356"/>
      <point x="176" y="335"/>
      <point x="176" y="373" type="curve" smooth="yes"/>
      <point x="176" y="386"/>
      <point x="204" y="393"/>
      <point x="237" y="393" type="curve" smooth="yes"/>
      <point x="265" y="393"/>
      <point x="297" y="385"/>
      <point x="316" y="375" type="curve"/>
      <point x="401" y="410" type="line"/>
      <point x="401" y="470" type="line"/>
      <point x="487" y="470" type="line"/>
      <point x="487" y="500" type="line"/>
    </contour>
    <contour>
      <point x="301" y="191" type="line"/>
      <point x="301" y="121" type="line"/>
      <point x="284" y="124"/>
      <point x="254" y="125"/>
      <point x="221" y="125" type="curve" smooth="yes"/>
      <point x="150" y="125"/>
      <point x="66" y="106"/>
      <point x="66" y="59" type="curve" smooth="yes"/>
      <point x="66" y="-33"/>
      <point x="341" y="-9"/>
      <point x="341" y="-59" type="curve" smooth="yes"/>
      <point x="341" y="-87"/>
      <point x="293" y="-104"/>
      <point x="236" y="-104" type="curve" smooth="yes"/>
      <point x="167" y="-104"/>
      <point x="119" y="-70"/>
      <point x="141" y="-13" type="curve"/>
      <point x="94" y="-10"/>
      <point x="41" y="-16"/>
      <point x="41" y="-56" type="curve" smooth="yes"/>
      <point x="41" y="-106"/>
      <point x="128" y="-135"/>
      <point x="236" y="-135" type="curve" smooth="yes"/>
      <point x="351" y="-135"/>
      <point x="446" y="-102"/>
      <point x="446" y="-44" type="curve" smooth="yes"/>
      <point x="446" y="57"/>
      <point x="176" y="36"/>
      <point x="176" y="74" type="curve" smooth="yes"/>
      <point x="176" y="87"/>
      <point x="204" y="94"/>
      <point x="237" y="94" type="curve" smooth="yes"/>
      <point x="265" y="94"/>
      <point x="297" y="86"/>
      <point x="316" y="76" type="curve"/>
      <point x="401" y="111" type="line"/>
      <point x="401" y="214" type="line"/>
    </contour>
    <contour>
      <point x="236" y="-200" type="move" name="nukta"/>
    </contour>
    <contour>
      <point x="356" y="-135" type="move" name="bottom"/>
    </contour>
    <contour>
      <point x="356" y="500" type="move" name="top"/>
    </contour>
  </outline>
</glyph>
<glyph name="dd_ddha-deva" format="1">
  <advance width="477"/>
  <outline>
    <contour>
      <point x="-10" y="500" type="line"/>
      <point x="-10" y="470" type="line"/>
      <point x="301" y="470" type="line"/>
      <point x="301" y="420" type="line"/>
      <point x="284" y="423"/>
      <point x="254" y="424"/>
      <point x="221" y="424" type="curve" smooth="yes"/>
      <point x="150" y="424"/>
      <point x="66" y="405"/>
      <point x="66" y="358" type="curve" smooth="yes"/>
      <point x="66" y="266"/>
      <point x="341" y="290"/>
      <point x="341" y="240" type="curve" smooth="yes"/>
      <point x="341" y="212"/>
      <point x="293" y="195"/>
      <point x="236" y="195" type="curve" smooth="yes"/>
      <point x="167" y="195"/>
      <point x="119" y="229"/>
      <point x="141" y="286" type="curve"/>
      <point x="94" y="289"/>
      <point x="41" y="283"/>
      <point x="41" y="243" type="curve" smooth="yes"/>
      <point x="41" y="193"/>
      <point x="128" y="164"/>
      <point x="236" y="164" type="curve" smooth="yes"/>
      <point x="351" y="164"/>
      <point x="446" y="201"/>
      <point x="446" y="265" type="curve" smooth="yes"/>
      <point x="446" y="347"/>
      <point x="176" y="338"/>
      <point x="176" y="373" type="curve" smooth="yes"/>
      <point x="176" y="386"/>
      <point x="204" y="393"/>
      <point x="237" y="393" type="curve" smooth="yes"/>
      <point x="265" y="393"/>
      <point x="297" y="385"/>
      <point x="316" y="375" type="curve"/>
      <point x="401" y="410" type="line"/>
      <point x="401" y="470" type="line"/>
      <point x="487" y="470" type="line"/>
      <point x="487" y="500" type="line"/>
    </contour>
    <contour>
      <point x="301" y="181" type="line"/>
      <point x="301" y="117" type="line"/>
      <point x="287" y="121"/>
      <point x="265" y="125"/>
      <point x="236" y="125" type="curve" smooth="yes"/>
      <point x="98" y="125"/>
      <point x="6" y="76"/>
      <point x="6" y="1" type="curve" smooth="yes"/>
      <point x="6" y="-81"/>
      <point x="104" y="-135"/>
      <point x="251" y="-135" type="curve" smooth="yes"/>
      <point x="388" y="-135"/>
      <point x="481" y="-91"/>
      <point x="481" y="-26" type="curve" smooth="yes"/>
      <point x="481" y="14"/>
      <point x="413" y="51"/>
      <point x="336" y="51" type="curve" smooth="yes"/>
      <point x="261" y="51"/>
      <point x="201" y="14"/>
      <point x="201" y="-32" type="curve" smooth="yes"/>
      <point x="201" y="-69"/>
      <point x="233" y="-90"/>
      <point x="281" y="-104" type="curve"/>
      <point x="205" y="-104"/>
      <point x="116" y="-92"/>
      <point x="116" y="1" type="curve" smooth="yes"/>
      <point x="116" y="53"/>
      <point x="172" y="95"/>
      <point x="236" y="95" type="curve" smooth="yes"/>
      <point x="263" y="95"/>
      <point x="285" y="90"/>
      <point x="301" y="82" type="curve"/>
      <point x="401" y="115" type="line"/>
      <point x="401" y="201" type="line"/>
    </contour>
    <contour>
      <point x="363" y="19"/>
      <point x="381" y="-4"/>
      <point x="381" y="-36" type="curve" smooth="yes"/>
      <point x="381" y="-66"/>
      <point x="363" y="-90"/>
      <point x="341" y="-90" type="curve"/>
      <point x="319" y="-90"/>
      <point x="301" y="-66"/>
      <point x="301" y="-36" type="curve" smooth="yes"/>
      <point x="301" y="-4"/>
      <point x="319" y="19"/>
      <point x="341" y="19" type="curve"/>
    </contour>
    <contour>
      <point x="251" y="-200" type="move" name="nukta"/>
    </contour>
    <contour>
      <point x="351" y="-135" type="move" name="bottom"/>
    </contour>
    <contour>
      <point x="356" y="500" type="move" name="top"/>
    </contour>
  </outline>
</glyph>
<glyph name="dd_ra-deva" format="1">
  <advance width="477"/>
  <outline>
    <component base="rakar-deva" xOffset="426"/>
    <component base="dda-deva"/>
    <contour>
      <point x="281" y="-120" type="move" name="nukta"/>
    </contour>
    <contour>
      <point x="266" y="0" type="move" name="bottom"/>
    </contour>
    <contour>
      <point x="286" y="500" type="move" name="top"/>
    </contour>
  </outline>
</glyph>
<glyph name="ddh_ra-deva" format="1">
  <advance width="540"/>
  <outline>
    <component base="rakar-deva" xOffset="454"/>
    <component base="ddha-deva"/>
    <contour>
      <point x="259" y="-120" type="move" name="nukta"/>
    </contour>
    <contour>
      <point x="274" y="0" type="move" name="bottom"/>
    </contour>
    <contour>
      <point x="270" y="500" type="move" name="top"/>
    </contour>
  </outline>
</glyph>
<glyph name="ddh_ya-deva" format="1">
  <advance width="1048"/>
  <outline>
    <contour>
      <point x="-10" y="500" type="line"/>
      <point x="-10" y="470" type="line"/>
      <point x="327" y="470" type="line"/>
      <point x="327" y="390" type="line"/>
      <point x="313" y="397"/>
      <point x="291" y="400"/>
      <point x="262" y="400" type="curve" smooth="yes"/>
      <point x="123" y="400"/>
      <point x="32" y="321"/>
      <point x="32" y="200" type="curve" smooth="yes"/>
      <point x="32" y="79"/>
      <point x="129" y="0"/>
      <point x="277" y="0" type="curve" smooth="yes"/>
      <point x="422" y="0"/>
      <point x="517" y="59"/>
      <point x="517" y="150" type="curve" smooth="yes"/>
      <point x="517" y="217"/>
      <point x="447" y="270"/>
      <point x="362" y="270" type="curve" smooth="yes"/>
      <point x="287" y="270"/>
      <point x="227" y="217"/>
      <point x="227" y="150" type="curve" smooth="yes"/>
      <point x="227" y="102"/>
      <point x="259" y="57"/>
      <point x="307" y="40" type="curve"/>
      <point x="296" y="33"/>
      <point x="281" y="30"/>
      <point x="262" y="30" type="curve" smooth="yes"/>
      <point x="195" y="30"/>
      <point x="142" y="107"/>
      <point x="142" y="200" type="curve" smooth="yes"/>
      <point x="142" y="293"/>
      <point x="195" y="370"/>
      <point x="262" y="370" type="curve" smooth="yes"/>
      <point x="289" y="370"/>
      <point x="311" y="361"/>
      <point x="327" y="344" type="curve"/>
      <point x="441" y="377"/>
      <point x="534" y="393"/>
      <point x="623" y="393" type="curve" smooth="yes"/>
      <point x="702" y="393"/>
      <point x="728" y="363"/>
      <point x="728" y="330" type="curve" smooth="yes"/>
      <point x="728" y="289"/>
      <point x="675" y="255"/>
      <point x="608" y="255" type="curve" smooth="yes"/>
      <point x="580" y="255"/>
      <point x="558" y="239"/>
      <point x="558" y="220" type="curve" smooth="yes"/>
      <point x="558" y="129"/>
      <point x="643" y="55"/>
      <point x="748" y="55" type="curve" smooth="yes"/>
      <point x="799" y="55"/>
      <point x="847" y="81"/>
      <point x="878" y="125" type="curve"/>
      <point x="878" y="0" type="line"/>
      <point x="978" y="0" type="line"/>
      <point x="978" y="470" type="line"/>
      <point x="1058" y="470" type="line"/>
      <point x="1058" y="500" type="line"/>
    </contour>
    <contour>
      <point x="878" y="190" type="line"/>
      <point x="858" y="135"/>
      <point x="812" y="100"/>
      <point x="763" y="100" type="curve" smooth="yes"/>
      <point x="708" y="100"/>
      <point x="663" y="158"/>
      <point x="663" y="230" type="curve"/>
      <point x="759" y="230"/>
      <point x="838" y="275"/>
      <point x="838" y="330" type="curve" smooth="yes"/>
      <point x="838" y="382"/>
      <point x="763" y="424"/>
      <point x="623" y="424" type="curve" smooth="yes"/>
      <point x="549" y="424"/>
      <point x="484" y="414"/>
      <point x="427" y="402" type="curve"/>
      <point x="427" y="470" type="line"/>
      <point x="878" y="470" type="line"/>
    </contour>
    <contour>
      <point x="389" y="240"/>
      <point x="407" y="199"/>
      <point x="407" y="150" type="curve" smooth="yes"/>
      <point x="407" y="101"/>
      <point x="389" y="60"/>
      <point x="367" y="60" type="curve" smooth="yes"/>
      <point x="345" y="60"/>
      <point x="327" y="101"/>
      <point x="327" y="150" type="curve" smooth="yes"/>
      <point x="327" y="199"/>
      <point x="345" y="240"/>
      <point x="367" y="240" type="curve" smooth="yes"/>
    </contour>
    <contour>
      <point x="277" y="-100" type="move" name="nukta"/>
    </contour>
    <contour>
      <point x="928" y="0" type="move" name="bottom"/>
    </contour>
    <contour>
      <point x="928" y="500" type="move" name="top"/>
    </contour>
  </outline>
</glyph>
<glyph name="dh_ra-deva" format="1">
  <advance width="541"/>
  <outline>
    <component base="dha-deva"/>
    <component base="ra-deva.post" xOffset="516" yOffset="-30"/>
    <contour>
      <point x="151" y="-55" type="move" name="nukta"/>
    </contour>
    <contour>
      <point x="421" y="0" type="move" name="bottom"/>
    </contour>
    <contour>
      <point x="421" y="500" type="move" name="top"/>
    </contour>
  </outline>
</glyph>
<glyph name="dotaccent.case" format="1">
  <advance width="227"/>
  <outline>
    <contour>
      <point x="147" y="559"/>
      <point x="174" y="586"/>
      <point x="174" y="619" type="curve" smooth="yes"/>
      <point x="174" y="652"/>
      <point x="147" y="679"/>
      <point x="114" y="679" type="curve" smooth="yes"/>
      <point x="81" y="679"/>
      <point x="54" y="652"/>
      <point x="54" y="619" type="curve" smooth="yes"/>
      <point x="54" y="586"/>
      <point x="81" y="559"/>
      <point x="114" y="559" type="curve" smooth="yes"/>
    </contour>
    <contour>
      <point x="114" y="512" type="move" name="_top"/>
    </contour>
  </outline>
</glyph>
<glyph name="eMatra_anusvara-deva" format="1">
  <advance width="0"/>
  <outline>
    <component base="eMatra-deva"/>
    <component base="anusvara-deva" xOffset="55"/>
    <contour>
      <point x="-120" y="500" type="move" name="_top"/>
    </contour>
  </outline>
</glyph>
<glyph name="eight-deva.loclNEP" format="1">
  <advance width="550"/>
  <outline>
    <contour>
      <point x="176" y="361"/>
      <point x="85" y="242"/>
      <point x="85" y="155" type="curve" smooth="yes"/>
      <point x="85" y="35"/>
      <point x="181" y="-15"/>
      <point x="283" y="-15" type="curve" smooth="yes"/>
      <point x="352" y="-15"/>
      <point x="421" y="20"/>
      <point x="469" y="81" type="curve"/>
      <point x="391" y="118" type="line"/>
      <point x="367" y="52"/>
      <point x="318" y="21"/>
      <point x="276" y="21" type="curve" smooth="yes"/>
      <point x="229" y="21"/>
      <point x="185" y="60"/>
      <point x="185" y="135" type="curve" smooth="yes"/>
      <point x="185" y="232"/>
      <point x="283" y="358"/>
      <point x="442" y="470" type="curve"/>
      <point x="327" y="470" type="line"/>
    </contour>
    <contour>
      <point x="41" y="470" type="line"/>
      <point x="510" y="470" type="line"/>
      <point x="510" y="500" type="line"/>
      <point x="41" y="500" type="line"/>
    </contour>
  </outline>
</glyph>
